<?xml version="1.0" encoding="utf-8"?>
<svg xmlns="http://www.w3.org/2000/svg" xmlns:xlink="http://www.w3.org/1999/xlink" width="600" height="400" viewBox="0 0 2400 1600">
<defs>
  <clipPath id="clip750">
    <rect x="0" y="0" width="2400" height="1600"/>
  </clipPath>
</defs>
<path clip-path="url(#clip750)" d="
M0 1600 L2400 1600 L2400 0 L0 0  Z
  " fill="#ffffff" fill-rule="evenodd" fill-opacity="1"/>
<defs>
  <clipPath id="clip751">
    <rect x="480" y="0" width="1681" height="1600"/>
  </clipPath>
</defs>
<path clip-path="url(#clip750)" d="
M219.866 1423.18 L2352.76 1423.18 L2352.76 123.472 L219.866 123.472  Z
  " fill="#ffffff" fill-rule="evenodd" fill-opacity="1"/>
<defs>
  <clipPath id="clip752">
    <rect x="219" y="123" width="2134" height="1301"/>
  </clipPath>
</defs>
<polyline clip-path="url(#clip752)" style="stroke:#000000; stroke-linecap:butt; stroke-linejoin:round; stroke-width:2; stroke-opacity:0.1; fill:none" points="
  276.199,1423.18 276.199,123.472 
  "/>
<polyline clip-path="url(#clip752)" style="stroke:#000000; stroke-linecap:butt; stroke-linejoin:round; stroke-width:2; stroke-opacity:0.1; fill:none" points="
  679.437,1423.18 679.437,123.472 
  "/>
<polyline clip-path="url(#clip752)" style="stroke:#000000; stroke-linecap:butt; stroke-linejoin:round; stroke-width:2; stroke-opacity:0.1; fill:none" points="
  1082.68,1423.18 1082.68,123.472 
  "/>
<polyline clip-path="url(#clip752)" style="stroke:#000000; stroke-linecap:butt; stroke-linejoin:round; stroke-width:2; stroke-opacity:0.1; fill:none" points="
  1485.91,1423.18 1485.91,123.472 
  "/>
<polyline clip-path="url(#clip752)" style="stroke:#000000; stroke-linecap:butt; stroke-linejoin:round; stroke-width:2; stroke-opacity:0.1; fill:none" points="
  1889.15,1423.18 1889.15,123.472 
  "/>
<polyline clip-path="url(#clip752)" style="stroke:#000000; stroke-linecap:butt; stroke-linejoin:round; stroke-width:2; stroke-opacity:0.1; fill:none" points="
  2292.39,1423.18 2292.39,123.472 
  "/>
<polyline clip-path="url(#clip750)" style="stroke:#000000; stroke-linecap:butt; stroke-linejoin:round; stroke-width:4; stroke-opacity:1; fill:none" points="
  219.866,1423.18 2352.76,1423.18 
  "/>
<polyline clip-path="url(#clip750)" style="stroke:#000000; stroke-linecap:butt; stroke-linejoin:round; stroke-width:4; stroke-opacity:1; fill:none" points="
  219.866,123.472 2352.76,123.472 
  "/>
<polyline clip-path="url(#clip750)" style="stroke:#000000; stroke-linecap:butt; stroke-linejoin:round; stroke-width:4; stroke-opacity:1; fill:none" points="
  276.199,1423.18 276.199,1407.58 
  "/>
<polyline clip-path="url(#clip750)" style="stroke:#000000; stroke-linecap:butt; stroke-linejoin:round; stroke-width:4; stroke-opacity:1; fill:none" points="
  679.437,1423.18 679.437,1407.58 
  "/>
<polyline clip-path="url(#clip750)" style="stroke:#000000; stroke-linecap:butt; stroke-linejoin:round; stroke-width:4; stroke-opacity:1; fill:none" points="
  1082.68,1423.18 1082.68,1407.58 
  "/>
<polyline clip-path="url(#clip750)" style="stroke:#000000; stroke-linecap:butt; stroke-linejoin:round; stroke-width:4; stroke-opacity:1; fill:none" points="
  1485.91,1423.18 1485.91,1407.58 
  "/>
<polyline clip-path="url(#clip750)" style="stroke:#000000; stroke-linecap:butt; stroke-linejoin:round; stroke-width:4; stroke-opacity:1; fill:none" points="
  1889.15,1423.18 1889.15,1407.58 
  "/>
<polyline clip-path="url(#clip750)" style="stroke:#000000; stroke-linecap:butt; stroke-linejoin:round; stroke-width:4; stroke-opacity:1; fill:none" points="
  2292.39,1423.18 2292.39,1407.58 
  "/>
<path clip-path="url(#clip750)" d="M276.199 1452.37 Q272.588 1452.37 270.759 1455.94 Q268.953 1459.48 268.953 1466.61 Q268.953 1473.71 270.759 1477.28 Q272.588 1480.82 276.199 1480.82 Q279.833 1480.82 281.638 1477.28 Q283.467 1473.71 283.467 1466.61 Q283.467 1459.48 281.638 1455.94 Q279.833 1452.37 276.199 1452.37 M276.199 1448.67 Q282.009 1448.67 285.064 1453.27 Q288.143 1457.86 288.143 1466.61 Q288.143 1475.33 285.064 1479.94 Q282.009 1484.52 276.199 1484.52 Q270.389 1484.52 267.31 1479.94 Q264.254 1475.33 264.254 1466.61 Q264.254 1457.86 267.31 1453.27 Q270.389 1448.67 276.199 1448.67 Z" fill="#000000" fill-rule="evenodd" fill-opacity="1" /><path clip-path="url(#clip750)" d="M639.044 1479.92 L646.683 1479.92 L646.683 1453.55 L638.373 1455.22 L638.373 1450.96 L646.636 1449.29 L651.312 1449.29 L651.312 1479.92 L658.951 1479.92 L658.951 1483.85 L639.044 1483.85 L639.044 1479.92 Z" fill="#000000" fill-rule="evenodd" fill-opacity="1" /><path clip-path="url(#clip750)" d="M678.396 1452.37 Q674.784 1452.37 672.956 1455.94 Q671.15 1459.48 671.15 1466.61 Q671.15 1473.71 672.956 1477.28 Q674.784 1480.82 678.396 1480.82 Q682.03 1480.82 683.835 1477.28 Q685.664 1473.71 685.664 1466.61 Q685.664 1459.48 683.835 1455.94 Q682.03 1452.37 678.396 1452.37 M678.396 1448.67 Q684.206 1448.67 687.261 1453.27 Q690.34 1457.86 690.34 1466.61 Q690.34 1475.33 687.261 1479.94 Q684.206 1484.52 678.396 1484.52 Q672.585 1484.52 669.507 1479.94 Q666.451 1475.33 666.451 1466.61 Q666.451 1457.86 669.507 1453.27 Q672.585 1448.67 678.396 1448.67 Z" fill="#000000" fill-rule="evenodd" fill-opacity="1" /><path clip-path="url(#clip750)" d="M708.557 1452.37 Q704.946 1452.37 703.118 1455.94 Q701.312 1459.48 701.312 1466.61 Q701.312 1473.71 703.118 1477.28 Q704.946 1480.82 708.557 1480.82 Q712.192 1480.82 713.997 1477.28 Q715.826 1473.71 715.826 1466.61 Q715.826 1459.48 713.997 1455.94 Q712.192 1452.37 708.557 1452.37 M708.557 1448.67 Q714.368 1448.67 717.423 1453.27 Q720.502 1457.86 720.502 1466.61 Q720.502 1475.33 717.423 1479.94 Q714.368 1484.52 708.557 1484.52 Q702.747 1484.52 699.669 1479.94 Q696.613 1475.33 696.613 1466.61 Q696.613 1457.86 699.669 1453.27 Q702.747 1448.67 708.557 1448.67 Z" fill="#000000" fill-rule="evenodd" fill-opacity="1" /><path clip-path="url(#clip750)" d="M1046.37 1479.92 L1062.69 1479.92 L1062.69 1483.85 L1040.74 1483.85 L1040.74 1479.92 Q1043.41 1477.16 1047.99 1472.53 Q1052.59 1467.88 1053.78 1466.54 Q1056.02 1464.01 1056.9 1462.28 Q1057.8 1460.52 1057.8 1458.83 Q1057.8 1456.07 1055.86 1454.34 Q1053.94 1452.6 1050.84 1452.6 Q1048.64 1452.6 1046.18 1453.37 Q1043.75 1454.13 1040.97 1455.68 L1040.97 1450.96 Q1043.8 1449.82 1046.25 1449.25 Q1048.71 1448.67 1050.74 1448.67 Q1056.11 1448.67 1059.31 1451.35 Q1062.5 1454.04 1062.5 1458.53 Q1062.5 1460.66 1061.69 1462.58 Q1060.9 1464.48 1058.8 1467.07 Q1058.22 1467.74 1055.12 1470.96 Q1052.02 1474.15 1046.37 1479.92 Z" fill="#000000" fill-rule="evenodd" fill-opacity="1" /><path clip-path="url(#clip750)" d="M1082.5 1452.37 Q1078.89 1452.37 1077.06 1455.94 Q1075.26 1459.48 1075.26 1466.61 Q1075.26 1473.71 1077.06 1477.28 Q1078.89 1480.82 1082.5 1480.82 Q1086.14 1480.82 1087.94 1477.28 Q1089.77 1473.71 1089.77 1466.61 Q1089.77 1459.48 1087.94 1455.94 Q1086.14 1452.37 1082.5 1452.37 M1082.5 1448.67 Q1088.31 1448.67 1091.37 1453.27 Q1094.45 1457.86 1094.45 1466.61 Q1094.45 1475.33 1091.37 1479.94 Q1088.31 1484.52 1082.5 1484.52 Q1076.69 1484.52 1073.61 1479.94 Q1070.56 1475.33 1070.56 1466.61 Q1070.56 1457.86 1073.61 1453.27 Q1076.69 1448.67 1082.5 1448.67 Z" fill="#000000" fill-rule="evenodd" fill-opacity="1" /><path clip-path="url(#clip750)" d="M1112.66 1452.37 Q1109.05 1452.37 1107.22 1455.94 Q1105.42 1459.48 1105.42 1466.61 Q1105.42 1473.71 1107.22 1477.28 Q1109.05 1480.82 1112.66 1480.82 Q1116.3 1480.82 1118.1 1477.28 Q1119.93 1473.71 1119.93 1466.61 Q1119.93 1459.48 1118.1 1455.94 Q1116.3 1452.37 1112.66 1452.37 M1112.66 1448.67 Q1118.47 1448.67 1121.53 1453.27 Q1124.61 1457.86 1124.61 1466.61 Q1124.61 1475.33 1121.53 1479.94 Q1118.47 1484.52 1112.66 1484.52 Q1106.85 1484.52 1103.78 1479.94 Q1100.72 1475.33 1100.72 1466.61 Q1100.72 1457.86 1103.78 1453.27 Q1106.85 1448.67 1112.66 1448.67 Z" fill="#000000" fill-rule="evenodd" fill-opacity="1" /><path clip-path="url(#clip750)" d="M1459.68 1465.22 Q1463.03 1465.94 1464.91 1468.2 Q1466.81 1470.47 1466.81 1473.81 Q1466.81 1478.92 1463.29 1481.72 Q1459.77 1484.52 1453.29 1484.52 Q1451.11 1484.52 1448.8 1484.08 Q1446.5 1483.67 1444.05 1482.81 L1444.05 1478.3 Q1446 1479.43 1448.31 1480.01 Q1450.62 1480.59 1453.15 1480.59 Q1457.55 1480.59 1459.84 1478.85 Q1462.15 1477.12 1462.15 1473.81 Q1462.15 1470.75 1460 1469.04 Q1457.87 1467.3 1454.05 1467.3 L1450.02 1467.3 L1450.02 1463.46 L1454.24 1463.46 Q1457.69 1463.46 1459.51 1462.09 Q1461.34 1460.7 1461.34 1458.11 Q1461.34 1455.45 1459.44 1454.04 Q1457.57 1452.6 1454.05 1452.6 Q1452.13 1452.6 1449.93 1453.02 Q1447.73 1453.44 1445.09 1454.31 L1445.09 1450.15 Q1447.75 1449.41 1450.07 1449.04 Q1452.41 1448.67 1454.47 1448.67 Q1459.79 1448.67 1462.89 1451.1 Q1466 1453.5 1466 1457.63 Q1466 1460.5 1464.35 1462.49 Q1462.71 1464.45 1459.68 1465.22 Z" fill="#000000" fill-rule="evenodd" fill-opacity="1" /><path clip-path="url(#clip750)" d="M1485.67 1452.37 Q1482.06 1452.37 1480.23 1455.94 Q1478.43 1459.48 1478.43 1466.61 Q1478.43 1473.71 1480.23 1477.28 Q1482.06 1480.82 1485.67 1480.82 Q1489.31 1480.82 1491.11 1477.28 Q1492.94 1473.71 1492.94 1466.61 Q1492.94 1459.48 1491.11 1455.94 Q1489.31 1452.37 1485.67 1452.37 M1485.67 1448.67 Q1491.48 1448.67 1494.54 1453.27 Q1497.62 1457.86 1497.62 1466.61 Q1497.62 1475.33 1494.54 1479.94 Q1491.48 1484.52 1485.67 1484.52 Q1479.86 1484.52 1476.78 1479.94 Q1473.73 1475.33 1473.73 1466.61 Q1473.73 1457.86 1476.78 1453.27 Q1479.86 1448.67 1485.67 1448.67 Z" fill="#000000" fill-rule="evenodd" fill-opacity="1" /><path clip-path="url(#clip750)" d="M1515.83 1452.37 Q1512.22 1452.37 1510.39 1455.94 Q1508.59 1459.48 1508.59 1466.61 Q1508.59 1473.71 1510.39 1477.28 Q1512.22 1480.82 1515.83 1480.82 Q1519.47 1480.82 1521.27 1477.28 Q1523.1 1473.71 1523.1 1466.61 Q1523.1 1459.48 1521.27 1455.94 Q1519.47 1452.37 1515.83 1452.37 M1515.83 1448.67 Q1521.64 1448.67 1524.7 1453.27 Q1527.78 1457.86 1527.78 1466.61 Q1527.78 1475.33 1524.7 1479.94 Q1521.64 1484.52 1515.83 1484.52 Q1510.02 1484.52 1506.94 1479.94 Q1503.89 1475.33 1503.89 1466.61 Q1503.89 1457.86 1506.94 1453.27 Q1510.02 1448.67 1515.83 1448.67 Z" fill="#000000" fill-rule="evenodd" fill-opacity="1" /><path clip-path="url(#clip750)" d="M1862.24 1453.37 L1850.44 1471.81 L1862.24 1471.81 L1862.24 1453.37 M1861.02 1449.29 L1866.9 1449.29 L1866.9 1471.81 L1871.83 1471.81 L1871.83 1475.7 L1866.9 1475.7 L1866.9 1483.85 L1862.24 1483.85 L1862.24 1475.7 L1846.64 1475.7 L1846.64 1471.19 L1861.02 1449.29 Z" fill="#000000" fill-rule="evenodd" fill-opacity="1" /><path clip-path="url(#clip750)" d="M1889.56 1452.37 Q1885.95 1452.37 1884.12 1455.94 Q1882.31 1459.48 1882.31 1466.61 Q1882.31 1473.71 1884.12 1477.28 Q1885.95 1480.82 1889.56 1480.82 Q1893.19 1480.82 1895 1477.28 Q1896.83 1473.71 1896.83 1466.61 Q1896.83 1459.48 1895 1455.94 Q1893.19 1452.37 1889.56 1452.37 M1889.56 1448.67 Q1895.37 1448.67 1898.42 1453.27 Q1901.5 1457.86 1901.5 1466.61 Q1901.5 1475.33 1898.42 1479.94 Q1895.37 1484.52 1889.56 1484.52 Q1883.75 1484.52 1880.67 1479.94 Q1877.61 1475.33 1877.61 1466.61 Q1877.61 1457.86 1880.67 1453.27 Q1883.75 1448.67 1889.56 1448.67 Z" fill="#000000" fill-rule="evenodd" fill-opacity="1" /><path clip-path="url(#clip750)" d="M1919.72 1452.37 Q1916.11 1452.37 1914.28 1455.94 Q1912.47 1459.48 1912.47 1466.61 Q1912.47 1473.71 1914.28 1477.28 Q1916.11 1480.82 1919.72 1480.82 Q1923.35 1480.82 1925.16 1477.28 Q1926.99 1473.71 1926.99 1466.61 Q1926.99 1459.48 1925.16 1455.94 Q1923.35 1452.37 1919.72 1452.37 M1919.72 1448.67 Q1925.53 1448.67 1928.59 1453.27 Q1931.66 1457.86 1931.66 1466.61 Q1931.66 1475.33 1928.59 1479.94 Q1925.53 1484.52 1919.72 1484.52 Q1913.91 1484.52 1910.83 1479.94 Q1907.78 1475.33 1907.78 1466.61 Q1907.78 1457.86 1910.83 1453.27 Q1913.91 1448.67 1919.72 1448.67 Z" fill="#000000" fill-rule="evenodd" fill-opacity="1" /><path clip-path="url(#clip750)" d="M2252.01 1449.29 L2270.37 1449.29 L2270.37 1453.23 L2256.29 1453.23 L2256.29 1461.7 Q2257.31 1461.35 2258.33 1461.19 Q2259.35 1461 2260.37 1461 Q2266.15 1461 2269.53 1464.18 Q2272.91 1467.35 2272.91 1472.76 Q2272.91 1478.34 2269.44 1481.44 Q2265.97 1484.52 2259.65 1484.52 Q2257.47 1484.52 2255.2 1484.15 Q2252.96 1483.78 2250.55 1483.04 L2250.55 1478.34 Q2252.63 1479.48 2254.86 1480.03 Q2257.08 1480.59 2259.56 1480.59 Q2263.56 1480.59 2265.9 1478.48 Q2268.24 1476.38 2268.24 1472.76 Q2268.24 1469.15 2265.9 1467.05 Q2263.56 1464.94 2259.56 1464.94 Q2257.68 1464.94 2255.81 1465.36 Q2253.95 1465.77 2252.01 1466.65 L2252.01 1449.29 Z" fill="#000000" fill-rule="evenodd" fill-opacity="1" /><path clip-path="url(#clip750)" d="M2292.12 1452.37 Q2288.51 1452.37 2286.69 1455.94 Q2284.88 1459.48 2284.88 1466.61 Q2284.88 1473.71 2286.69 1477.28 Q2288.51 1480.82 2292.12 1480.82 Q2295.76 1480.82 2297.56 1477.28 Q2299.39 1473.71 2299.39 1466.61 Q2299.39 1459.48 2297.56 1455.94 Q2295.76 1452.37 2292.12 1452.37 M2292.12 1448.67 Q2297.94 1448.67 2300.99 1453.27 Q2304.07 1457.86 2304.07 1466.61 Q2304.07 1475.33 2300.99 1479.94 Q2297.94 1484.52 2292.12 1484.52 Q2286.31 1484.52 2283.24 1479.94 Q2280.18 1475.33 2280.18 1466.61 Q2280.18 1457.86 2283.24 1453.27 Q2286.31 1448.67 2292.12 1448.67 Z" fill="#000000" fill-rule="evenodd" fill-opacity="1" /><path clip-path="url(#clip750)" d="M2322.29 1452.37 Q2318.68 1452.37 2316.85 1455.94 Q2315.04 1459.48 2315.04 1466.61 Q2315.04 1473.71 2316.85 1477.28 Q2318.68 1480.82 2322.29 1480.82 Q2325.92 1480.82 2327.73 1477.28 Q2329.56 1473.71 2329.56 1466.61 Q2329.56 1459.48 2327.73 1455.94 Q2325.92 1452.37 2322.29 1452.37 M2322.29 1448.67 Q2328.1 1448.67 2331.15 1453.27 Q2334.23 1457.86 2334.23 1466.61 Q2334.23 1475.33 2331.15 1479.94 Q2328.1 1484.52 2322.29 1484.52 Q2316.48 1484.52 2313.4 1479.94 Q2310.34 1475.33 2310.34 1466.61 Q2310.34 1457.86 2313.4 1453.27 Q2316.48 1448.67 2322.29 1448.67 Z" fill="#000000" fill-rule="evenodd" fill-opacity="1" /><path clip-path="url(#clip750)" d="M1061 1520.52 L1091.04 1520.52 L1091.04 1525.93 L1067.43 1525.93 L1067.43 1540 L1090.06 1540 L1090.06 1545.41 L1067.43 1545.41 L1067.43 1562.63 L1091.62 1562.63 L1091.62 1568.04 L1061 1568.04 L1061 1520.52 Z" fill="#000000" fill-rule="evenodd" fill-opacity="1" /><path clip-path="url(#clip750)" d="M1107.59 1562.7 L1107.59 1581.6 L1101.71 1581.6 L1101.71 1532.4 L1107.59 1532.4 L1107.59 1537.81 Q1109.44 1534.62 1112.24 1533.1 Q1115.07 1531.54 1118.99 1531.54 Q1125.48 1531.54 1129.52 1536.69 Q1133.6 1541.85 1133.6 1550.25 Q1133.6 1558.65 1129.52 1563.81 Q1125.48 1568.97 1118.99 1568.97 Q1115.07 1568.97 1112.24 1567.44 Q1109.44 1565.88 1107.59 1562.7 M1127.52 1550.25 Q1127.52 1543.79 1124.84 1540.13 Q1122.2 1536.44 1117.56 1536.44 Q1112.91 1536.44 1110.24 1540.13 Q1107.59 1543.79 1107.59 1550.25 Q1107.59 1556.71 1110.24 1560.4 Q1112.91 1564.07 1117.56 1564.07 Q1122.2 1564.07 1124.84 1560.4 Q1127.52 1556.71 1127.52 1550.25 Z" fill="#000000" fill-rule="evenodd" fill-opacity="1" /><path clip-path="url(#clip750)" d="M1143.31 1532.4 L1149.16 1532.4 L1149.16 1568.04 L1143.31 1568.04 L1143.31 1532.4 M1143.31 1518.52 L1149.16 1518.52 L1149.16 1525.93 L1143.31 1525.93 L1143.31 1518.52 Z" fill="#000000" fill-rule="evenodd" fill-opacity="1" /><path clip-path="url(#clip750)" d="M1184.14 1533.45 L1184.14 1538.98 Q1181.66 1537.71 1178.99 1537.07 Q1176.31 1536.44 1173.45 1536.44 Q1169.09 1536.44 1166.89 1537.77 Q1164.73 1539.11 1164.73 1541.79 Q1164.73 1543.82 1166.29 1545 Q1167.85 1546.15 1172.56 1547.2 L1174.56 1547.64 Q1180.8 1548.98 1183.41 1551.43 Q1186.05 1553.85 1186.05 1558.21 Q1186.05 1563.17 1182.1 1566.07 Q1178.19 1568.97 1171.31 1568.97 Q1168.45 1568.97 1165.33 1568.39 Q1162.24 1567.85 1158.81 1566.74 L1158.81 1560.69 Q1162.05 1562.38 1165.2 1563.24 Q1168.35 1564.07 1171.44 1564.07 Q1175.58 1564.07 1177.81 1562.66 Q1180.04 1561.23 1180.04 1558.65 Q1180.04 1556.27 1178.41 1554.99 Q1176.82 1553.72 1171.38 1552.54 L1169.34 1552.07 Q1163.9 1550.92 1161.48 1548.56 Q1159.06 1546.18 1159.06 1542.04 Q1159.06 1537.01 1162.63 1534.27 Q1166.19 1531.54 1172.75 1531.54 Q1175.99 1531.54 1178.86 1532.01 Q1181.72 1532.49 1184.14 1533.45 Z" fill="#000000" fill-rule="evenodd" fill-opacity="1" /><path clip-path="url(#clip750)" d="M1209.19 1536.5 Q1204.48 1536.5 1201.74 1540.19 Q1199.01 1543.85 1199.01 1550.25 Q1199.01 1556.65 1201.71 1560.34 Q1204.45 1564 1209.19 1564 Q1213.87 1564 1216.61 1560.31 Q1219.34 1556.62 1219.34 1550.25 Q1219.34 1543.92 1216.61 1540.23 Q1213.87 1536.5 1209.19 1536.5 M1209.19 1531.54 Q1216.83 1531.54 1221.19 1536.5 Q1225.55 1541.47 1225.55 1550.25 Q1225.55 1559 1221.19 1564 Q1216.83 1568.97 1209.19 1568.97 Q1201.52 1568.97 1197.16 1564 Q1192.83 1559 1192.83 1550.25 Q1192.83 1541.47 1197.16 1536.5 Q1201.52 1531.54 1209.19 1531.54 Z" fill="#000000" fill-rule="evenodd" fill-opacity="1" /><path clip-path="url(#clip750)" d="M1258.72 1537.81 L1258.72 1518.52 L1264.57 1518.52 L1264.57 1568.04 L1258.72 1568.04 L1258.72 1562.7 Q1256.87 1565.88 1254.04 1567.44 Q1251.24 1568.97 1247.29 1568.97 Q1240.83 1568.97 1236.75 1563.81 Q1232.71 1558.65 1232.71 1550.25 Q1232.71 1541.85 1236.75 1536.69 Q1240.83 1531.54 1247.29 1531.54 Q1251.24 1531.54 1254.04 1533.1 Q1256.87 1534.62 1258.72 1537.81 M1238.76 1550.25 Q1238.76 1556.71 1241.4 1560.4 Q1244.07 1564.07 1248.72 1564.07 Q1253.37 1564.07 1256.04 1560.4 Q1258.72 1556.71 1258.72 1550.25 Q1258.72 1543.79 1256.04 1540.13 Q1253.37 1536.44 1248.72 1536.44 Q1244.07 1536.44 1241.4 1540.13 Q1238.76 1543.79 1238.76 1550.25 Z" fill="#000000" fill-rule="evenodd" fill-opacity="1" /><path clip-path="url(#clip750)" d="M1307.13 1548.76 L1307.13 1551.62 L1280.2 1551.62 Q1280.58 1557.67 1283.83 1560.85 Q1287.11 1564 1292.93 1564 Q1296.31 1564 1299.46 1563.17 Q1302.64 1562.35 1305.76 1560.69 L1305.76 1566.23 Q1302.61 1567.57 1299.3 1568.27 Q1295.99 1568.97 1292.58 1568.97 Q1284.05 1568.97 1279.05 1564 Q1274.09 1559.04 1274.09 1550.57 Q1274.09 1541.82 1278.8 1536.69 Q1283.54 1531.54 1291.56 1531.54 Q1298.76 1531.54 1302.93 1536.18 Q1307.13 1540.8 1307.13 1548.76 M1301.27 1547.04 Q1301.21 1542.23 1298.57 1539.37 Q1295.96 1536.5 1291.63 1536.5 Q1286.72 1536.5 1283.76 1539.27 Q1280.84 1542.04 1280.39 1547.07 L1301.27 1547.04 Z" fill="#000000" fill-rule="evenodd" fill-opacity="1" /><path clip-path="url(#clip750)" d="M1339.46 1533.45 L1339.46 1538.98 Q1336.98 1537.71 1334.31 1537.07 Q1331.63 1536.44 1328.77 1536.44 Q1324.41 1536.44 1322.21 1537.77 Q1320.05 1539.11 1320.05 1541.79 Q1320.05 1543.82 1321.61 1545 Q1323.17 1546.15 1327.88 1547.2 L1329.88 1547.64 Q1336.12 1548.98 1338.73 1551.43 Q1341.37 1553.85 1341.37 1558.21 Q1341.37 1563.17 1337.43 1566.07 Q1333.51 1568.97 1326.64 1568.97 Q1323.77 1568.97 1320.65 1568.39 Q1317.57 1567.85 1314.13 1566.74 L1314.13 1560.69 Q1317.38 1562.38 1320.53 1563.24 Q1323.68 1564.07 1326.77 1564.07 Q1330.9 1564.07 1333.13 1562.66 Q1335.36 1561.23 1335.36 1558.65 Q1335.36 1556.27 1333.74 1554.99 Q1332.14 1553.72 1326.7 1552.54 L1324.66 1552.07 Q1319.22 1550.92 1316.8 1548.56 Q1314.38 1546.18 1314.38 1542.04 Q1314.38 1537.01 1317.95 1534.27 Q1321.51 1531.54 1328.07 1531.54 Q1331.32 1531.54 1334.18 1532.01 Q1337.05 1532.49 1339.46 1533.45 Z" fill="#000000" fill-rule="evenodd" fill-opacity="1" /><path clip-path="url(#clip750)" d="M1381.83 1520.52 L1387.24 1520.52 L1370.69 1574.09 L1365.28 1574.09 L1381.83 1520.52 Z" fill="#000000" fill-rule="evenodd" fill-opacity="1" /><path clip-path="url(#clip750)" d="M1416.04 1562.63 L1426.55 1562.63 L1426.55 1526.38 L1415.12 1528.67 L1415.12 1522.82 L1426.48 1520.52 L1432.91 1520.52 L1432.91 1562.63 L1443.42 1562.63 L1443.42 1568.04 L1416.04 1568.04 L1416.04 1562.63 Z" fill="#000000" fill-rule="evenodd" fill-opacity="1" /><path clip-path="url(#clip750)" d="M1470.15 1524.76 Q1465.19 1524.76 1462.67 1529.66 Q1460.19 1534.53 1460.19 1544.33 Q1460.19 1554.1 1462.67 1559 Q1465.19 1563.87 1470.15 1563.87 Q1475.15 1563.87 1477.63 1559 Q1480.15 1554.1 1480.15 1544.33 Q1480.15 1534.53 1477.63 1529.66 Q1475.15 1524.76 1470.15 1524.76 M1470.15 1519.66 Q1478.14 1519.66 1482.34 1526 Q1486.58 1532.3 1486.58 1544.33 Q1486.58 1556.33 1482.34 1562.66 Q1478.14 1568.97 1470.15 1568.97 Q1462.16 1568.97 1457.93 1562.66 Q1453.73 1556.33 1453.73 1544.33 Q1453.73 1532.3 1457.93 1526 Q1462.16 1519.66 1470.15 1519.66 Z" fill="#000000" fill-rule="evenodd" fill-opacity="1" /><polyline clip-path="url(#clip752)" style="stroke:#000000; stroke-linecap:butt; stroke-linejoin:round; stroke-width:2; stroke-opacity:0.1; fill:none" points="
  219.866,1321.88 2352.76,1321.88 
  "/>
<polyline clip-path="url(#clip752)" style="stroke:#000000; stroke-linecap:butt; stroke-linejoin:round; stroke-width:2; stroke-opacity:0.1; fill:none" points="
  219.866,1031.47 2352.76,1031.47 
  "/>
<polyline clip-path="url(#clip752)" style="stroke:#000000; stroke-linecap:butt; stroke-linejoin:round; stroke-width:2; stroke-opacity:0.1; fill:none" points="
  219.866,741.067 2352.76,741.067 
  "/>
<polyline clip-path="url(#clip752)" style="stroke:#000000; stroke-linecap:butt; stroke-linejoin:round; stroke-width:2; stroke-opacity:0.1; fill:none" points="
  219.866,450.661 2352.76,450.661 
  "/>
<polyline clip-path="url(#clip752)" style="stroke:#000000; stroke-linecap:butt; stroke-linejoin:round; stroke-width:2; stroke-opacity:0.1; fill:none" points="
  219.866,160.256 2352.76,160.256 
  "/>
<polyline clip-path="url(#clip750)" style="stroke:#000000; stroke-linecap:butt; stroke-linejoin:round; stroke-width:4; stroke-opacity:1; fill:none" points="
  219.866,1423.18 219.866,123.472 
  "/>
<polyline clip-path="url(#clip750)" style="stroke:#000000; stroke-linecap:butt; stroke-linejoin:round; stroke-width:4; stroke-opacity:1; fill:none" points="
  2352.76,1423.18 2352.76,123.472 
  "/>
<polyline clip-path="url(#clip750)" style="stroke:#000000; stroke-linecap:butt; stroke-linejoin:round; stroke-width:4; stroke-opacity:1; fill:none" points="
  219.866,1321.88 245.461,1321.88 
  "/>
<polyline clip-path="url(#clip750)" style="stroke:#000000; stroke-linecap:butt; stroke-linejoin:round; stroke-width:4; stroke-opacity:1; fill:none" points="
  219.866,1031.47 245.461,1031.47 
  "/>
<polyline clip-path="url(#clip750)" style="stroke:#000000; stroke-linecap:butt; stroke-linejoin:round; stroke-width:4; stroke-opacity:1; fill:none" points="
  219.866,741.067 245.461,741.067 
  "/>
<polyline clip-path="url(#clip750)" style="stroke:#000000; stroke-linecap:butt; stroke-linejoin:round; stroke-width:4; stroke-opacity:1; fill:none" points="
  219.866,450.661 245.461,450.661 
  "/>
<polyline clip-path="url(#clip750)" style="stroke:#000000; stroke-linecap:butt; stroke-linejoin:round; stroke-width:4; stroke-opacity:1; fill:none" points="
  219.866,160.256 245.461,160.256 
  "/>
<path clip-path="url(#clip750)" d="M127.917 1307.68 Q124.306 1307.68 122.478 1311.24 Q120.672 1314.78 120.672 1321.91 Q120.672 1329.02 122.478 1332.58 Q124.306 1336.12 127.917 1336.12 Q131.552 1336.12 133.357 1332.58 Q135.186 1329.02 135.186 1321.91 Q135.186 1314.78 133.357 1311.24 Q131.552 1307.68 127.917 1307.68 M127.917 1303.97 Q133.728 1303.97 136.783 1308.58 Q139.862 1313.16 139.862 1321.91 Q139.862 1330.64 136.783 1335.24 Q133.728 1339.83 127.917 1339.83 Q122.107 1339.83 119.029 1335.24 Q115.973 1330.64 115.973 1321.91 Q115.973 1313.16 119.029 1308.58 Q122.107 1303.97 127.917 1303.97 Z" fill="#000000" fill-rule="evenodd" fill-opacity="1" /><path clip-path="url(#clip750)" d="M148.079 1333.28 L152.964 1333.28 L152.964 1339.16 L148.079 1339.16 L148.079 1333.28 Z" fill="#000000" fill-rule="evenodd" fill-opacity="1" /><path clip-path="url(#clip750)" d="M163.959 1335.22 L171.598 1335.22 L171.598 1308.86 L163.288 1310.52 L163.288 1306.26 L171.552 1304.6 L176.227 1304.6 L176.227 1335.22 L183.866 1335.22 L183.866 1339.16 L163.959 1339.16 L163.959 1335.22 Z" fill="#000000" fill-rule="evenodd" fill-opacity="1" /><path clip-path="url(#clip750)" d="M128.288 1017.27 Q124.677 1017.27 122.848 1020.84 Q121.043 1024.38 121.043 1031.51 Q121.043 1038.61 122.848 1042.18 Q124.677 1045.72 128.288 1045.72 Q131.922 1045.72 133.728 1042.18 Q135.556 1038.61 135.556 1031.51 Q135.556 1024.38 133.728 1020.84 Q131.922 1017.27 128.288 1017.27 M128.288 1013.57 Q134.098 1013.57 137.154 1018.17 Q140.232 1022.76 140.232 1031.51 Q140.232 1040.23 137.154 1044.84 Q134.098 1049.42 128.288 1049.42 Q122.478 1049.42 119.399 1044.84 Q116.343 1040.23 116.343 1031.51 Q116.343 1022.76 119.399 1018.17 Q122.478 1013.57 128.288 1013.57 Z" fill="#000000" fill-rule="evenodd" fill-opacity="1" /><path clip-path="url(#clip750)" d="M148.45 1042.87 L153.334 1042.87 L153.334 1048.75 L148.45 1048.75 L148.45 1042.87 Z" fill="#000000" fill-rule="evenodd" fill-opacity="1" /><path clip-path="url(#clip750)" d="M167.547 1044.82 L183.866 1044.82 L183.866 1048.75 L161.922 1048.75 L161.922 1044.82 Q164.584 1042.06 169.167 1037.43 Q173.774 1032.78 174.954 1031.44 Q177.2 1028.91 178.079 1027.18 Q178.982 1025.42 178.982 1023.73 Q178.982 1020.97 177.038 1019.24 Q175.116 1017.5 172.014 1017.5 Q169.815 1017.5 167.362 1018.27 Q164.931 1019.03 162.153 1020.58 L162.153 1015.86 Q164.977 1014.72 167.431 1014.15 Q169.885 1013.57 171.922 1013.57 Q177.292 1013.57 180.487 1016.25 Q183.681 1018.94 183.681 1023.43 Q183.681 1025.56 182.871 1027.48 Q182.084 1029.38 179.977 1031.97 Q179.399 1032.64 176.297 1035.86 Q173.195 1039.05 167.547 1044.82 Z" fill="#000000" fill-rule="evenodd" fill-opacity="1" /><path clip-path="url(#clip750)" d="M127.339 726.865 Q123.728 726.865 121.899 730.43 Q120.093 733.972 120.093 741.101 Q120.093 748.208 121.899 751.772 Q123.728 755.314 127.339 755.314 Q130.973 755.314 132.779 751.772 Q134.607 748.208 134.607 741.101 Q134.607 733.972 132.779 730.43 Q130.973 726.865 127.339 726.865 M127.339 723.162 Q133.149 723.162 136.204 727.768 Q139.283 732.351 139.283 741.101 Q139.283 749.828 136.204 754.435 Q133.149 759.018 127.339 759.018 Q121.529 759.018 118.45 754.435 Q115.394 749.828 115.394 741.101 Q115.394 732.351 118.45 727.768 Q121.529 723.162 127.339 723.162 Z" fill="#000000" fill-rule="evenodd" fill-opacity="1" /><path clip-path="url(#clip750)" d="M147.501 752.467 L152.385 752.467 L152.385 758.347 L147.501 758.347 L147.501 752.467 Z" fill="#000000" fill-rule="evenodd" fill-opacity="1" /><path clip-path="url(#clip750)" d="M176.737 739.712 Q180.093 740.43 181.968 742.698 Q183.866 744.967 183.866 748.3 Q183.866 753.416 180.348 756.217 Q176.829 759.018 170.348 759.018 Q168.172 759.018 165.857 758.578 Q163.565 758.161 161.112 757.305 L161.112 752.791 Q163.056 753.925 165.371 754.504 Q167.686 755.083 170.209 755.083 Q174.607 755.083 176.899 753.347 Q179.214 751.61 179.214 748.3 Q179.214 745.245 177.061 743.532 Q174.931 741.796 171.112 741.796 L167.084 741.796 L167.084 737.953 L171.297 737.953 Q174.746 737.953 176.575 736.587 Q178.403 735.199 178.403 732.606 Q178.403 729.944 176.505 728.532 Q174.63 727.097 171.112 727.097 Q169.19 727.097 166.991 727.513 Q164.792 727.93 162.153 728.81 L162.153 724.643 Q164.815 723.902 167.13 723.532 Q169.468 723.162 171.528 723.162 Q176.852 723.162 179.954 725.592 Q183.056 727.999 183.056 732.12 Q183.056 734.99 181.413 736.981 Q179.769 738.948 176.737 739.712 Z" fill="#000000" fill-rule="evenodd" fill-opacity="1" /><path clip-path="url(#clip750)" d="M126.205 436.46 Q122.593 436.46 120.765 440.025 Q118.959 443.567 118.959 450.696 Q118.959 457.803 120.765 461.367 Q122.593 464.909 126.205 464.909 Q129.839 464.909 131.644 461.367 Q133.473 457.803 133.473 450.696 Q133.473 443.567 131.644 440.025 Q129.839 436.46 126.205 436.46 M126.205 432.756 Q132.015 432.756 135.07 437.363 Q138.149 441.946 138.149 450.696 Q138.149 459.423 135.07 464.029 Q132.015 468.613 126.205 468.613 Q120.394 468.613 117.316 464.029 Q114.26 459.423 114.26 450.696 Q114.26 441.946 117.316 437.363 Q120.394 432.756 126.205 432.756 Z" fill="#000000" fill-rule="evenodd" fill-opacity="1" /><path clip-path="url(#clip750)" d="M146.366 462.062 L151.251 462.062 L151.251 467.941 L146.366 467.941 L146.366 462.062 Z" fill="#000000" fill-rule="evenodd" fill-opacity="1" /><path clip-path="url(#clip750)" d="M174.283 437.455 L162.477 455.904 L174.283 455.904 L174.283 437.455 M173.056 433.381 L178.936 433.381 L178.936 455.904 L183.866 455.904 L183.866 459.793 L178.936 459.793 L178.936 467.941 L174.283 467.941 L174.283 459.793 L158.681 459.793 L158.681 455.279 L173.056 433.381 Z" fill="#000000" fill-rule="evenodd" fill-opacity="1" /><path clip-path="url(#clip750)" d="M127.686 146.055 Q124.075 146.055 122.246 149.62 Q120.441 153.161 120.441 160.291 Q120.441 167.397 122.246 170.962 Q124.075 174.504 127.686 174.504 Q131.32 174.504 133.126 170.962 Q134.954 167.397 134.954 160.291 Q134.954 153.161 133.126 149.62 Q131.32 146.055 127.686 146.055 M127.686 142.351 Q133.496 142.351 136.552 146.958 Q139.63 151.541 139.63 160.291 Q139.63 169.018 136.552 173.624 Q133.496 178.208 127.686 178.208 Q121.876 178.208 118.797 173.624 Q115.742 169.018 115.742 160.291 Q115.742 151.541 118.797 146.958 Q121.876 142.351 127.686 142.351 Z" fill="#000000" fill-rule="evenodd" fill-opacity="1" /><path clip-path="url(#clip750)" d="M147.848 171.657 L152.732 171.657 L152.732 177.536 L147.848 177.536 L147.848 171.657 Z" fill="#000000" fill-rule="evenodd" fill-opacity="1" /><path clip-path="url(#clip750)" d="M162.964 142.976 L181.32 142.976 L181.32 146.911 L167.246 146.911 L167.246 155.384 Q168.264 155.036 169.283 154.874 Q170.302 154.689 171.32 154.689 Q177.107 154.689 180.487 157.86 Q183.866 161.032 183.866 166.448 Q183.866 172.027 180.394 175.129 Q176.922 178.208 170.602 178.208 Q168.427 178.208 166.158 177.837 Q163.913 177.467 161.505 176.726 L161.505 172.027 Q163.589 173.161 165.811 173.717 Q168.033 174.272 170.51 174.272 Q174.514 174.272 176.852 172.166 Q179.19 170.059 179.19 166.448 Q179.19 162.837 176.852 160.731 Q174.514 158.624 170.51 158.624 Q168.635 158.624 166.76 159.041 Q164.908 159.458 162.964 160.337 L162.964 142.976 Z" fill="#000000" fill-rule="evenodd" fill-opacity="1" /><path clip-path="url(#clip750)" d="M22.818 1005.98 L46.4666 1014.7 L46.4666 997.224 L22.818 1005.98 M16.4842 1009.61 L16.4842 1002.32 L64.0042 984.206 L64.0042 990.89 L51.8138 995.219 L51.8138 1016.64 L64.0042 1020.97 L64.0042 1027.75 L16.4842 1009.61 Z" fill="#000000" fill-rule="evenodd" fill-opacity="1" /><path clip-path="url(#clip750)" d="M28.3562 985.543 L28.3562 979.336 L58.275 968.196 L28.3562 957.056 L28.3562 950.85 L64.0042 964.218 L64.0042 972.175 L28.3562 985.543 Z" fill="#000000" fill-rule="evenodd" fill-opacity="1" /><path clip-path="url(#clip750)" d="M44.7161 912.273 L47.5806 912.273 L47.5806 939.2 Q53.6281 938.818 56.8109 935.572 Q59.9619 932.294 59.9619 926.469 Q59.9619 923.095 59.1344 919.944 Q58.3069 916.761 56.6518 913.642 L62.1899 913.642 Q63.5267 916.793 64.227 920.103 Q64.9272 923.413 64.9272 926.819 Q64.9272 935.349 59.9619 940.346 Q54.9967 945.311 46.5303 945.311 Q37.7774 945.311 32.6531 940.601 Q27.4968 935.858 27.4968 927.838 Q27.4968 920.644 32.1438 916.475 Q36.7589 912.273 44.7161 912.273 M42.9973 918.13 Q38.1912 918.194 35.3266 920.835 Q32.4621 923.445 32.4621 927.774 Q32.4621 932.676 35.2312 935.636 Q38.0002 938.564 43.0292 939.009 L42.9973 918.13 Z" fill="#000000" fill-rule="evenodd" fill-opacity="1" /><path clip-path="url(#clip750)" d="M33.8307 882.005 Q33.2578 882.991 33.0032 884.169 Q32.7167 885.315 32.7167 886.715 Q32.7167 891.68 35.9632 894.354 Q39.1779 896.996 45.2253 896.996 L64.0042 896.996 L64.0042 902.884 L28.3562 902.884 L28.3562 896.996 L33.8944 896.996 Q30.6479 895.15 29.0883 892.19 Q27.4968 889.23 27.4968 884.996 Q27.4968 884.392 27.5923 883.66 Q27.656 882.928 27.8151 882.036 L33.8307 882.005 Z" fill="#000000" fill-rule="evenodd" fill-opacity="1" /><path clip-path="url(#clip750)" d="M46.0847 859.661 Q46.0847 866.759 47.7079 869.496 Q49.3312 872.233 53.2461 872.233 Q56.3653 872.233 58.2114 870.196 Q60.0256 868.127 60.0256 864.594 Q60.0256 859.725 56.5881 856.796 Q53.1188 853.836 47.3897 853.836 L46.0847 853.836 L46.0847 859.661 M43.6657 847.98 L64.0042 847.98 L64.0042 853.836 L58.5933 853.836 Q61.8398 855.841 63.3994 858.833 Q64.9272 861.825 64.9272 866.154 Q64.9272 871.628 61.8716 874.875 Q58.7843 878.09 53.6281 878.09 Q47.6125 878.09 44.5569 874.079 Q41.5014 870.037 41.5014 862.048 L41.5014 853.836 L40.9285 853.836 Q36.8862 853.836 34.6901 856.51 Q32.4621 859.152 32.4621 863.958 Q32.4621 867.013 33.1941 869.91 Q33.9262 872.806 35.3903 875.48 L29.9795 875.48 Q28.7381 872.265 28.1334 869.241 Q27.4968 866.218 27.4968 863.353 Q27.4968 855.619 31.5072 851.799 Q35.5176 847.98 43.6657 847.98 Z" fill="#000000" fill-rule="evenodd" fill-opacity="1" /><path clip-path="url(#clip750)" d="M45.7664 812.459 Q39.4007 812.459 35.8996 815.101 Q32.3984 817.711 32.3984 822.453 Q32.3984 827.164 35.8996 829.806 Q39.4007 832.416 45.7664 832.416 Q52.1003 832.416 55.6014 829.806 Q59.1026 827.164 59.1026 822.453 Q59.1026 817.711 55.6014 815.101 Q52.1003 812.459 45.7664 812.459 M59.58 806.603 Q68.683 806.603 73.1071 810.645 Q77.5631 814.687 77.5631 823.026 Q77.5631 826.114 77.0857 828.851 Q76.6401 831.588 75.6852 834.166 L69.9879 834.166 Q71.3884 831.588 72.0568 829.074 Q72.7252 826.559 72.7252 823.949 Q72.7252 818.188 69.7015 815.324 Q66.7096 812.459 60.6303 812.459 L57.7339 812.459 Q60.885 814.273 62.4446 817.106 Q64.0042 819.939 64.0042 823.886 Q64.0042 830.442 59.0071 834.453 Q54.01 838.463 45.7664 838.463 Q37.491 838.463 32.4939 834.453 Q27.4968 830.442 27.4968 823.886 Q27.4968 819.939 29.0564 817.106 Q30.616 814.273 33.7671 812.459 L28.3562 812.459 L28.3562 806.603 L59.58 806.603 Z" fill="#000000" fill-rule="evenodd" fill-opacity="1" /><path clip-path="url(#clip750)" d="M44.7161 764.048 L47.5806 764.048 L47.5806 790.975 Q53.6281 790.593 56.8109 787.346 Q59.9619 784.068 59.9619 778.243 Q59.9619 774.87 59.1344 771.719 Q58.3069 768.536 56.6518 765.417 L62.1899 765.417 Q63.5267 768.568 64.227 771.878 Q64.9272 775.188 64.9272 778.594 Q64.9272 787.124 59.9619 792.121 Q54.9967 797.086 46.5303 797.086 Q37.7774 797.086 32.6531 792.375 Q27.4968 787.633 27.4968 779.612 Q27.4968 772.419 32.1438 768.249 Q36.7589 764.048 44.7161 764.048 M42.9973 769.904 Q38.1912 769.968 35.3266 772.61 Q32.4621 775.22 32.4621 779.548 Q32.4621 784.45 35.2312 787.41 Q38.0002 790.338 43.0292 790.784 L42.9973 769.904 Z" fill="#000000" fill-rule="evenodd" fill-opacity="1" /><path clip-path="url(#clip750)" d="M14.479 715.669 L19.3487 715.669 L19.3487 721.27 Q19.3487 724.421 20.6219 725.663 Q21.895 726.872 25.2052 726.872 L28.3562 726.872 L28.3562 717.228 L32.9077 717.228 L32.9077 726.872 L64.0042 726.872 L64.0042 732.761 L32.9077 732.761 L32.9077 738.362 L28.3562 738.362 L28.3562 732.761 L25.8736 732.761 Q19.9216 732.761 17.2162 729.991 Q14.479 727.222 14.479 721.207 L14.479 715.669 Z" fill="#000000" fill-rule="evenodd" fill-opacity="1" /><path clip-path="url(#clip750)" d="M28.3562 710.767 L28.3562 704.911 L64.0042 704.911 L64.0042 710.767 L28.3562 710.767 M14.479 710.767 L14.479 704.911 L21.895 704.911 L21.895 710.767 L14.479 710.767 Z" fill="#000000" fill-rule="evenodd" fill-opacity="1" /><path clip-path="url(#clip750)" d="M33.7671 669.199 L14.479 669.199 L14.479 663.342 L64.0042 663.342 L64.0042 669.199 L58.657 669.199 Q61.8398 671.045 63.3994 673.878 Q64.9272 676.679 64.9272 680.625 Q64.9272 687.087 59.771 691.161 Q54.6147 695.203 46.212 695.203 Q37.8093 695.203 32.6531 691.161 Q27.4968 687.087 27.4968 680.625 Q27.4968 676.679 29.0564 673.878 Q30.5842 671.045 33.7671 669.199 M46.212 689.155 Q52.6732 689.155 56.3653 686.514 Q60.0256 683.84 60.0256 679.193 Q60.0256 674.546 56.3653 671.873 Q52.6732 669.199 46.212 669.199 Q39.7508 669.199 36.0905 671.873 Q32.3984 674.546 32.3984 679.193 Q32.3984 683.84 36.0905 686.514 Q39.7508 689.155 46.212 689.155 Z" fill="#000000" fill-rule="evenodd" fill-opacity="1" /><path clip-path="url(#clip750)" d="M44.7161 620.788 L47.5806 620.788 L47.5806 647.715 Q53.6281 647.333 56.8109 644.086 Q59.9619 640.808 59.9619 634.983 Q59.9619 631.609 59.1344 628.458 Q58.3069 625.276 56.6518 622.156 L62.1899 622.156 Q63.5267 625.307 64.227 628.618 Q64.9272 631.928 64.9272 635.333 Q64.9272 643.863 59.9619 648.861 Q54.9967 653.826 46.5303 653.826 Q37.7774 653.826 32.6531 649.115 Q27.4968 644.373 27.4968 636.352 Q27.4968 629.159 32.1438 624.989 Q36.7589 620.788 44.7161 620.788 M42.9973 626.644 Q38.1912 626.708 35.3266 629.35 Q32.4621 631.96 32.4621 636.288 Q32.4621 641.19 35.2312 644.15 Q38.0002 647.078 43.0292 647.524 L42.9973 626.644 Z" fill="#000000" fill-rule="evenodd" fill-opacity="1" /><path clip-path="url(#clip750)" d="M14.479 611.176 L14.479 605.319 L64.0042 605.319 L64.0042 611.176 L14.479 611.176 Z" fill="#000000" fill-rule="evenodd" fill-opacity="1" /><path clip-path="url(#clip750)" d="M28.3562 593.065 L28.3562 587.209 L64.0042 587.209 L64.0042 593.065 L28.3562 593.065 M14.479 593.065 L14.479 587.209 L21.895 587.209 L21.895 593.065 L14.479 593.065 Z" fill="#000000" fill-rule="evenodd" fill-opacity="1" /><path clip-path="url(#clip750)" d="M18.2347 569.162 L28.3562 569.162 L28.3562 557.099 L32.9077 557.099 L32.9077 569.162 L52.2594 569.162 Q56.6199 569.162 57.8613 567.984 Q59.1026 566.775 59.1026 563.114 L59.1026 557.099 L64.0042 557.099 L64.0042 563.114 Q64.0042 569.894 61.4897 572.472 Q58.9434 575.05 52.2594 575.05 L32.9077 575.05 L32.9077 579.347 L28.3562 579.347 L28.3562 575.05 L18.2347 575.05 L18.2347 569.162 Z" fill="#000000" fill-rule="evenodd" fill-opacity="1" /><path clip-path="url(#clip750)" d="M67.3143 534.564 Q73.68 537.047 75.6216 539.402 Q77.5631 541.757 77.5631 545.704 L77.5631 550.383 L72.6615 550.383 L72.6615 546.946 Q72.6615 544.527 71.5157 543.19 Q70.3699 541.853 66.1048 540.23 L63.4312 539.179 L28.3562 553.598 L28.3562 547.391 L56.238 536.251 L28.3562 525.111 L28.3562 518.905 L67.3143 534.564 Z" fill="#000000" fill-rule="evenodd" fill-opacity="1" /><path clip-path="url(#clip750)" d="M711.184 16.7545 L711.184 25.383 Q707.052 21.5346 702.353 19.6307 Q697.694 17.7268 692.428 17.7268 Q682.058 17.7268 676.549 24.0867 Q671.039 30.4061 671.039 42.3968 Q671.039 54.3469 676.549 60.7069 Q682.058 67.0263 692.428 67.0263 Q697.694 67.0263 702.353 65.1223 Q707.052 63.2184 711.184 59.3701 L711.184 67.9175 Q706.89 70.8341 702.069 72.2924 Q697.289 73.7508 691.942 73.7508 Q678.21 73.7508 670.31 65.3654 Q662.411 56.9395 662.411 42.3968 Q662.411 27.8135 670.31 19.4281 Q678.21 11.0023 691.942 11.0023 Q697.37 11.0023 702.15 12.4606 Q706.971 13.8784 711.184 16.7545 Z" fill="#000000" fill-rule="evenodd" fill-opacity="1" /><path clip-path="url(#clip750)" d="M723.823 12.096 L734.841 12.096 L761.658 62.6918 L761.658 12.096 L769.598 12.096 L769.598 72.576 L758.58 72.576 L731.763 21.9802 L731.763 72.576 L723.823 72.576 L723.823 12.096 Z" fill="#000000" fill-rule="evenodd" fill-opacity="1" /><path clip-path="url(#clip750)" d="M810.431 17.6457 Q801.519 17.6457 796.253 24.2892 Q791.027 30.9327 791.027 42.3968 Q791.027 53.8203 796.253 60.4638 Q801.519 67.1073 810.431 67.1073 Q819.343 67.1073 824.528 60.4638 Q829.754 53.8203 829.754 42.3968 Q829.754 30.9327 824.528 24.2892 Q819.343 17.6457 810.431 17.6457 M810.431 11.0023 Q823.151 11.0023 830.767 19.5497 Q838.382 28.0566 838.382 42.3968 Q838.382 56.6965 830.767 65.2439 Q823.151 73.7508 810.431 73.7508 Q797.671 73.7508 790.015 65.2439 Q782.399 56.737 782.399 42.3968 Q782.399 28.0566 790.015 19.5497 Q797.671 11.0023 810.431 11.0023 Z" fill="#000000" fill-rule="evenodd" fill-opacity="1" /><path clip-path="url(#clip750)" d="M842.798 12.096 L893.961 12.096 L893.961 18.9825 L872.491 18.9825 L872.491 72.576 L864.268 72.576 L864.268 18.9825 L842.798 18.9825 L842.798 12.096 Z" fill="#000000" fill-rule="evenodd" fill-opacity="1" /><path clip-path="url(#clip750)" d="M927.907 9.54393 L935.361 9.54393 L935.361 72.576 L927.907 72.576 L927.907 9.54393 Z" fill="#000000" fill-rule="evenodd" fill-opacity="1" /><path clip-path="url(#clip750)" d="M989.765 48.0275 L989.765 51.6733 L955.494 51.6733 Q955.98 59.3701 960.112 63.421 Q964.284 67.4314 971.698 67.4314 Q975.992 67.4314 980.002 66.3781 Q984.053 65.3249 988.023 63.2184 L988.023 70.267 Q984.012 71.9684 979.799 72.8596 Q975.586 73.7508 971.252 73.7508 Q960.396 73.7508 954.036 67.4314 Q947.716 61.1119 947.716 50.3365 Q947.716 39.1965 953.712 32.6746 Q959.747 26.1121 969.956 26.1121 Q979.111 26.1121 984.417 32.0264 Q989.765 37.9003 989.765 48.0275 M982.311 45.84 Q982.23 39.7232 978.868 36.0774 Q975.546 32.4315 970.037 32.4315 Q963.798 32.4315 960.031 35.9558 Q956.304 39.4801 955.737 45.8805 L982.311 45.84 Z" fill="#000000" fill-rule="evenodd" fill-opacity="1" /><path clip-path="url(#clip750)" d="M1022.62 49.7694 Q1013.58 49.7694 1010.1 51.8354 Q1006.62 53.9013 1006.62 58.8839 Q1006.62 62.8538 1009.21 65.2034 Q1011.84 67.5124 1016.34 67.5124 Q1022.54 67.5124 1026.26 63.1374 Q1030.03 58.7219 1030.03 51.4303 L1030.03 49.7694 L1022.62 49.7694 M1037.48 46.6907 L1037.48 72.576 L1030.03 72.576 L1030.03 65.6895 Q1027.48 69.8214 1023.67 71.8063 Q1019.86 73.7508 1014.35 73.7508 Q1007.39 73.7508 1003.25 69.8619 Q999.163 65.9325 999.163 59.3701 Q999.163 51.7138 1004.27 47.825 Q1009.41 43.9361 1019.58 43.9361 L1030.03 43.9361 L1030.03 43.2069 Q1030.03 38.0623 1026.63 35.2672 Q1023.27 32.4315 1017.15 32.4315 Q1013.26 32.4315 1009.57 33.3632 Q1005.89 34.295 1002.48 36.1584 L1002.48 29.2718 Q1006.58 27.692 1010.42 26.9223 Q1014.27 26.1121 1017.92 26.1121 Q1027.76 26.1121 1032.62 31.2163 Q1037.48 36.3204 1037.48 46.6907 Z" fill="#000000" fill-rule="evenodd" fill-opacity="1" /><path clip-path="url(#clip750)" d="M1079.13 34.1734 Q1077.87 33.4443 1076.37 33.1202 Q1074.91 32.7556 1073.13 32.7556 Q1066.81 32.7556 1063.41 36.8875 Q1060.05 40.9789 1060.05 48.6757 L1060.05 72.576 L1052.55 72.576 L1052.55 27.2059 L1060.05 27.2059 L1060.05 34.2544 Q1062.4 30.1225 1066.16 28.1376 Q1069.93 26.1121 1075.32 26.1121 Q1076.09 26.1121 1077.02 26.2337 Q1077.95 26.3147 1079.09 26.5172 L1079.13 34.1734 Z" fill="#000000" fill-rule="evenodd" fill-opacity="1" /><path clip-path="url(#clip750)" d="M1123.2 45.1919 L1123.2 72.576 L1115.75 72.576 L1115.75 45.4349 Q1115.75 38.994 1113.24 35.7938 Q1110.72 32.5936 1105.7 32.5936 Q1099.67 32.5936 1096.18 36.4419 Q1092.7 40.2903 1092.7 46.9338 L1092.7 72.576 L1085.2 72.576 L1085.2 27.2059 L1092.7 27.2059 L1092.7 34.2544 Q1095.37 30.163 1098.98 28.1376 Q1102.62 26.1121 1107.36 26.1121 Q1115.18 26.1121 1119.19 30.9732 Q1123.2 35.7938 1123.2 45.1919 Z" fill="#000000" fill-rule="evenodd" fill-opacity="1" /><path clip-path="url(#clip750)" d="M1138.07 27.2059 L1145.52 27.2059 L1145.52 72.576 L1138.07 72.576 L1138.07 27.2059 M1138.07 9.54393 L1145.52 9.54393 L1145.52 18.9825 L1138.07 18.9825 L1138.07 9.54393 Z" fill="#000000" fill-rule="evenodd" fill-opacity="1" /><path clip-path="url(#clip750)" d="M1198.83 45.1919 L1198.83 72.576 L1191.38 72.576 L1191.38 45.4349 Q1191.38 38.994 1188.87 35.7938 Q1186.36 32.5936 1181.33 32.5936 Q1175.3 32.5936 1171.81 36.4419 Q1168.33 40.2903 1168.33 46.9338 L1168.33 72.576 L1160.83 72.576 L1160.83 27.2059 L1168.33 27.2059 L1168.33 34.2544 Q1171 30.163 1174.61 28.1376 Q1178.25 26.1121 1182.99 26.1121 Q1190.81 26.1121 1194.82 30.9732 Q1198.83 35.7938 1198.83 45.1919 Z" fill="#000000" fill-rule="evenodd" fill-opacity="1" /><path clip-path="url(#clip750)" d="M1243.55 49.3643 Q1243.55 41.2625 1240.19 36.8065 Q1236.87 32.3505 1230.83 32.3505 Q1224.84 32.3505 1221.48 36.8065 Q1218.15 41.2625 1218.15 49.3643 Q1218.15 57.4256 1221.48 61.8816 Q1224.84 66.3376 1230.83 66.3376 Q1236.87 66.3376 1240.19 61.8816 Q1243.55 57.4256 1243.55 49.3643 M1251.01 66.9452 Q1251.01 78.5308 1245.86 84.1616 Q1240.72 89.8329 1230.1 89.8329 Q1226.18 89.8329 1222.69 89.2252 Q1219.21 88.6581 1215.93 87.4428 L1215.93 80.1917 Q1219.21 81.9741 1222.41 82.8248 Q1225.61 83.6755 1228.93 83.6755 Q1236.26 83.6755 1239.91 79.8271 Q1243.55 76.0193 1243.55 68.282 L1243.55 64.5957 Q1241.24 68.6061 1237.64 70.5911 Q1234.03 72.576 1229.01 72.576 Q1220.67 72.576 1215.56 66.2161 Q1210.46 59.8562 1210.46 49.3643 Q1210.46 38.832 1215.56 32.472 Q1220.67 26.1121 1229.01 26.1121 Q1234.03 26.1121 1237.64 28.0971 Q1241.24 30.082 1243.55 34.0924 L1243.55 27.2059 L1251.01 27.2059 L1251.01 66.9452 Z" fill="#000000" fill-rule="evenodd" fill-opacity="1" /><path clip-path="url(#clip750)" d="M1325.38 28.9478 L1325.38 35.9153 Q1322.22 34.1734 1319.02 33.3227 Q1315.86 32.4315 1312.62 32.4315 Q1305.37 32.4315 1301.36 37.0496 Q1297.35 41.6271 1297.35 49.9314 Q1297.35 58.2358 1301.36 62.8538 Q1305.37 67.4314 1312.62 67.4314 Q1315.86 67.4314 1319.02 66.5807 Q1322.22 65.6895 1325.38 63.9476 L1325.38 70.8341 Q1322.26 72.2924 1318.9 73.0216 Q1315.58 73.7508 1311.81 73.7508 Q1301.56 73.7508 1295.53 67.3098 Q1289.49 60.8689 1289.49 49.9314 Q1289.49 38.832 1295.57 32.472 Q1301.68 26.1121 1312.3 26.1121 Q1315.74 26.1121 1319.02 26.8413 Q1322.3 27.5299 1325.38 28.9478 Z" fill="#000000" fill-rule="evenodd" fill-opacity="1" /><path clip-path="url(#clip750)" d="M1337.58 54.671 L1337.58 27.2059 L1345.03 27.2059 L1345.03 54.3874 Q1345.03 60.8284 1347.54 64.0691 Q1350.05 67.2693 1355.08 67.2693 Q1361.11 67.2693 1364.59 63.421 Q1368.12 59.5726 1368.12 52.9291 L1368.12 27.2059 L1375.57 27.2059 L1375.57 72.576 L1368.12 72.576 L1368.12 65.6084 Q1365.4 69.7404 1361.8 71.7658 Q1358.23 73.7508 1353.5 73.7508 Q1345.68 73.7508 1341.63 68.8897 Q1337.58 64.0286 1337.58 54.671 M1356.33 26.1121 L1356.33 26.1121 Z" fill="#000000" fill-rule="evenodd" fill-opacity="1" /><path clip-path="url(#clip750)" d="M1417.22 34.1734 Q1415.96 33.4443 1414.46 33.1202 Q1413 32.7556 1411.22 32.7556 Q1404.9 32.7556 1401.5 36.8875 Q1398.14 40.9789 1398.14 48.6757 L1398.14 72.576 L1390.64 72.576 L1390.64 27.2059 L1398.14 27.2059 L1398.14 34.2544 Q1400.49 30.1225 1404.25 28.1376 Q1408.02 26.1121 1413.41 26.1121 Q1414.18 26.1121 1415.11 26.2337 Q1416.04 26.3147 1417.18 26.5172 L1417.22 34.1734 Z" fill="#000000" fill-rule="evenodd" fill-opacity="1" /><path clip-path="url(#clip750)" d="M1419.69 27.2059 L1427.59 27.2059 L1441.76 65.2844 L1455.94 27.2059 L1463.84 27.2059 L1446.83 72.576 L1436.7 72.576 L1419.69 27.2059 Z" fill="#000000" fill-rule="evenodd" fill-opacity="1" /><path clip-path="url(#clip750)" d="M1512.94 48.0275 L1512.94 51.6733 L1478.67 51.6733 Q1479.15 59.3701 1483.29 63.421 Q1487.46 67.4314 1494.87 67.4314 Q1499.17 67.4314 1503.18 66.3781 Q1507.23 65.3249 1511.2 63.2184 L1511.2 70.267 Q1507.19 71.9684 1502.97 72.8596 Q1498.76 73.7508 1494.43 73.7508 Q1483.57 73.7508 1477.21 67.4314 Q1470.89 61.1119 1470.89 50.3365 Q1470.89 39.1965 1476.89 32.6746 Q1482.92 26.1121 1493.13 26.1121 Q1502.29 26.1121 1507.59 32.0264 Q1512.94 37.9003 1512.94 48.0275 M1505.49 45.84 Q1505.4 39.7232 1502.04 36.0774 Q1498.72 32.4315 1493.21 32.4315 Q1486.97 32.4315 1483.21 35.9558 Q1479.48 39.4801 1478.91 45.8805 L1505.49 45.84 Z" fill="#000000" fill-rule="evenodd" fill-opacity="1" /><path clip-path="url(#clip750)" d="M1569.45 9.62495 Q1564.02 18.942 1561.39 28.0566 Q1558.75 37.1711 1558.75 46.5287 Q1558.75 55.8863 1561.39 65.0818 Q1564.06 74.2369 1569.45 83.5134 L1562.97 83.5134 Q1556.89 73.9938 1553.85 64.7983 Q1550.86 55.6027 1550.86 46.5287 Q1550.86 37.4952 1553.85 28.3401 Q1556.85 19.1851 1562.97 9.62495 L1569.45 9.62495 Z" fill="#000000" fill-rule="evenodd" fill-opacity="1" /><path clip-path="url(#clip750)" d="M1610.36 51.4708 L1608.58 42.1132 Q1606.76 32.5126 1599.55 32.5126 Q1594.12 32.5126 1591.65 36.9686 Q1588.53 42.5588 1588.53 49.9314 Q1588.53 58.8434 1591.57 63.0969 Q1594.65 67.4314 1599.55 67.4314 Q1604.98 67.4314 1607.89 58.8029 L1610.36 51.4708 M1614.54 39.075 L1618.55 27.2059 L1625.19 27.2059 L1616.89 51.7949 L1618.51 60.6663 Q1618.87 62.6513 1620.29 64.3122 Q1621.95 66.2566 1623.25 66.2566 L1626.81 66.2566 L1626.81 72.576 L1622.35 72.576 Q1618.55 72.576 1615.14 69.1732 Q1613.48 67.4719 1612.79 63.9071 Q1610.93 68.4036 1607.12 71.9279 Q1605.34 73.5887 1599.55 73.5887 Q1590.03 73.5887 1585.41 67.4314 Q1580.67 61.0714 1580.67 49.9314 Q1580.67 38.0218 1585.81 32.4315 Q1591.53 26.1931 1599.55 26.1931 Q1612.15 26.1931 1614.54 39.075 Z" fill="#000000" fill-rule="evenodd" fill-opacity="1" /><path clip-path="url(#clip750)" d="M1665.94 34.9026 L1717.87 34.9026 L1717.87 41.7081 L1665.94 41.7081 L1665.94 34.9026 M1665.94 51.4303 L1717.87 51.4303 L1717.87 58.3168 L1665.94 58.3168 L1665.94 51.4303 Z" fill="#000000" fill-rule="evenodd" fill-opacity="1" /><path clip-path="url(#clip750)" d="M1779.41 17.4837 Q1773.09 17.4837 1769.89 23.7221 Q1766.73 29.92 1766.73 42.3968 Q1766.73 54.833 1769.89 61.0714 Q1773.09 67.2693 1779.41 67.2693 Q1785.77 67.2693 1788.93 61.0714 Q1792.13 54.833 1792.13 42.3968 Q1792.13 29.92 1788.93 23.7221 Q1785.77 17.4837 1779.41 17.4837 M1779.41 11.0023 Q1789.58 11.0023 1794.92 19.0636 Q1800.31 27.0843 1800.31 42.3968 Q1800.31 57.6687 1794.92 65.73 Q1789.58 73.7508 1779.41 73.7508 Q1769.24 73.7508 1763.85 65.73 Q1758.5 57.6687 1758.5 42.3968 Q1758.5 27.0843 1763.85 19.0636 Q1769.24 11.0023 1779.41 11.0023 Z" fill="#000000" fill-rule="evenodd" fill-opacity="1" /><path clip-path="url(#clip750)" d="M1814.69 62.2867 L1823.24 62.2867 L1823.24 72.576 L1814.69 72.576 L1814.69 62.2867 Z" fill="#000000" fill-rule="evenodd" fill-opacity="1" /><path clip-path="url(#clip750)" d="M1839 12.096 L1877.88 12.096 L1877.88 15.5798 L1855.93 72.576 L1847.38 72.576 L1868.04 18.9825 L1839 18.9825 L1839 12.096 Z" fill="#000000" fill-rule="evenodd" fill-opacity="1" /><path clip-path="url(#clip750)" d="M1891.62 9.62495 L1898.1 9.62495 Q1904.18 19.1851 1907.17 28.3401 Q1910.21 37.4952 1910.21 46.5287 Q1910.21 55.6027 1907.17 64.7983 Q1904.18 73.9938 1898.1 83.5134 L1891.62 83.5134 Q1897.01 74.2369 1899.64 65.0818 Q1902.31 55.8863 1902.31 46.5287 Q1902.31 37.1711 1899.64 28.0566 Q1897.01 18.942 1891.62 9.62495 Z" fill="#000000" fill-rule="evenodd" fill-opacity="1" /><polyline clip-path="url(#clip752)" style="stroke:#0000ff; stroke-linecap:butt; stroke-linejoin:round; stroke-width:6; stroke-opacity:1; fill:none" points="
  280.231,1260.54 284.263,851.887 288.296,832.835 292.328,701.641 296.361,713.402 300.393,1087.06 304.425,865.925 308.458,774.742 312.49,780.671 316.523,919.053 
  320.555,489.248 324.587,434.362 328.62,1203.87 332.652,589.688 336.684,739.118 340.717,1175.81 344.749,634.61 348.782,763.131 352.814,1145.35 356.846,995.708 
  360.879,914.999 364.911,1036.5 368.944,1183.77 372.976,675.795 377.008,1001.88 381.041,712.421 385.073,566.454 389.105,817.097 393.138,751.453 397.17,1025.15 
  401.203,1051.13 405.235,814.972 409.267,801.131 413.3,895.671 417.332,1288.79 421.365,842.378 425.397,1210.55 429.429,821.88 433.462,827.727 437.494,901.81 
  441.526,822.25 445.559,789.174 449.591,713.1 453.624,779.979 457.656,787.882 461.688,900.69 465.721,996.361 469.753,872.77 473.786,781.2 477.818,718.728 
  481.85,735.616 485.883,1033.94 489.915,970.814 493.947,1032.89 497.98,935.15 502.012,1073.31 506.045,837.93 510.077,899.686 514.109,1018.77 518.142,987.052 
  522.174,870.493 526.207,800.072 530.239,823.23 534.271,896.714 538.304,664.356 542.336,912.216 546.368,603.768 550.401,461.951 554.433,1036.07 558.466,1113.74 
  562.498,844.195 566.53,817.503 570.563,1295.81 574.595,1028.59 578.628,398.406 582.66,864.094 586.692,855.402 590.725,966.408 594.757,746.853 598.789,955.159 
  602.822,791.794 606.854,663.837 610.887,860.075 614.919,608.043 618.951,593.248 622.984,593.652 627.016,1262.27 631.049,991.744 635.081,714.068 639.113,956.448 
  643.146,647.633 647.178,987.739 651.21,1028.85 655.243,1181.03 659.275,898.223 663.308,977.973 667.34,681.19 671.372,1009.06 675.405,896.101 679.437,781.738 
  683.47,626.618 687.502,1108.53 691.534,849.506 695.567,973.601 699.599,843.363 703.631,1192.35 707.664,750.002 711.696,889.245 715.729,1127.22 719.761,866.322 
  723.793,796.556 727.826,747.541 731.858,843.841 735.891,459.49 739.923,760.393 743.955,895.918 747.988,1101.61 752.02,705.869 756.052,1012.07 760.085,517.921 
  764.117,934.541 768.15,726.476 772.182,835.624 776.214,945.403 780.247,996.567 784.279,806.815 788.312,996.906 792.344,980.069 796.376,920.368 800.409,1004.74 
  804.441,1082.37 808.473,1002.57 812.506,963.136 816.538,1386.4 820.571,1015.87 824.603,965.419 828.635,867.93 832.668,1065.02 836.7,754.138 840.733,1139.67 
  844.765,623.58 848.797,1016.83 852.83,951.757 856.862,789.511 860.894,518.244 864.927,826.302 868.959,880.678 872.992,583.752 877.024,811.624 881.056,1297.81 
  885.089,791.979 889.121,862.951 893.154,958.104 897.186,867.312 901.218,678.857 905.251,508.76 909.283,1003.9 913.315,1205.06 917.348,973.862 921.38,916.543 
  925.413,750.22 929.445,758.537 933.477,1039.61 937.51,933.578 941.542,880.492 945.575,959.82 949.607,666.167 953.639,805.602 957.672,832.064 961.704,1112.76 
  965.736,986.56 969.769,757.732 973.801,1103.17 977.834,861.728 981.866,929.361 985.898,1154.12 989.931,1218.35 993.963,998.017 997.996,781.658 1002.03,544.084 
  1006.06,1021.94 1010.09,775.05 1014.13,765.212 1018.16,1112.72 1022.19,665.443 1026.22,590.912 1030.25,852.923 1034.29,929.906 1038.32,922.085 1042.35,928.237 
  1046.38,609.461 1050.42,736.66 1054.45,1013.57 1058.48,851.596 1062.51,891.361 1066.55,933.798 1070.58,771.894 1074.61,983.13 1078.64,646.554 1082.68,1022.35 
  1086.71,576.38 1090.74,794.313 1094.77,724.359 1098.81,891.075 1102.84,819.988 1106.87,660.044 1110.9,954.757 1114.93,784.456 1118.97,1219.34 1123,688.493 
  1127.03,718.866 1131.06,890.21 1135.1,1230.61 1139.13,944.887 1143.16,825.333 1147.19,856.014 1151.23,882.675 1155.26,842.857 1159.29,971.147 1163.32,1159.97 
  1167.36,1023.62 1171.39,736.665 1175.42,963.163 1179.45,952.604 1183.49,743.653 1187.52,894.351 1191.55,984.807 1195.58,629.329 1199.61,784.457 1203.65,639.47 
  1207.68,826.481 1211.71,981.708 1215.74,1226.22 1219.78,749.883 1223.81,960.692 1227.84,558.315 1231.87,975.902 1235.91,1034.64 1239.94,988.288 1243.97,975.84 
  1248,1208.09 1252.04,883.798 1256.07,872.087 1260.1,911.323 1264.13,886.846 1268.17,939.457 1272.2,615.678 1276.23,806.773 1280.26,883.655 1284.29,830.762 
  1288.33,423.881 1292.36,878.656 1296.39,957.961 1300.42,1252.26 1304.46,909.793 1308.49,1011.49 1312.52,666.357 1316.55,812.823 1320.59,1214.67 1324.62,1013.64 
  1328.65,792.051 1332.68,712.873 1336.72,1236.42 1340.75,1165.72 1344.78,1026.78 1348.81,752.503 1352.85,908.838 1356.88,586.858 1360.91,1093.73 1364.94,820.438 
  1368.97,986.222 1373.01,842.225 1377.04,969.284 1381.07,885.713 1385.1,821.858 1389.14,919.014 1393.17,871.228 1397.2,982.897 1401.23,739.853 1405.27,974.603 
  1409.3,847.493 1413.33,1306.73 1417.36,738.99 1421.4,476.957 1425.43,935.645 1429.46,846.799 1433.49,1033.79 1437.53,978.907 1441.56,929.065 1445.59,686.37 
  1449.62,705.076 1453.66,907.718 1457.69,570.258 1461.72,986.216 1465.75,789.805 1469.78,489.963 1473.82,331.112 1477.85,702.929 1481.88,1068.14 1485.91,900.603 
  1489.95,1129.95 1493.98,799.952 1498.01,803.258 1502.04,1093.63 1506.08,873.111 1510.11,1085.38 1514.14,1035.49 1518.17,879.218 1522.21,984.406 1526.24,981.357 
  1530.27,851.583 1534.3,1337.08 1538.34,1121.97 1542.37,357.401 1546.4,785.701 1550.43,966.52 1554.46,1080.83 1558.5,943.577 1562.53,1108.54 1566.56,1281.61 
  1570.59,1155.18 1574.63,1215.72 1578.66,934.215 1582.69,1049.81 1586.72,822.402 1590.76,1103.37 1594.79,938.929 1598.82,959.235 1602.85,537.842 1606.89,921.225 
  1610.92,949.043 1614.95,894.643 1618.98,752.231 1623.02,747.199 1627.05,862.079 1631.08,619.829 1635.11,892.494 1639.14,907.04 1643.18,819.613 1647.21,1012.13 
  1651.24,1009.64 1655.27,1302.02 1659.31,910.424 1663.34,974.195 1667.37,710.038 1671.4,998.492 1675.44,481.221 1679.47,761.885 1683.5,705.424 1687.53,974.667 
  1691.57,1106.08 1695.6,1013.97 1699.63,1010.95 1703.66,963.194 1707.7,917.482 1711.73,944.811 1715.76,1016.49 1719.79,867.324 1723.82,758.821 1727.86,893.121 
  1731.89,806.598 1735.92,934.47 1739.95,834.944 1743.99,618.116 1748.02,841.709 1752.05,831.057 1756.08,1129.95 1760.12,805.904 1764.15,651.94 1768.18,864.587 
  1772.21,776.65 1776.25,927.979 1780.28,704.364 1784.31,1060.06 1788.34,982.638 1792.38,1104.66 1796.41,1184.52 1800.44,750.604 1804.47,851.796 1808.5,1102.11 
  1812.54,967.199 1816.57,841.345 1820.6,1053.49 1824.63,1086.24 1828.67,738.949 1832.7,895.938 1836.73,858.004 1840.76,1106.04 1844.8,776.204 1848.83,980.024 
  1852.86,1174 1856.89,900.272 1860.93,602.926 1864.96,1114.5 1868.99,780.228 1873.02,920.073 1877.06,877.68 1881.09,483.292 1885.12,973.732 1889.15,1255.08 
  1893.19,662.214 1897.22,360.88 1901.25,1105.58 1905.28,1111.92 1909.31,1004.39 1913.35,909.935 1917.38,1064.74 1921.41,486.184 1925.44,1298.82 1929.48,993.62 
  1933.51,861.869 1937.54,637.656 1941.57,683.333 1945.61,554.684 1949.64,691.397 1953.67,1187.51 1957.7,829.531 1961.74,658.936 1965.77,1316.75 1969.8,1207.18 
  1973.83,1183.01 1977.87,914.159 1981.9,1002.67 1985.93,898.121 1989.96,985.044 1993.99,740.979 1998.03,912.267 2002.06,901.057 2006.09,817.871 2010.12,816.454 
  2014.16,1005.41 2018.19,727.465 2022.22,1029.7 2026.25,822.206 2030.29,778.25 2034.32,847.413 2038.35,826.388 2042.38,1142.39 2046.42,1104.99 2050.45,952.797 
  2054.48,868.185 2058.51,1109.93 2062.55,842.253 2066.58,1139.94 2070.61,942.291 2074.64,854.245 2078.67,1071.42 2082.71,825.712 2086.74,1208.16 2090.77,553.424 
  2094.8,983.826 2098.84,840.979 2102.87,822.231 2106.9,1121.69 2110.93,852.629 2114.97,752.543 2119,813.303 2123.03,761.287 2127.06,917.334 2131.1,783.401 
  2135.13,895.761 2139.16,837.051 2143.19,874.68 2147.23,1220.21 2151.26,1108.23 2155.29,478.74 2159.32,994.754 2163.35,926.688 2167.39,816.76 2171.42,1016.23 
  2175.45,1127.78 2179.48,900.299 2183.52,998.671 2187.55,992.685 2191.58,1001.81 2195.61,861.438 2199.65,971.927 2203.68,849.596 2207.71,779.75 2211.74,983.468 
  2215.78,1071.17 2219.81,1055 2223.84,1046.28 2227.87,568.599 2231.91,1032.8 2235.94,945.995 2239.97,969.861 2244,853.007 2248.03,1006.61 2252.07,578.186 
  2256.1,956.916 2260.13,1246.28 2264.16,998.442 2268.2,843.018 2272.23,928.3 2276.26,1181.79 2280.29,852.643 2284.33,789.993 2288.36,1237.23 2292.39,1026.77 
  
  "/>
<polyline clip-path="url(#clip752)" style="stroke:#000000; stroke-linecap:butt; stroke-linejoin:round; stroke-width:8; stroke-opacity:1; fill:none" points="
  280.231,160.256 284.263,160.256 288.296,160.256 292.328,160.256 296.361,160.256 300.393,160.256 304.425,160.256 308.458,160.256 312.49,160.256 316.523,160.256 
  320.555,160.256 324.587,160.256 328.62,160.256 332.652,160.256 336.684,160.256 340.717,160.256 344.749,160.256 348.782,160.256 352.814,160.256 356.846,160.256 
  360.879,160.256 364.911,160.256 368.944,160.256 372.976,160.256 377.008,160.256 381.041,160.256 385.073,160.256 389.105,160.256 393.138,160.256 397.17,160.256 
  401.203,160.256 405.235,160.256 409.267,160.256 413.3,160.256 417.332,160.256 421.365,160.256 425.397,160.256 429.429,160.256 433.462,160.256 437.494,160.256 
  441.526,160.256 445.559,160.256 449.591,160.256 453.624,160.256 457.656,160.256 461.688,160.256 465.721,160.256 469.753,160.256 473.786,160.256 477.818,160.256 
  481.85,160.256 485.883,160.256 489.915,160.256 493.947,160.256 497.98,160.256 502.012,160.256 506.045,160.256 510.077,160.256 514.109,160.256 518.142,160.256 
  522.174,160.256 526.207,160.256 530.239,160.256 534.271,160.256 538.304,160.256 542.336,160.256 546.368,160.256 550.401,160.256 554.433,160.256 558.466,160.256 
  562.498,160.256 566.53,160.256 570.563,160.256 574.595,160.256 578.628,160.256 582.66,160.256 586.692,160.256 590.725,160.256 594.757,160.256 598.789,160.256 
  602.822,160.256 606.854,160.256 610.887,160.256 614.919,160.256 618.951,160.256 622.984,160.256 627.016,160.256 631.049,160.256 635.081,160.256 639.113,160.256 
  643.146,160.256 647.178,160.256 651.21,160.256 655.243,160.256 659.275,160.256 663.308,160.256 667.34,160.256 671.372,160.256 675.405,160.256 679.437,160.256 
  683.47,160.256 687.502,160.256 691.534,160.256 695.567,160.256 699.599,160.256 703.631,160.256 707.664,160.256 711.696,160.256 715.729,160.256 719.761,160.256 
  723.793,160.256 727.826,160.256 731.858,160.256 735.891,160.256 739.923,160.256 743.955,160.256 747.988,160.256 752.02,160.256 756.052,160.256 760.085,160.256 
  764.117,160.256 768.15,160.256 772.182,160.256 776.214,160.256 780.247,160.256 784.279,160.256 788.312,160.256 792.344,160.256 796.376,160.256 800.409,160.256 
  804.441,160.256 808.473,160.256 812.506,160.256 816.538,160.256 820.571,160.256 824.603,160.256 828.635,160.256 832.668,160.256 836.7,160.256 840.733,160.256 
  844.765,160.256 848.797,160.256 852.83,160.256 856.862,160.256 860.894,160.256 864.927,160.256 868.959,160.256 872.992,160.256 877.024,160.256 881.056,160.256 
  885.089,160.256 889.121,160.256 893.154,160.256 897.186,160.256 901.218,160.256 905.251,160.256 909.283,160.256 913.315,160.256 917.348,160.256 921.38,160.256 
  925.413,160.256 929.445,160.256 933.477,160.256 937.51,160.256 941.542,160.256 945.575,160.256 949.607,160.256 953.639,160.256 957.672,160.256 961.704,160.256 
  965.736,160.256 969.769,160.256 973.801,160.256 977.834,160.256 981.866,160.256 985.898,160.256 989.931,160.256 993.963,160.256 997.996,160.256 1002.03,160.256 
  1006.06,160.256 1010.09,160.256 1014.13,160.256 1018.16,160.256 1022.19,160.256 1026.22,160.256 1030.25,160.256 1034.29,160.256 1038.32,160.256 1042.35,160.256 
  1046.38,160.256 1050.42,160.256 1054.45,160.256 1058.48,160.256 1062.51,160.256 1066.55,160.256 1070.58,160.256 1074.61,160.256 1078.64,160.256 1082.68,160.256 
  1086.71,160.256 1090.74,160.256 1094.77,160.256 1098.81,160.256 1102.84,160.256 1106.87,160.256 1110.9,160.256 1114.93,160.256 1118.97,160.256 1123,160.256 
  1127.03,160.256 1131.06,160.256 1135.1,160.256 1139.13,160.256 1143.16,160.256 1147.19,160.256 1151.23,160.256 1155.26,160.256 1159.29,160.256 1163.32,160.256 
  1167.36,160.256 1171.39,160.256 1175.42,160.256 1179.45,160.256 1183.49,160.256 1187.52,160.256 1191.55,160.256 1195.58,160.256 1199.61,160.256 1203.65,160.256 
  1207.68,160.256 1211.71,160.256 1215.74,160.256 1219.78,160.256 1223.81,160.256 1227.84,160.256 1231.87,160.256 1235.91,160.256 1239.94,160.256 1243.97,160.256 
  1248,160.256 1252.04,160.256 1256.07,160.256 1260.1,160.256 1264.13,160.256 1268.17,160.256 1272.2,160.256 1276.23,160.256 1280.26,160.256 1284.29,160.256 
  1288.33,160.256 1292.36,160.256 1296.39,160.256 1300.42,160.256 1304.46,160.256 1308.49,160.256 1312.52,160.256 1316.55,160.256 1320.59,160.256 1324.62,160.256 
  1328.65,160.256 1332.68,160.256 1336.72,160.256 1340.75,160.256 1344.78,160.256 1348.81,160.256 1352.85,160.256 1356.88,160.256 1360.91,160.256 1364.94,160.256 
  1368.97,160.256 1373.01,160.256 1377.04,160.256 1381.07,160.256 1385.1,160.256 1389.14,160.256 1393.17,160.256 1397.2,160.256 1401.23,160.256 1405.27,160.256 
  1409.3,160.256 1413.33,160.256 1417.36,160.256 1421.4,160.256 1425.43,160.256 1429.46,160.256 1433.49,160.256 1437.53,160.256 1441.56,160.256 1445.59,160.256 
  1449.62,160.256 1453.66,160.256 1457.69,160.256 1461.72,160.256 1465.75,160.256 1469.78,160.256 1473.82,160.256 1477.85,160.256 1481.88,160.256 1485.91,160.256 
  1489.95,160.256 1493.98,160.256 1498.01,160.256 1502.04,160.256 1506.08,160.256 1510.11,160.256 1514.14,160.256 1518.17,160.256 1522.21,160.256 1526.24,160.256 
  1530.27,160.256 1534.3,160.256 1538.34,160.256 1542.37,160.256 1546.4,160.256 1550.43,160.256 1554.46,160.256 1558.5,160.256 1562.53,160.256 1566.56,160.256 
  1570.59,160.256 1574.63,160.256 1578.66,160.256 1582.69,160.256 1586.72,160.256 1590.76,160.256 1594.79,160.256 1598.82,160.256 1602.85,160.256 1606.89,160.256 
  1610.92,160.256 1614.95,160.256 1618.98,160.256 1623.02,160.256 1627.05,160.256 1631.08,160.256 1635.11,160.256 1639.14,160.256 1643.18,160.256 1647.21,160.256 
  1651.24,160.256 1655.27,160.256 1659.31,160.256 1663.34,160.256 1667.37,160.256 1671.4,160.256 1675.44,160.256 1679.47,160.256 1683.5,160.256 1687.53,160.256 
  1691.57,160.256 1695.6,160.256 1699.63,160.256 1703.66,160.256 1707.7,160.256 1711.73,160.256 1715.76,160.256 1719.79,160.256 1723.82,160.256 1727.86,160.256 
  1731.89,160.256 1735.92,160.256 1739.95,160.256 1743.99,160.256 1748.02,160.256 1752.05,160.256 1756.08,160.256 1760.12,160.256 1764.15,160.256 1768.18,160.256 
  1772.21,160.256 1776.25,160.256 1780.28,160.256 1784.31,160.256 1788.34,160.256 1792.38,160.256 1796.41,160.256 1800.44,160.256 1804.47,160.256 1808.5,160.256 
  1812.54,160.256 1816.57,160.256 1820.6,160.256 1824.63,160.256 1828.67,160.256 1832.7,160.256 1836.73,160.256 1840.76,160.256 1844.8,160.256 1848.83,160.256 
  1852.86,160.256 1856.89,160.256 1860.93,160.256 1864.96,160.256 1868.99,160.256 1873.02,160.256 1877.06,160.256 1881.09,160.256 1885.12,160.256 1889.15,160.256 
  1893.19,160.256 1897.22,160.256 1901.25,160.256 1905.28,160.256 1909.31,160.256 1913.35,160.256 1917.38,160.256 1921.41,160.256 1925.44,160.256 1929.48,160.256 
  1933.51,160.256 1937.54,160.256 1941.57,160.256 1945.61,160.256 1949.64,160.256 1953.67,160.256 1957.7,160.256 1961.74,160.256 1965.77,160.256 1969.8,160.256 
  1973.83,160.256 1977.87,160.256 1981.9,160.256 1985.93,160.256 1989.96,160.256 1993.99,160.256 1998.03,160.256 2002.06,160.256 2006.09,160.256 2010.12,160.256 
  2014.16,160.256 2018.19,160.256 2022.22,160.256 2026.25,160.256 2030.29,160.256 2034.32,160.256 2038.35,160.256 2042.38,160.256 2046.42,160.256 2050.45,160.256 
  2054.48,160.256 2058.51,160.256 2062.55,160.256 2066.58,160.256 2070.61,160.256 2074.64,160.256 2078.67,160.256 2082.71,160.256 2086.74,160.256 2090.77,160.256 
  2094.8,160.256 2098.84,160.256 2102.87,160.256 2106.9,160.256 2110.93,160.256 2114.97,160.256 2119,160.256 2123.03,160.256 2127.06,160.256 2131.1,160.256 
  2135.13,160.256 2139.16,160.256 2143.19,160.256 2147.23,160.256 2151.26,160.256 2155.29,160.256 2159.32,160.256 2163.35,160.256 2167.39,160.256 2171.42,160.256 
  2175.45,160.256 2179.48,160.256 2183.52,160.256 2187.55,160.256 2191.58,160.256 2195.61,160.256 2199.65,160.256 2203.68,160.256 2207.71,160.256 2211.74,160.256 
  2215.78,160.256 2219.81,160.256 2223.84,160.256 2227.87,160.256 2231.91,160.256 2235.94,160.256 2239.97,160.256 2244,160.256 2248.03,160.256 2252.07,160.256 
  2256.1,160.256 2260.13,160.256 2264.16,160.256 2268.2,160.256 2272.23,160.256 2276.26,160.256 2280.29,160.256 2284.33,160.256 2288.36,160.256 2292.39,160.256 
  
  "/>
<path clip-path="url(#clip750)" d="
M1722.45 1379.86 L2281.66 1379.86 L2281.66 1224.34 L1722.45 1224.34  Z
  " fill="#ffffff" fill-rule="evenodd" fill-opacity="1"/>
<polyline clip-path="url(#clip750)" style="stroke:#000000; stroke-linecap:butt; stroke-linejoin:round; stroke-width:4; stroke-opacity:1; fill:none" points="
  1722.45,1379.86 2281.66,1379.86 2281.66,1224.34 1722.45,1224.34 1722.45,1379.86 
  "/>
<polyline clip-path="url(#clip750)" style="stroke:#0000ff; stroke-linecap:butt; stroke-linejoin:round; stroke-width:4; stroke-opacity:1; fill:none" points="
  1746.15,1276.18 1888.34,1276.18 
  "/>
<path clip-path="url(#clip750)" d="M1937.6 1288.53 L1937.6 1279.24 L1929.96 1279.24 L1929.96 1275.4 L1942.23 1275.4 L1942.23 1290.24 Q1939.52 1292.16 1936.25 1293.16 Q1932.99 1294.13 1929.29 1294.13 Q1921.19 1294.13 1916.6 1289.41 Q1912.04 1284.66 1912.04 1276.21 Q1912.04 1267.74 1916.6 1263.02 Q1921.19 1258.27 1929.29 1258.27 Q1932.67 1258.27 1935.7 1259.1 Q1938.75 1259.94 1941.32 1261.56 L1941.32 1266.54 Q1938.73 1264.34 1935.81 1263.22 Q1932.9 1262.11 1929.68 1262.11 Q1923.34 1262.11 1920.14 1265.66 Q1916.97 1269.2 1916.97 1276.21 Q1916.97 1283.2 1920.14 1286.74 Q1923.34 1290.28 1929.68 1290.28 Q1932.16 1290.28 1934.1 1289.87 Q1936.05 1289.43 1937.6 1288.53 Z" fill="#000000" fill-rule="evenodd" fill-opacity="1" /><path clip-path="url(#clip750)" d="M1965.61 1271.51 Q1964.89 1271.1 1964.03 1270.91 Q1963.2 1270.7 1962.18 1270.7 Q1958.57 1270.7 1956.62 1273.06 Q1954.7 1275.4 1954.7 1279.8 L1954.7 1293.46 L1950.42 1293.46 L1950.42 1267.53 L1954.7 1267.53 L1954.7 1271.56 Q1956.05 1269.2 1958.2 1268.06 Q1960.35 1266.91 1963.43 1266.91 Q1963.87 1266.91 1964.4 1266.97 Q1964.93 1267.02 1965.58 1267.14 L1965.61 1271.51 Z" fill="#000000" fill-rule="evenodd" fill-opacity="1" /><path clip-path="url(#clip750)" d="M1991.21 1279.43 L1991.21 1281.51 L1971.62 1281.51 Q1971.9 1285.91 1974.26 1288.22 Q1976.65 1290.52 1980.88 1290.52 Q1983.34 1290.52 1985.63 1289.91 Q1987.94 1289.31 1990.21 1288.11 L1990.21 1292.14 Q1987.92 1293.11 1985.51 1293.62 Q1983.11 1294.13 1980.63 1294.13 Q1974.43 1294.13 1970.79 1290.52 Q1967.18 1286.91 1967.18 1280.75 Q1967.18 1274.38 1970.61 1270.66 Q1974.06 1266.91 1979.89 1266.91 Q1985.12 1266.91 1988.15 1270.29 Q1991.21 1273.64 1991.21 1279.43 M1986.95 1278.18 Q1986.9 1274.68 1984.98 1272.6 Q1983.08 1270.52 1979.93 1270.52 Q1976.37 1270.52 1974.22 1272.53 Q1972.09 1274.54 1971.76 1278.2 L1986.95 1278.18 Z" fill="#000000" fill-rule="evenodd" fill-opacity="1" /><path clip-path="url(#clip750)" d="M2020.37 1279.43 L2020.37 1281.51 L2000.79 1281.51 Q2001.07 1285.91 2003.43 1288.22 Q2005.81 1290.52 2010.05 1290.52 Q2012.5 1290.52 2014.8 1289.91 Q2017.11 1289.31 2019.38 1288.11 L2019.38 1292.14 Q2017.09 1293.11 2014.68 1293.62 Q2012.27 1294.13 2009.8 1294.13 Q2003.59 1294.13 1999.96 1290.52 Q1996.35 1286.91 1996.35 1280.75 Q1996.35 1274.38 1999.77 1270.66 Q2003.22 1266.91 2009.05 1266.91 Q2014.29 1266.91 2017.32 1270.29 Q2020.37 1273.64 2020.37 1279.43 M2016.12 1278.18 Q2016.07 1274.68 2014.15 1272.6 Q2012.25 1270.52 2009.1 1270.52 Q2005.54 1270.52 2003.38 1272.53 Q2001.25 1274.54 2000.93 1278.2 L2016.12 1278.18 Z" fill="#000000" fill-rule="evenodd" fill-opacity="1" /><path clip-path="url(#clip750)" d="M2044.43 1271.47 L2044.43 1257.44 L2048.68 1257.44 L2048.68 1293.46 L2044.43 1293.46 L2044.43 1289.57 Q2043.08 1291.88 2041.02 1293.02 Q2038.99 1294.13 2036.11 1294.13 Q2031.42 1294.13 2028.45 1290.38 Q2025.51 1286.63 2025.51 1280.52 Q2025.51 1274.41 2028.45 1270.66 Q2031.42 1266.91 2036.11 1266.91 Q2038.99 1266.91 2041.02 1268.04 Q2043.08 1269.15 2044.43 1271.47 M2029.91 1280.52 Q2029.91 1285.22 2031.83 1287.9 Q2033.78 1290.56 2037.16 1290.56 Q2040.54 1290.56 2042.48 1287.9 Q2044.43 1285.22 2044.43 1280.52 Q2044.43 1275.82 2042.48 1273.16 Q2040.54 1270.47 2037.16 1270.47 Q2033.78 1270.47 2031.83 1273.16 Q2029.91 1275.82 2029.91 1280.52 Z" fill="#000000" fill-rule="evenodd" fill-opacity="1" /><path clip-path="url(#clip750)" d="M2068.24 1295.86 Q2066.44 1300.49 2064.73 1301.91 Q2063.01 1303.32 2060.14 1303.32 L2056.74 1303.32 L2056.74 1299.75 L2059.24 1299.75 Q2061 1299.75 2061.97 1298.92 Q2062.94 1298.09 2064.12 1294.98 L2064.89 1293.04 L2054.4 1267.53 L2058.92 1267.53 L2067.02 1287.81 L2075.12 1267.53 L2079.63 1267.53 L2068.24 1295.86 Z" fill="#000000" fill-rule="evenodd" fill-opacity="1" /><path clip-path="url(#clip750)" d="M2104.7 1289.57 L2104.7 1303.32 L2100.42 1303.32 L2100.42 1267.53 L2104.7 1267.53 L2104.7 1271.47 Q2106.05 1269.15 2108.08 1268.04 Q2110.14 1266.91 2112.99 1266.91 Q2117.71 1266.91 2120.65 1270.66 Q2123.61 1274.41 2123.61 1280.52 Q2123.61 1286.63 2120.65 1290.38 Q2117.71 1294.13 2112.99 1294.13 Q2110.14 1294.13 2108.08 1293.02 Q2106.05 1291.88 2104.7 1289.57 M2119.19 1280.52 Q2119.19 1275.82 2117.25 1273.16 Q2115.33 1270.47 2111.95 1270.47 Q2108.57 1270.47 2106.62 1273.16 Q2104.7 1275.82 2104.7 1280.52 Q2104.7 1285.22 2106.62 1287.9 Q2108.57 1290.56 2111.95 1290.56 Q2115.33 1290.56 2117.25 1287.9 Q2119.19 1285.22 2119.19 1280.52 Z" fill="#000000" fill-rule="evenodd" fill-opacity="1" /><path clip-path="url(#clip750)" d="M2140.72 1270.52 Q2137.29 1270.52 2135.3 1273.2 Q2133.31 1275.86 2133.31 1280.52 Q2133.31 1285.17 2135.28 1287.85 Q2137.27 1290.52 2140.72 1290.52 Q2144.12 1290.52 2146.11 1287.83 Q2148.11 1285.15 2148.11 1280.52 Q2148.11 1275.91 2146.11 1273.22 Q2144.12 1270.52 2140.72 1270.52 M2140.72 1266.91 Q2146.28 1266.91 2149.45 1270.52 Q2152.62 1274.13 2152.62 1280.52 Q2152.62 1286.88 2149.45 1290.52 Q2146.28 1294.13 2140.72 1294.13 Q2135.14 1294.13 2131.97 1290.52 Q2128.82 1286.88 2128.82 1280.52 Q2128.82 1274.13 2131.97 1270.52 Q2135.14 1266.91 2140.72 1266.91 Z" fill="#000000" fill-rule="evenodd" fill-opacity="1" /><path clip-path="url(#clip750)" d="M2159.68 1257.44 L2163.94 1257.44 L2163.94 1293.46 L2159.68 1293.46 L2159.68 1257.44 Z" fill="#000000" fill-rule="evenodd" fill-opacity="1" /><path clip-path="url(#clip750)" d="M2172.85 1267.53 L2177.11 1267.53 L2177.11 1293.46 L2172.85 1293.46 L2172.85 1267.53 M2172.85 1257.44 L2177.11 1257.44 L2177.11 1262.83 L2172.85 1262.83 L2172.85 1257.44 Z" fill="#000000" fill-rule="evenodd" fill-opacity="1" /><path clip-path="url(#clip750)" d="M2204.68 1268.53 L2204.68 1272.51 Q2202.87 1271.51 2201.04 1271.03 Q2199.24 1270.52 2197.39 1270.52 Q2193.24 1270.52 2190.95 1273.16 Q2188.66 1275.77 2188.66 1280.52 Q2188.66 1285.26 2190.95 1287.9 Q2193.24 1290.52 2197.39 1290.52 Q2199.24 1290.52 2201.04 1290.03 Q2202.87 1289.52 2204.68 1288.53 L2204.68 1292.46 Q2202.9 1293.29 2200.98 1293.71 Q2199.08 1294.13 2196.92 1294.13 Q2191.07 1294.13 2187.62 1290.45 Q2184.17 1286.77 2184.17 1280.52 Q2184.17 1274.17 2187.64 1270.54 Q2191.14 1266.91 2197.2 1266.91 Q2199.17 1266.91 2201.04 1267.32 Q2202.92 1267.72 2204.68 1268.53 Z" fill="#000000" fill-rule="evenodd" fill-opacity="1" /><path clip-path="url(#clip750)" d="M2222.87 1295.86 Q2221.07 1300.49 2219.35 1301.91 Q2217.64 1303.32 2214.77 1303.32 L2211.37 1303.32 L2211.37 1299.75 L2213.87 1299.75 Q2215.63 1299.75 2216.6 1298.92 Q2217.57 1298.09 2218.75 1294.98 L2219.52 1293.04 L2209.03 1267.53 L2213.54 1267.53 L2221.65 1287.81 L2229.75 1267.53 L2234.26 1267.53 L2222.87 1295.86 Z" fill="#000000" fill-rule="evenodd" fill-opacity="1" /><polyline clip-path="url(#clip750)" style="stroke:#000000; stroke-linecap:butt; stroke-linejoin:round; stroke-width:4; stroke-opacity:1; fill:none" points="
  1746.15,1328.02 1888.34,1328.02 
  "/>
<path clip-path="url(#clip750)" d="M1923.99 1313.81 Q1920.37 1313.81 1918.55 1317.38 Q1916.74 1320.92 1916.74 1328.05 Q1916.74 1335.16 1918.55 1338.72 Q1920.37 1342.26 1923.99 1342.26 Q1927.62 1342.26 1929.43 1338.72 Q1931.25 1335.16 1931.25 1328.05 Q1931.25 1320.92 1929.43 1317.38 Q1927.62 1313.81 1923.99 1313.81 M1923.99 1310.11 Q1929.8 1310.11 1932.85 1314.72 Q1935.93 1319.3 1935.93 1328.05 Q1935.93 1336.78 1932.85 1341.38 Q1929.8 1345.97 1923.99 1345.97 Q1918.18 1345.97 1915.1 1341.38 Q1912.04 1336.78 1912.04 1328.05 Q1912.04 1319.3 1915.1 1314.72 Q1918.18 1310.11 1923.99 1310.11 Z" fill="#000000" fill-rule="evenodd" fill-opacity="1" /><path clip-path="url(#clip750)" d="M1944.15 1339.42 L1949.03 1339.42 L1949.03 1345.3 L1944.15 1345.3 L1944.15 1339.42 Z" fill="#000000" fill-rule="evenodd" fill-opacity="1" /><path clip-path="url(#clip750)" d="M1959.26 1310.74 L1977.62 1310.74 L1977.62 1314.67 L1963.55 1314.67 L1963.55 1323.14 Q1964.56 1322.8 1965.58 1322.63 Q1966.6 1322.45 1967.62 1322.45 Q1973.41 1322.45 1976.79 1325.62 Q1980.17 1328.79 1980.17 1334.21 Q1980.17 1339.79 1976.69 1342.89 Q1973.22 1345.97 1966.9 1345.97 Q1964.73 1345.97 1962.46 1345.6 Q1960.21 1345.23 1957.81 1344.49 L1957.81 1339.79 Q1959.89 1340.92 1962.11 1341.48 Q1964.33 1342.03 1966.81 1342.03 Q1970.81 1342.03 1973.15 1339.93 Q1975.49 1337.82 1975.49 1334.21 Q1975.49 1330.6 1973.15 1328.49 Q1970.81 1326.38 1966.81 1326.38 Q1964.93 1326.38 1963.06 1326.8 Q1961.21 1327.22 1959.26 1328.1 L1959.26 1310.74 Z" fill="#000000" fill-rule="evenodd" fill-opacity="1" /></svg>
