<?xml version="1.0" encoding="utf-8"?>
<svg xmlns="http://www.w3.org/2000/svg" xmlns:xlink="http://www.w3.org/1999/xlink" width="600" height="400" viewBox="0 0 2400 1600">
<defs>
  <clipPath id="clip490">
    <rect x="0" y="0" width="2400" height="1600"/>
  </clipPath>
</defs>
<path clip-path="url(#clip490)" d="
M0 1600 L2400 1600 L2400 0 L0 0  Z
  " fill="#ffffff" fill-rule="evenodd" fill-opacity="1"/>
<defs>
  <clipPath id="clip491">
    <rect x="480" y="0" width="1681" height="1600"/>
  </clipPath>
</defs>
<path clip-path="url(#clip490)" d="
M219.866 1423.18 L2352.76 1423.18 L2352.76 123.472 L219.866 123.472  Z
  " fill="#ffffff" fill-rule="evenodd" fill-opacity="1"/>
<defs>
  <clipPath id="clip492">
    <rect x="219" y="123" width="2134" height="1301"/>
  </clipPath>
</defs>
<polyline clip-path="url(#clip492)" style="stroke:#000000; stroke-linecap:butt; stroke-linejoin:round; stroke-width:2; stroke-opacity:0.1; fill:none" points="
  270.12,1423.18 270.12,123.472 
  "/>
<polyline clip-path="url(#clip492)" style="stroke:#000000; stroke-linecap:butt; stroke-linejoin:round; stroke-width:2; stroke-opacity:0.1; fill:none" points="
  775.688,1423.18 775.688,123.472 
  "/>
<polyline clip-path="url(#clip492)" style="stroke:#000000; stroke-linecap:butt; stroke-linejoin:round; stroke-width:2; stroke-opacity:0.1; fill:none" points="
  1281.26,1423.18 1281.26,123.472 
  "/>
<polyline clip-path="url(#clip492)" style="stroke:#000000; stroke-linecap:butt; stroke-linejoin:round; stroke-width:2; stroke-opacity:0.1; fill:none" points="
  1786.82,1423.18 1786.82,123.472 
  "/>
<polyline clip-path="url(#clip492)" style="stroke:#000000; stroke-linecap:butt; stroke-linejoin:round; stroke-width:2; stroke-opacity:0.1; fill:none" points="
  2292.39,1423.18 2292.39,123.472 
  "/>
<polyline clip-path="url(#clip490)" style="stroke:#000000; stroke-linecap:butt; stroke-linejoin:round; stroke-width:4; stroke-opacity:1; fill:none" points="
  219.866,1423.18 2352.76,1423.18 
  "/>
<polyline clip-path="url(#clip490)" style="stroke:#000000; stroke-linecap:butt; stroke-linejoin:round; stroke-width:4; stroke-opacity:1; fill:none" points="
  270.12,1423.18 270.12,1407.58 
  "/>
<polyline clip-path="url(#clip490)" style="stroke:#000000; stroke-linecap:butt; stroke-linejoin:round; stroke-width:4; stroke-opacity:1; fill:none" points="
  775.688,1423.18 775.688,1407.58 
  "/>
<polyline clip-path="url(#clip490)" style="stroke:#000000; stroke-linecap:butt; stroke-linejoin:round; stroke-width:4; stroke-opacity:1; fill:none" points="
  1281.26,1423.18 1281.26,1407.58 
  "/>
<polyline clip-path="url(#clip490)" style="stroke:#000000; stroke-linecap:butt; stroke-linejoin:round; stroke-width:4; stroke-opacity:1; fill:none" points="
  1786.82,1423.18 1786.82,1407.58 
  "/>
<polyline clip-path="url(#clip490)" style="stroke:#000000; stroke-linecap:butt; stroke-linejoin:round; stroke-width:4; stroke-opacity:1; fill:none" points="
  2292.39,1423.18 2292.39,1407.58 
  "/>
<path clip-path="url(#clip490)" d="M270.12 1452.37 Q266.509 1452.37 264.68 1455.94 Q262.874 1459.48 262.874 1466.61 Q262.874 1473.71 264.68 1477.28 Q266.509 1480.82 270.12 1480.82 Q273.754 1480.82 275.559 1477.28 Q277.388 1473.71 277.388 1466.61 Q277.388 1459.48 275.559 1455.94 Q273.754 1452.37 270.12 1452.37 M270.12 1448.67 Q275.93 1448.67 278.985 1453.27 Q282.064 1457.86 282.064 1466.61 Q282.064 1475.33 278.985 1479.94 Q275.93 1484.52 270.12 1484.52 Q264.31 1484.52 261.231 1479.94 Q258.175 1475.33 258.175 1466.61 Q258.175 1457.86 261.231 1453.27 Q264.31 1448.67 270.12 1448.67 Z" fill="#000000" fill-rule="evenodd" fill-opacity="1" /><path clip-path="url(#clip490)" d="M750.387 1449.29 L768.743 1449.29 L768.743 1453.23 L754.669 1453.23 L754.669 1461.7 Q755.688 1461.35 756.706 1461.19 Q757.725 1461 758.743 1461 Q764.53 1461 767.91 1464.18 Q771.289 1467.35 771.289 1472.76 Q771.289 1478.34 767.817 1481.44 Q764.345 1484.52 758.026 1484.52 Q755.85 1484.52 753.581 1484.15 Q751.336 1483.78 748.928 1483.04 L748.928 1478.34 Q751.012 1479.48 753.234 1480.03 Q755.456 1480.59 757.933 1480.59 Q761.938 1480.59 764.276 1478.48 Q766.614 1476.38 766.614 1472.76 Q766.614 1469.15 764.276 1467.05 Q761.938 1464.94 757.933 1464.94 Q756.058 1464.94 754.183 1465.36 Q752.331 1465.77 750.387 1466.65 L750.387 1449.29 Z" fill="#000000" fill-rule="evenodd" fill-opacity="1" /><path clip-path="url(#clip490)" d="M790.502 1452.37 Q786.891 1452.37 785.063 1455.94 Q783.257 1459.48 783.257 1466.61 Q783.257 1473.71 785.063 1477.28 Q786.891 1480.82 790.502 1480.82 Q794.137 1480.82 795.942 1477.28 Q797.771 1473.71 797.771 1466.61 Q797.771 1459.48 795.942 1455.94 Q794.137 1452.37 790.502 1452.37 M790.502 1448.67 Q796.312 1448.67 799.368 1453.27 Q802.447 1457.86 802.447 1466.61 Q802.447 1475.33 799.368 1479.94 Q796.312 1484.52 790.502 1484.52 Q784.692 1484.52 781.613 1479.94 Q778.558 1475.33 778.558 1466.61 Q778.558 1457.86 781.613 1453.27 Q784.692 1448.67 790.502 1448.67 Z" fill="#000000" fill-rule="evenodd" fill-opacity="1" /><path clip-path="url(#clip490)" d="M1240.86 1479.92 L1248.5 1479.92 L1248.5 1453.55 L1240.19 1455.22 L1240.19 1450.96 L1248.45 1449.29 L1253.13 1449.29 L1253.13 1479.92 L1260.77 1479.92 L1260.77 1483.85 L1240.86 1483.85 L1240.86 1479.92 Z" fill="#000000" fill-rule="evenodd" fill-opacity="1" /><path clip-path="url(#clip490)" d="M1280.21 1452.37 Q1276.6 1452.37 1274.77 1455.94 Q1272.97 1459.48 1272.97 1466.61 Q1272.97 1473.71 1274.77 1477.28 Q1276.6 1480.82 1280.21 1480.82 Q1283.85 1480.82 1285.65 1477.28 Q1287.48 1473.71 1287.48 1466.61 Q1287.48 1459.48 1285.65 1455.94 Q1283.85 1452.37 1280.21 1452.37 M1280.21 1448.67 Q1286.02 1448.67 1289.08 1453.27 Q1292.16 1457.86 1292.16 1466.61 Q1292.16 1475.33 1289.08 1479.94 Q1286.02 1484.52 1280.21 1484.52 Q1274.4 1484.52 1271.32 1479.94 Q1268.27 1475.33 1268.27 1466.61 Q1268.27 1457.86 1271.32 1453.27 Q1274.4 1448.67 1280.21 1448.67 Z" fill="#000000" fill-rule="evenodd" fill-opacity="1" /><path clip-path="url(#clip490)" d="M1310.38 1452.37 Q1306.76 1452.37 1304.94 1455.94 Q1303.13 1459.48 1303.13 1466.61 Q1303.13 1473.71 1304.94 1477.28 Q1306.76 1480.82 1310.38 1480.82 Q1314.01 1480.82 1315.82 1477.28 Q1317.64 1473.71 1317.64 1466.61 Q1317.64 1459.48 1315.82 1455.94 Q1314.01 1452.37 1310.38 1452.37 M1310.38 1448.67 Q1316.19 1448.67 1319.24 1453.27 Q1322.32 1457.86 1322.32 1466.61 Q1322.32 1475.33 1319.24 1479.94 Q1316.19 1484.52 1310.38 1484.52 Q1304.57 1484.52 1301.49 1479.94 Q1298.43 1475.33 1298.43 1466.61 Q1298.43 1457.86 1301.49 1453.27 Q1304.57 1448.67 1310.38 1448.67 Z" fill="#000000" fill-rule="evenodd" fill-opacity="1" /><path clip-path="url(#clip490)" d="M1746.43 1479.92 L1754.07 1479.92 L1754.07 1453.55 L1745.76 1455.22 L1745.76 1450.96 L1754.02 1449.29 L1758.7 1449.29 L1758.7 1479.92 L1766.34 1479.92 L1766.34 1483.85 L1746.43 1483.85 L1746.43 1479.92 Z" fill="#000000" fill-rule="evenodd" fill-opacity="1" /><path clip-path="url(#clip490)" d="M1775.83 1449.29 L1794.18 1449.29 L1794.18 1453.23 L1780.11 1453.23 L1780.11 1461.7 Q1781.13 1461.35 1782.15 1461.19 Q1783.17 1461 1784.18 1461 Q1789.97 1461 1793.35 1464.18 Q1796.73 1467.35 1796.73 1472.76 Q1796.73 1478.34 1793.26 1481.44 Q1789.79 1484.52 1783.47 1484.52 Q1781.29 1484.52 1779.02 1484.15 Q1776.78 1483.78 1774.37 1483.04 L1774.37 1478.34 Q1776.45 1479.48 1778.68 1480.03 Q1780.9 1480.59 1783.37 1480.59 Q1787.38 1480.59 1789.72 1478.48 Q1792.05 1476.38 1792.05 1472.76 Q1792.05 1469.15 1789.72 1467.05 Q1787.38 1464.94 1783.37 1464.94 Q1781.5 1464.94 1779.62 1465.36 Q1777.77 1465.77 1775.83 1466.65 L1775.83 1449.29 Z" fill="#000000" fill-rule="evenodd" fill-opacity="1" /><path clip-path="url(#clip490)" d="M1815.94 1452.37 Q1812.33 1452.37 1810.5 1455.94 Q1808.7 1459.48 1808.7 1466.61 Q1808.7 1473.71 1810.5 1477.28 Q1812.33 1480.82 1815.94 1480.82 Q1819.58 1480.82 1821.38 1477.28 Q1823.21 1473.71 1823.21 1466.61 Q1823.21 1459.48 1821.38 1455.94 Q1819.58 1452.37 1815.94 1452.37 M1815.94 1448.67 Q1821.75 1448.67 1824.81 1453.27 Q1827.89 1457.86 1827.89 1466.61 Q1827.89 1475.33 1824.81 1479.94 Q1821.75 1484.52 1815.94 1484.52 Q1810.13 1484.52 1807.05 1479.94 Q1804 1475.33 1804 1466.61 Q1804 1457.86 1807.05 1453.27 Q1810.13 1448.67 1815.94 1448.67 Z" fill="#000000" fill-rule="evenodd" fill-opacity="1" /><path clip-path="url(#clip490)" d="M2256.08 1479.92 L2272.4 1479.92 L2272.4 1483.85 L2250.46 1483.85 L2250.46 1479.92 Q2253.12 1477.16 2257.7 1472.53 Q2262.31 1467.88 2263.49 1466.54 Q2265.74 1464.01 2266.62 1462.28 Q2267.52 1460.52 2267.52 1458.83 Q2267.52 1456.07 2265.57 1454.34 Q2263.65 1452.6 2260.55 1452.6 Q2258.35 1452.6 2255.9 1453.37 Q2253.47 1454.13 2250.69 1455.68 L2250.69 1450.96 Q2253.51 1449.82 2255.97 1449.25 Q2258.42 1448.67 2260.46 1448.67 Q2265.83 1448.67 2269.02 1451.35 Q2272.22 1454.04 2272.22 1458.53 Q2272.22 1460.66 2271.41 1462.58 Q2270.62 1464.48 2268.51 1467.07 Q2267.94 1467.74 2264.83 1470.96 Q2261.73 1474.15 2256.08 1479.92 Z" fill="#000000" fill-rule="evenodd" fill-opacity="1" /><path clip-path="url(#clip490)" d="M2292.22 1452.37 Q2288.61 1452.37 2286.78 1455.94 Q2284.97 1459.48 2284.97 1466.61 Q2284.97 1473.71 2286.78 1477.28 Q2288.61 1480.82 2292.22 1480.82 Q2295.85 1480.82 2297.66 1477.28 Q2299.49 1473.71 2299.49 1466.61 Q2299.49 1459.48 2297.66 1455.94 Q2295.85 1452.37 2292.22 1452.37 M2292.22 1448.67 Q2298.03 1448.67 2301.08 1453.27 Q2304.16 1457.86 2304.16 1466.61 Q2304.16 1475.33 2301.08 1479.94 Q2298.03 1484.52 2292.22 1484.52 Q2286.41 1484.52 2283.33 1479.94 Q2280.27 1475.33 2280.27 1466.61 Q2280.27 1457.86 2283.33 1453.27 Q2286.41 1448.67 2292.22 1448.67 Z" fill="#000000" fill-rule="evenodd" fill-opacity="1" /><path clip-path="url(#clip490)" d="M2322.38 1452.37 Q2318.77 1452.37 2316.94 1455.94 Q2315.13 1459.48 2315.13 1466.61 Q2315.13 1473.71 2316.94 1477.28 Q2318.77 1480.82 2322.38 1480.82 Q2326.01 1480.82 2327.82 1477.28 Q2329.65 1473.71 2329.65 1466.61 Q2329.65 1459.48 2327.82 1455.94 Q2326.01 1452.37 2322.38 1452.37 M2322.38 1448.67 Q2328.19 1448.67 2331.25 1453.27 Q2334.32 1457.86 2334.32 1466.61 Q2334.32 1475.33 2331.25 1479.94 Q2328.19 1484.52 2322.38 1484.52 Q2316.57 1484.52 2313.49 1479.94 Q2310.43 1475.33 2310.43 1466.61 Q2310.43 1457.86 2313.49 1453.27 Q2316.57 1448.67 2322.38 1448.67 Z" fill="#000000" fill-rule="evenodd" fill-opacity="1" /><path clip-path="url(#clip490)" d="M1094.94 1520.52 L1124.99 1520.52 L1124.99 1525.93 L1101.37 1525.93 L1101.37 1540 L1124 1540 L1124 1545.41 L1101.37 1545.41 L1101.37 1562.63 L1125.56 1562.63 L1125.56 1568.04 L1094.94 1568.04 L1094.94 1520.52 Z" fill="#000000" fill-rule="evenodd" fill-opacity="1" /><path clip-path="url(#clip490)" d="M1141.54 1562.7 L1141.54 1581.6 L1135.65 1581.6 L1135.65 1532.4 L1141.54 1532.4 L1141.54 1537.81 Q1143.39 1534.62 1146.19 1533.1 Q1149.02 1531.54 1152.93 1531.54 Q1159.43 1531.54 1163.47 1536.69 Q1167.54 1541.85 1167.54 1550.25 Q1167.54 1558.65 1163.47 1563.81 Q1159.43 1568.97 1152.93 1568.97 Q1149.02 1568.97 1146.19 1567.44 Q1143.39 1565.88 1141.54 1562.7 M1161.46 1550.25 Q1161.46 1543.79 1158.79 1540.13 Q1156.15 1536.44 1151.5 1536.44 Q1146.85 1536.44 1144.18 1540.13 Q1141.54 1543.79 1141.54 1550.25 Q1141.54 1556.71 1144.18 1560.4 Q1146.85 1564.07 1151.5 1564.07 Q1156.15 1564.07 1158.79 1560.4 Q1161.46 1556.71 1161.46 1550.25 Z" fill="#000000" fill-rule="evenodd" fill-opacity="1" /><path clip-path="url(#clip490)" d="M1177.25 1532.4 L1183.11 1532.4 L1183.11 1568.04 L1177.25 1568.04 L1177.25 1532.4 M1177.25 1518.52 L1183.11 1518.52 L1183.11 1525.93 L1177.25 1525.93 L1177.25 1518.52 Z" fill="#000000" fill-rule="evenodd" fill-opacity="1" /><path clip-path="url(#clip490)" d="M1218.09 1533.45 L1218.09 1538.98 Q1215.6 1537.71 1212.93 1537.07 Q1210.26 1536.44 1207.39 1536.44 Q1203.03 1536.44 1200.84 1537.77 Q1198.67 1539.11 1198.67 1541.79 Q1198.67 1543.82 1200.23 1545 Q1201.79 1546.15 1206.5 1547.2 L1208.51 1547.64 Q1214.74 1548.98 1217.35 1551.43 Q1220 1553.85 1220 1558.21 Q1220 1563.17 1216.05 1566.07 Q1212.13 1568.97 1205.26 1568.97 Q1202.4 1568.97 1199.28 1568.39 Q1196.19 1567.85 1192.75 1566.74 L1192.75 1560.69 Q1196 1562.38 1199.15 1563.24 Q1202.3 1564.07 1205.39 1564.07 Q1209.52 1564.07 1211.75 1562.66 Q1213.98 1561.23 1213.98 1558.65 Q1213.98 1556.27 1212.36 1554.99 Q1210.77 1553.72 1205.32 1552.54 L1203.29 1552.07 Q1197.84 1550.92 1195.42 1548.56 Q1193.01 1546.18 1193.01 1542.04 Q1193.01 1537.01 1196.57 1534.27 Q1200.14 1531.54 1206.69 1531.54 Q1209.94 1531.54 1212.8 1532.01 Q1215.67 1532.49 1218.09 1533.45 Z" fill="#000000" fill-rule="evenodd" fill-opacity="1" /><path clip-path="url(#clip490)" d="M1243.14 1536.5 Q1238.43 1536.5 1235.69 1540.19 Q1232.95 1543.85 1232.95 1550.25 Q1232.95 1556.65 1235.66 1560.34 Q1238.39 1564 1243.14 1564 Q1247.81 1564 1250.55 1560.31 Q1253.29 1556.62 1253.29 1550.25 Q1253.29 1543.92 1250.55 1540.23 Q1247.81 1536.5 1243.14 1536.5 M1243.14 1531.54 Q1250.77 1531.54 1255.14 1536.5 Q1259.5 1541.47 1259.5 1550.25 Q1259.5 1559 1255.14 1564 Q1250.77 1568.97 1243.14 1568.97 Q1235.47 1568.97 1231.1 1564 Q1226.78 1559 1226.78 1550.25 Q1226.78 1541.47 1231.1 1536.5 Q1235.47 1531.54 1243.14 1531.54 Z" fill="#000000" fill-rule="evenodd" fill-opacity="1" /><path clip-path="url(#clip490)" d="M1292.66 1537.81 L1292.66 1518.52 L1298.52 1518.52 L1298.52 1568.04 L1292.66 1568.04 L1292.66 1562.7 Q1290.81 1565.88 1287.98 1567.44 Q1285.18 1568.97 1281.23 1568.97 Q1274.77 1568.97 1270.7 1563.81 Q1266.66 1558.65 1266.66 1550.25 Q1266.66 1541.85 1270.7 1536.69 Q1274.77 1531.54 1281.23 1531.54 Q1285.18 1531.54 1287.98 1533.1 Q1290.81 1534.62 1292.66 1537.81 M1272.7 1550.25 Q1272.7 1556.71 1275.35 1560.4 Q1278.02 1564.07 1282.67 1564.07 Q1287.31 1564.07 1289.99 1560.4 Q1292.66 1556.71 1292.66 1550.25 Q1292.66 1543.79 1289.99 1540.13 Q1287.31 1536.44 1282.67 1536.44 Q1278.02 1536.44 1275.35 1540.13 Q1272.7 1543.79 1272.7 1550.25 Z" fill="#000000" fill-rule="evenodd" fill-opacity="1" /><path clip-path="url(#clip490)" d="M1341.07 1548.76 L1341.07 1551.62 L1314.15 1551.62 Q1314.53 1557.67 1317.77 1560.85 Q1321.05 1564 1326.88 1564 Q1330.25 1564 1333.4 1563.17 Q1336.58 1562.35 1339.7 1560.69 L1339.7 1566.23 Q1336.55 1567.57 1333.24 1568.27 Q1329.93 1568.97 1326.53 1568.97 Q1318 1568.97 1313 1564 Q1308.03 1559.04 1308.03 1550.57 Q1308.03 1541.82 1312.74 1536.69 Q1317.49 1531.54 1325.51 1531.54 Q1332.7 1531.54 1336.87 1536.18 Q1341.07 1540.8 1341.07 1548.76 M1335.22 1547.04 Q1335.15 1542.23 1332.51 1539.37 Q1329.9 1536.5 1325.57 1536.5 Q1320.67 1536.5 1317.71 1539.27 Q1314.78 1542.04 1314.34 1547.07 L1335.22 1547.04 Z" fill="#000000" fill-rule="evenodd" fill-opacity="1" /><path clip-path="url(#clip490)" d="M1373.41 1533.45 L1373.41 1538.98 Q1370.93 1537.71 1368.25 1537.07 Q1365.58 1536.44 1362.72 1536.44 Q1358.35 1536.44 1356.16 1537.77 Q1353.99 1539.11 1353.99 1541.79 Q1353.99 1543.82 1355.55 1545 Q1357.11 1546.15 1361.82 1547.2 L1363.83 1547.64 Q1370.07 1548.98 1372.68 1551.43 Q1375.32 1553.85 1375.32 1558.21 Q1375.32 1563.17 1371.37 1566.07 Q1367.46 1568.97 1360.58 1568.97 Q1357.72 1568.97 1354.6 1568.39 Q1351.51 1567.85 1348.07 1566.74 L1348.07 1560.69 Q1351.32 1562.38 1354.47 1563.24 Q1357.62 1564.07 1360.71 1564.07 Q1364.85 1564.07 1367.08 1562.66 Q1369.3 1561.23 1369.3 1558.65 Q1369.3 1556.27 1367.68 1554.99 Q1366.09 1553.72 1360.65 1552.54 L1358.61 1552.07 Q1353.17 1550.92 1350.75 1548.56 Q1348.33 1546.18 1348.33 1542.04 Q1348.33 1537.01 1351.89 1534.27 Q1355.46 1531.54 1362.02 1531.54 Q1365.26 1531.54 1368.13 1532.01 Q1370.99 1532.49 1373.41 1533.45 Z" fill="#000000" fill-rule="evenodd" fill-opacity="1" /><path clip-path="url(#clip490)" d="M1415.77 1520.52 L1421.18 1520.52 L1404.63 1574.09 L1399.22 1574.09 L1415.77 1520.52 Z" fill="#000000" fill-rule="evenodd" fill-opacity="1" /><path clip-path="url(#clip490)" d="M1448.94 1520.52 L1474.18 1520.52 L1474.18 1525.93 L1454.83 1525.93 L1454.83 1537.58 Q1456.23 1537.11 1457.63 1536.88 Q1459.03 1536.63 1460.43 1536.63 Q1468.39 1536.63 1473.03 1540.99 Q1477.68 1545.35 1477.68 1552.8 Q1477.68 1560.47 1472.91 1564.73 Q1468.13 1568.97 1459.44 1568.97 Q1456.45 1568.97 1453.33 1568.46 Q1450.24 1567.95 1446.93 1566.93 L1446.93 1560.47 Q1449.8 1562.03 1452.85 1562.79 Q1455.91 1563.56 1459.32 1563.56 Q1464.82 1563.56 1468.04 1560.66 Q1471.25 1557.76 1471.25 1552.8 Q1471.25 1547.83 1468.04 1544.94 Q1464.82 1542.04 1459.32 1542.04 Q1456.74 1542.04 1454.16 1542.61 Q1451.61 1543.19 1448.94 1544.4 L1448.94 1520.52 Z" fill="#000000" fill-rule="evenodd" fill-opacity="1" /><polyline clip-path="url(#clip492)" style="stroke:#000000; stroke-linecap:butt; stroke-linejoin:round; stroke-width:2; stroke-opacity:0.1; fill:none" points="
  219.866,1108.81 2352.76,1108.81 
  "/>
<polyline clip-path="url(#clip492)" style="stroke:#000000; stroke-linecap:butt; stroke-linejoin:round; stroke-width:2; stroke-opacity:0.1; fill:none" points="
  219.866,792.623 2352.76,792.623 
  "/>
<polyline clip-path="url(#clip492)" style="stroke:#000000; stroke-linecap:butt; stroke-linejoin:round; stroke-width:2; stroke-opacity:0.1; fill:none" points="
  219.866,476.44 2352.76,476.44 
  "/>
<polyline clip-path="url(#clip492)" style="stroke:#000000; stroke-linecap:butt; stroke-linejoin:round; stroke-width:2; stroke-opacity:0.1; fill:none" points="
  219.866,160.256 2352.76,160.256 
  "/>
<polyline clip-path="url(#clip490)" style="stroke:#000000; stroke-linecap:butt; stroke-linejoin:round; stroke-width:4; stroke-opacity:1; fill:none" points="
  219.866,1423.18 219.866,123.472 
  "/>
<polyline clip-path="url(#clip490)" style="stroke:#000000; stroke-linecap:butt; stroke-linejoin:round; stroke-width:4; stroke-opacity:1; fill:none" points="
  219.866,1108.81 245.461,1108.81 
  "/>
<polyline clip-path="url(#clip490)" style="stroke:#000000; stroke-linecap:butt; stroke-linejoin:round; stroke-width:4; stroke-opacity:1; fill:none" points="
  219.866,792.623 245.461,792.623 
  "/>
<polyline clip-path="url(#clip490)" style="stroke:#000000; stroke-linecap:butt; stroke-linejoin:round; stroke-width:4; stroke-opacity:1; fill:none" points="
  219.866,476.44 245.461,476.44 
  "/>
<polyline clip-path="url(#clip490)" style="stroke:#000000; stroke-linecap:butt; stroke-linejoin:round; stroke-width:4; stroke-opacity:1; fill:none" points="
  219.866,160.256 245.461,160.256 
  "/>
<path clip-path="url(#clip490)" d="M126.205 1094.6 Q122.593 1094.6 120.765 1098.17 Q118.959 1101.71 118.959 1108.84 Q118.959 1115.95 120.765 1119.51 Q122.593 1123.05 126.205 1123.05 Q129.839 1123.05 131.644 1119.51 Q133.473 1115.95 133.473 1108.84 Q133.473 1101.71 131.644 1098.17 Q129.839 1094.6 126.205 1094.6 M126.205 1090.9 Q132.015 1090.9 135.07 1095.51 Q138.149 1100.09 138.149 1108.84 Q138.149 1117.57 135.07 1122.17 Q132.015 1126.76 126.205 1126.76 Q120.394 1126.76 117.316 1122.17 Q114.26 1117.57 114.26 1108.84 Q114.26 1100.09 117.316 1095.51 Q120.394 1090.9 126.205 1090.9 Z" fill="#000000" fill-rule="evenodd" fill-opacity="1" /><path clip-path="url(#clip490)" d="M146.366 1120.21 L151.251 1120.21 L151.251 1126.09 L146.366 1126.09 L146.366 1120.21 Z" fill="#000000" fill-rule="evenodd" fill-opacity="1" /><path clip-path="url(#clip490)" d="M174.283 1095.6 L162.477 1114.05 L174.283 1114.05 L174.283 1095.6 M173.056 1091.53 L178.936 1091.53 L178.936 1114.05 L183.866 1114.05 L183.866 1117.94 L178.936 1117.94 L178.936 1126.09 L174.283 1126.09 L174.283 1117.94 L158.681 1117.94 L158.681 1113.42 L173.056 1091.53 Z" fill="#000000" fill-rule="evenodd" fill-opacity="1" /><path clip-path="url(#clip490)" d="M126.529 778.422 Q122.918 778.422 121.089 781.986 Q119.283 785.528 119.283 792.658 Q119.283 799.764 121.089 803.329 Q122.918 806.871 126.529 806.871 Q130.163 806.871 131.968 803.329 Q133.797 799.764 133.797 792.658 Q133.797 785.528 131.968 781.986 Q130.163 778.422 126.529 778.422 M126.529 774.718 Q132.339 774.718 135.394 779.324 Q138.473 783.908 138.473 792.658 Q138.473 801.384 135.394 805.991 Q132.339 810.574 126.529 810.574 Q120.718 810.574 117.64 805.991 Q114.584 801.384 114.584 792.658 Q114.584 783.908 117.64 779.324 Q120.718 774.718 126.529 774.718 Z" fill="#000000" fill-rule="evenodd" fill-opacity="1" /><path clip-path="url(#clip490)" d="M146.691 804.023 L151.575 804.023 L151.575 809.903 L146.691 809.903 L146.691 804.023 Z" fill="#000000" fill-rule="evenodd" fill-opacity="1" /><path clip-path="url(#clip490)" d="M172.339 790.76 Q169.19 790.76 167.339 792.912 Q165.51 795.065 165.51 798.815 Q165.51 802.542 167.339 804.718 Q169.19 806.871 172.339 806.871 Q175.487 806.871 177.315 804.718 Q179.167 802.542 179.167 798.815 Q179.167 795.065 177.315 792.912 Q175.487 790.76 172.339 790.76 M181.621 776.107 L181.621 780.366 Q179.862 779.533 178.056 779.093 Q176.274 778.653 174.514 778.653 Q169.885 778.653 167.431 781.778 Q165.001 784.903 164.653 791.223 Q166.019 789.209 168.079 788.144 Q170.139 787.056 172.616 787.056 Q177.825 787.056 180.834 790.227 Q183.866 793.375 183.866 798.815 Q183.866 804.139 180.718 807.357 Q177.57 810.574 172.339 810.574 Q166.343 810.574 163.172 805.991 Q160.001 801.384 160.001 792.658 Q160.001 784.463 163.89 779.602 Q167.778 774.718 174.329 774.718 Q176.089 774.718 177.871 775.065 Q179.676 775.412 181.621 776.107 Z" fill="#000000" fill-rule="evenodd" fill-opacity="1" /><path clip-path="url(#clip490)" d="M126.783 462.238 Q123.172 462.238 121.343 465.803 Q119.538 469.345 119.538 476.474 Q119.538 483.581 121.343 487.146 Q123.172 490.687 126.783 490.687 Q130.417 490.687 132.223 487.146 Q134.052 483.581 134.052 476.474 Q134.052 469.345 132.223 465.803 Q130.417 462.238 126.783 462.238 M126.783 458.535 Q132.593 458.535 135.649 463.141 Q138.728 467.724 138.728 476.474 Q138.728 485.201 135.649 489.808 Q132.593 494.391 126.783 494.391 Q120.973 494.391 117.894 489.808 Q114.839 485.201 114.839 476.474 Q114.839 467.724 117.894 463.141 Q120.973 458.535 126.783 458.535 Z" fill="#000000" fill-rule="evenodd" fill-opacity="1" /><path clip-path="url(#clip490)" d="M146.945 487.84 L151.829 487.84 L151.829 493.72 L146.945 493.72 L146.945 487.84 Z" fill="#000000" fill-rule="evenodd" fill-opacity="1" /><path clip-path="url(#clip490)" d="M172.014 477.308 Q168.681 477.308 166.76 479.09 Q164.862 480.872 164.862 483.997 Q164.862 487.122 166.76 488.905 Q168.681 490.687 172.014 490.687 Q175.348 490.687 177.269 488.905 Q179.19 487.099 179.19 483.997 Q179.19 480.872 177.269 479.09 Q175.371 477.308 172.014 477.308 M167.339 475.317 Q164.329 474.576 162.64 472.516 Q160.973 470.456 160.973 467.493 Q160.973 463.349 163.913 460.942 Q166.876 458.535 172.014 458.535 Q177.176 458.535 180.116 460.942 Q183.056 463.349 183.056 467.493 Q183.056 470.456 181.366 472.516 Q179.7 474.576 176.714 475.317 Q180.093 476.104 181.968 478.396 Q183.866 480.687 183.866 483.997 Q183.866 489.021 180.788 491.706 Q177.732 494.391 172.014 494.391 Q166.297 494.391 163.218 491.706 Q160.163 489.021 160.163 483.997 Q160.163 480.687 162.061 478.396 Q163.959 476.104 167.339 475.317 M165.626 467.933 Q165.626 470.618 167.292 472.123 Q168.982 473.627 172.014 473.627 Q175.024 473.627 176.714 472.123 Q178.426 470.618 178.426 467.933 Q178.426 465.248 176.714 463.743 Q175.024 462.238 172.014 462.238 Q168.982 462.238 167.292 463.743 Q165.626 465.248 165.626 467.933 Z" fill="#000000" fill-rule="evenodd" fill-opacity="1" /><path clip-path="url(#clip490)" d="M117.501 173.601 L125.14 173.601 L125.14 147.236 L116.83 148.902 L116.83 144.643 L125.093 142.976 L129.769 142.976 L129.769 173.601 L137.408 173.601 L137.408 177.536 L117.501 177.536 L117.501 173.601 Z" fill="#000000" fill-rule="evenodd" fill-opacity="1" /><path clip-path="url(#clip490)" d="M146.853 171.657 L151.737 171.657 L151.737 177.536 L146.853 177.536 L146.853 171.657 Z" fill="#000000" fill-rule="evenodd" fill-opacity="1" /><path clip-path="url(#clip490)" d="M171.922 146.055 Q168.311 146.055 166.482 149.62 Q164.677 153.161 164.677 160.291 Q164.677 167.397 166.482 170.962 Q168.311 174.504 171.922 174.504 Q175.556 174.504 177.362 170.962 Q179.19 167.397 179.19 160.291 Q179.19 153.161 177.362 149.62 Q175.556 146.055 171.922 146.055 M171.922 142.351 Q177.732 142.351 180.788 146.958 Q183.866 151.541 183.866 160.291 Q183.866 169.018 180.788 173.624 Q177.732 178.208 171.922 178.208 Q166.112 178.208 163.033 173.624 Q159.978 169.018 159.978 160.291 Q159.978 151.541 163.033 146.958 Q166.112 142.351 171.922 142.351 Z" fill="#000000" fill-rule="evenodd" fill-opacity="1" /><path clip-path="url(#clip490)" d="M22.818 932.5 L46.4666 941.221 L46.4666 923.748 L22.818 932.5 M16.4842 936.129 L16.4842 928.84 L64.0042 910.73 L64.0042 917.414 L51.8138 921.742 L51.8138 943.163 L64.0042 947.492 L64.0042 954.271 L16.4842 936.129 Z" fill="#000000" fill-rule="evenodd" fill-opacity="1" /><path clip-path="url(#clip490)" d="M28.3562 912.067 L28.3562 905.86 L58.275 894.72 L28.3562 883.58 L28.3562 877.373 L64.0042 890.741 L64.0042 898.699 L28.3562 912.067 Z" fill="#000000" fill-rule="evenodd" fill-opacity="1" /><path clip-path="url(#clip490)" d="M45.7664 845.831 Q39.4007 845.831 35.8996 848.473 Q32.3984 851.083 32.3984 855.826 Q32.3984 860.536 35.8996 863.178 Q39.4007 865.788 45.7664 865.788 Q52.1003 865.788 55.6014 863.178 Q59.1026 860.536 59.1026 855.826 Q59.1026 851.083 55.6014 848.473 Q52.1003 845.831 45.7664 845.831 M59.58 839.975 Q68.683 839.975 73.1071 844.017 Q77.5631 848.059 77.5631 856.398 Q77.5631 859.486 77.0857 862.223 Q76.6401 864.96 75.6852 867.538 L69.9879 867.538 Q71.3884 864.96 72.0568 862.446 Q72.7252 859.931 72.7252 857.321 Q72.7252 851.561 69.7015 848.696 Q66.7096 845.831 60.6303 845.831 L57.7339 845.831 Q60.885 847.646 62.4446 850.478 Q64.0042 853.311 64.0042 857.258 Q64.0042 863.815 59.0071 867.825 Q54.01 871.835 45.7664 871.835 Q37.491 871.835 32.4939 867.825 Q27.4968 863.815 27.4968 857.258 Q27.4968 853.311 29.0564 850.478 Q30.616 847.646 33.7671 845.831 L28.3562 845.831 L28.3562 839.975 L59.58 839.975 Z" fill="#000000" fill-rule="evenodd" fill-opacity="1" /><path clip-path="url(#clip490)" d="M14.479 789.145 L19.3487 789.145 L19.3487 794.747 Q19.3487 797.898 20.6219 799.139 Q21.895 800.348 25.2052 800.348 L28.3562 800.348 L28.3562 790.704 L32.9077 790.704 L32.9077 800.348 L64.0042 800.348 L64.0042 806.237 L32.9077 806.237 L32.9077 811.839 L28.3562 811.839 L28.3562 806.237 L25.8736 806.237 Q19.9216 806.237 17.2162 803.468 Q14.479 800.699 14.479 794.683 L14.479 789.145 Z" fill="#000000" fill-rule="evenodd" fill-opacity="1" /><path clip-path="url(#clip490)" d="M28.3562 784.243 L28.3562 778.387 L64.0042 778.387 L64.0042 784.243 L28.3562 784.243 M14.479 784.243 L14.479 778.387 L21.895 778.387 L21.895 784.243 L14.479 784.243 Z" fill="#000000" fill-rule="evenodd" fill-opacity="1" /><path clip-path="url(#clip490)" d="M33.7671 742.675 L14.479 742.675 L14.479 736.819 L64.0042 736.819 L64.0042 742.675 L58.657 742.675 Q61.8398 744.521 63.3994 747.354 Q64.9272 750.155 64.9272 754.102 Q64.9272 760.563 59.771 764.637 Q54.6147 768.679 46.212 768.679 Q37.8093 768.679 32.6531 764.637 Q27.4968 760.563 27.4968 754.102 Q27.4968 750.155 29.0564 747.354 Q30.5842 744.521 33.7671 742.675 M46.212 762.632 Q52.6732 762.632 56.3653 759.99 Q60.0256 757.316 60.0256 752.669 Q60.0256 748.022 56.3653 745.349 Q52.6732 742.675 46.212 742.675 Q39.7508 742.675 36.0905 745.349 Q32.3984 748.022 32.3984 752.669 Q32.3984 757.316 36.0905 759.99 Q39.7508 762.632 46.212 762.632 Z" fill="#000000" fill-rule="evenodd" fill-opacity="1" /><path clip-path="url(#clip490)" d="M44.7161 694.264 L47.5806 694.264 L47.5806 721.191 Q53.6281 720.809 56.8109 717.562 Q59.9619 714.284 59.9619 708.459 Q59.9619 705.086 59.1344 701.935 Q58.3069 698.752 56.6518 695.633 L62.1899 695.633 Q63.5267 698.784 64.227 702.094 Q64.9272 705.404 64.9272 708.81 Q64.9272 717.34 59.9619 722.337 Q54.9967 727.302 46.5303 727.302 Q37.7774 727.302 32.6531 722.591 Q27.4968 717.849 27.4968 709.828 Q27.4968 702.635 32.1438 698.465 Q36.7589 694.264 44.7161 694.264 M42.9973 700.12 Q38.1912 700.184 35.3266 702.826 Q32.4621 705.436 32.4621 709.764 Q32.4621 714.666 35.2312 717.626 Q38.0002 720.554 43.0292 721 L42.9973 700.12 Z" fill="#000000" fill-rule="evenodd" fill-opacity="1" /><path clip-path="url(#clip490)" d="M14.479 684.652 L14.479 678.795 L64.0042 678.795 L64.0042 684.652 L14.479 684.652 Z" fill="#000000" fill-rule="evenodd" fill-opacity="1" /><path clip-path="url(#clip490)" d="M28.3562 666.541 L28.3562 660.685 L64.0042 660.685 L64.0042 666.541 L28.3562 666.541 M14.479 666.541 L14.479 660.685 L21.895 660.685 L21.895 666.541 L14.479 666.541 Z" fill="#000000" fill-rule="evenodd" fill-opacity="1" /><path clip-path="url(#clip490)" d="M18.2347 642.638 L28.3562 642.638 L28.3562 630.575 L32.9077 630.575 L32.9077 642.638 L52.2594 642.638 Q56.6199 642.638 57.8613 641.46 Q59.1026 640.251 59.1026 636.591 L59.1026 630.575 L64.0042 630.575 L64.0042 636.591 Q64.0042 643.37 61.4897 645.948 Q58.9434 648.526 52.2594 648.526 L32.9077 648.526 L32.9077 652.823 L28.3562 652.823 L28.3562 648.526 L18.2347 648.526 L18.2347 642.638 Z" fill="#000000" fill-rule="evenodd" fill-opacity="1" /><path clip-path="url(#clip490)" d="M67.3143 608.04 Q73.68 610.523 75.6216 612.878 Q77.5631 615.234 77.5631 619.18 L77.5631 623.859 L72.6615 623.859 L72.6615 620.422 Q72.6615 618.003 71.5157 616.666 Q70.3699 615.329 66.1048 613.706 L63.4312 612.656 L28.3562 627.074 L28.3562 620.867 L56.238 609.727 L28.3562 598.587 L28.3562 592.381 L67.3143 608.04 Z" fill="#000000" fill-rule="evenodd" fill-opacity="1" /><path clip-path="url(#clip490)" d="M723.843 27.2059 L767.309 27.2059 L767.309 34.6595 L761.597 34.6595 L761.597 62.5298 Q761.597 65.4464 762.57 66.7427 Q763.582 67.9985 765.81 67.9985 Q766.418 67.9985 767.309 67.9175 Q768.2 67.7959 768.484 67.7554 L768.484 73.1431 Q767.066 73.6697 765.567 73.9128 Q764.069 74.1559 762.57 74.1559 Q757.709 74.1559 755.845 71.5228 Q753.982 68.8492 753.982 61.7196 L753.982 34.6595 L737.252 34.6595 L737.252 72.576 L729.636 72.576 L729.636 34.6595 L723.843 34.6595 L723.843 27.2059 Z" fill="#000000" fill-rule="evenodd" fill-opacity="1" /><path clip-path="url(#clip490)" d="M791.858 12.096 L798.744 12.096 L777.68 80.2727 L770.793 80.2727 L791.858 12.096 Z" fill="#000000" fill-rule="evenodd" fill-opacity="1" /><path clip-path="url(#clip490)" d="M814.664 65.6895 L843.223 65.6895 L843.223 72.576 L804.821 72.576 L804.821 65.6895 Q809.479 60.8689 817.5 52.7671 Q825.561 44.6248 827.627 42.2752 Q831.557 37.8598 833.096 34.8216 Q834.676 31.7429 834.676 28.7857 Q834.676 23.9651 831.273 20.927 Q827.911 17.8888 822.483 17.8888 Q818.634 17.8888 814.34 19.2256 Q810.087 20.5624 805.226 23.2765 L805.226 15.0127 Q810.168 13.0277 814.462 12.015 Q818.756 11.0023 822.321 11.0023 Q831.719 11.0023 837.309 15.7013 Q842.899 20.4004 842.899 28.2591 Q842.899 31.9859 841.481 35.3482 Q840.104 38.6699 836.418 43.2069 Q835.405 44.3817 829.977 50.0125 Q824.549 55.6027 814.664 65.6895 Z" fill="#000000" fill-rule="evenodd" fill-opacity="1" /><path clip-path="url(#clip490)" d="M885.717 9.54393 L893.171 9.54393 L893.171 72.576 L885.717 72.576 L885.717 9.54393 Z" fill="#000000" fill-rule="evenodd" fill-opacity="1" /><path clip-path="url(#clip490)" d="M947.574 48.0275 L947.574 51.6733 L913.304 51.6733 Q913.79 59.3701 917.922 63.421 Q922.094 67.4314 929.507 67.4314 Q933.801 67.4314 937.812 66.3781 Q941.863 65.3249 945.833 63.2184 L945.833 70.267 Q941.822 71.9684 937.609 72.8596 Q933.396 73.7508 929.062 73.7508 Q918.205 73.7508 911.845 67.4314 Q905.526 61.1119 905.526 50.3365 Q905.526 39.1965 911.521 32.6746 Q917.557 26.1121 927.766 26.1121 Q936.921 26.1121 942.227 32.0264 Q947.574 37.9003 947.574 48.0275 M940.121 45.84 Q940.04 39.7232 936.678 36.0774 Q933.356 32.4315 927.847 32.4315 Q921.608 32.4315 917.841 35.9558 Q914.114 39.4801 913.547 45.8805 L940.121 45.84 Z" fill="#000000" fill-rule="evenodd" fill-opacity="1" /><path clip-path="url(#clip490)" d="M980.427 49.7694 Q971.394 49.7694 967.91 51.8354 Q964.426 53.9013 964.426 58.8839 Q964.426 62.8538 967.019 65.2034 Q969.652 67.5124 974.148 67.5124 Q980.346 67.5124 984.073 63.1374 Q987.84 58.7219 987.84 51.4303 L987.84 49.7694 L980.427 49.7694 M995.294 46.6907 L995.294 72.576 L987.84 72.576 L987.84 65.6895 Q985.288 69.8214 981.481 71.8063 Q977.673 73.7508 972.163 73.7508 Q965.196 73.7508 961.064 69.8619 Q956.973 65.9325 956.973 59.3701 Q956.973 51.7138 962.077 47.825 Q967.221 43.9361 977.389 43.9361 L987.84 43.9361 L987.84 43.2069 Q987.84 38.0623 984.438 35.2672 Q981.075 32.4315 974.959 32.4315 Q971.07 32.4315 967.383 33.3632 Q963.697 34.295 960.294 36.1584 L960.294 29.2718 Q964.386 27.692 968.234 26.9223 Q972.082 26.1121 975.728 26.1121 Q985.572 26.1121 990.433 31.2163 Q995.294 36.3204 995.294 46.6907 Z" fill="#000000" fill-rule="evenodd" fill-opacity="1" /><path clip-path="url(#clip490)" d="M1036.94 34.1734 Q1035.68 33.4443 1034.18 33.1202 Q1032.72 32.7556 1030.94 32.7556 Q1024.62 32.7556 1021.22 36.8875 Q1017.86 40.9789 1017.86 48.6757 L1017.86 72.576 L1010.36 72.576 L1010.36 27.2059 L1017.86 27.2059 L1017.86 34.2544 Q1020.21 30.1225 1023.97 28.1376 Q1027.74 26.1121 1033.13 26.1121 Q1033.9 26.1121 1034.83 26.2337 Q1035.76 26.3147 1036.9 26.5172 L1036.94 34.1734 Z" fill="#000000" fill-rule="evenodd" fill-opacity="1" /><path clip-path="url(#clip490)" d="M1081.01 45.1919 L1081.01 72.576 L1073.56 72.576 L1073.56 45.4349 Q1073.56 38.994 1071.05 35.7938 Q1068.53 32.5936 1063.51 32.5936 Q1057.48 32.5936 1053.99 36.4419 Q1050.51 40.2903 1050.51 46.9338 L1050.51 72.576 L1043.01 72.576 L1043.01 27.2059 L1050.51 27.2059 L1050.51 34.2544 Q1053.18 30.163 1056.79 28.1376 Q1060.43 26.1121 1065.17 26.1121 Q1072.99 26.1121 1077 30.9732 Q1081.01 35.7938 1081.01 45.1919 Z" fill="#000000" fill-rule="evenodd" fill-opacity="1" /><path clip-path="url(#clip490)" d="M1095.88 27.2059 L1103.33 27.2059 L1103.33 72.576 L1095.88 72.576 L1095.88 27.2059 M1095.88 9.54393 L1103.33 9.54393 L1103.33 18.9825 L1095.88 18.9825 L1095.88 9.54393 Z" fill="#000000" fill-rule="evenodd" fill-opacity="1" /><path clip-path="url(#clip490)" d="M1156.64 45.1919 L1156.64 72.576 L1149.19 72.576 L1149.19 45.4349 Q1149.19 38.994 1146.68 35.7938 Q1144.16 32.5936 1139.14 32.5936 Q1133.11 32.5936 1129.62 36.4419 Q1126.14 40.2903 1126.14 46.9338 L1126.14 72.576 L1118.64 72.576 L1118.64 27.2059 L1126.14 27.2059 L1126.14 34.2544 Q1128.81 30.163 1132.42 28.1376 Q1136.06 26.1121 1140.8 26.1121 Q1148.62 26.1121 1152.63 30.9732 Q1156.64 35.7938 1156.64 45.1919 Z" fill="#000000" fill-rule="evenodd" fill-opacity="1" /><path clip-path="url(#clip490)" d="M1201.36 49.3643 Q1201.36 41.2625 1198 36.8065 Q1194.68 32.3505 1188.64 32.3505 Q1182.65 32.3505 1179.29 36.8065 Q1175.96 41.2625 1175.96 49.3643 Q1175.96 57.4256 1179.29 61.8816 Q1182.65 66.3376 1188.64 66.3376 Q1194.68 66.3376 1198 61.8816 Q1201.36 57.4256 1201.36 49.3643 M1208.82 66.9452 Q1208.82 78.5308 1203.67 84.1616 Q1198.53 89.8329 1187.91 89.8329 Q1183.99 89.8329 1180.5 89.2252 Q1177.02 88.6581 1173.74 87.4428 L1173.74 80.1917 Q1177.02 81.9741 1180.22 82.8248 Q1183.42 83.6755 1186.74 83.6755 Q1194.07 83.6755 1197.72 79.8271 Q1201.36 76.0193 1201.36 68.282 L1201.36 64.5957 Q1199.05 68.6061 1195.45 70.5911 Q1191.84 72.576 1186.82 72.576 Q1178.48 72.576 1173.37 66.2161 Q1168.27 59.8562 1168.27 49.3643 Q1168.27 38.832 1173.37 32.472 Q1178.48 26.1121 1186.82 26.1121 Q1191.84 26.1121 1195.45 28.0971 Q1199.05 30.082 1201.36 34.0924 L1201.36 27.2059 L1208.82 27.2059 L1208.82 66.9452 Z" fill="#000000" fill-rule="evenodd" fill-opacity="1" /><path clip-path="url(#clip490)" d="M1283.19 28.9478 L1283.19 35.9153 Q1280.03 34.1734 1276.83 33.3227 Q1273.67 32.4315 1270.43 32.4315 Q1263.18 32.4315 1259.17 37.0496 Q1255.16 41.6271 1255.16 49.9314 Q1255.16 58.2358 1259.17 62.8538 Q1263.18 67.4314 1270.43 67.4314 Q1273.67 67.4314 1276.83 66.5807 Q1280.03 65.6895 1283.19 63.9476 L1283.19 70.8341 Q1280.07 72.2924 1276.71 73.0216 Q1273.39 73.7508 1269.62 73.7508 Q1259.37 73.7508 1253.34 67.3098 Q1247.3 60.8689 1247.3 49.9314 Q1247.3 38.832 1253.38 32.472 Q1259.49 26.1121 1270.11 26.1121 Q1273.55 26.1121 1276.83 26.8413 Q1280.11 27.5299 1283.19 28.9478 Z" fill="#000000" fill-rule="evenodd" fill-opacity="1" /><path clip-path="url(#clip490)" d="M1295.39 54.671 L1295.39 27.2059 L1302.84 27.2059 L1302.84 54.3874 Q1302.84 60.8284 1305.35 64.0691 Q1307.86 67.2693 1312.89 67.2693 Q1318.92 67.2693 1322.4 63.421 Q1325.93 59.5726 1325.93 52.9291 L1325.93 27.2059 L1333.38 27.2059 L1333.38 72.576 L1325.93 72.576 L1325.93 65.6084 Q1323.21 69.7404 1319.61 71.7658 Q1316.04 73.7508 1311.31 73.7508 Q1303.49 73.7508 1299.44 68.8897 Q1295.39 64.0286 1295.39 54.671 M1314.14 26.1121 L1314.14 26.1121 Z" fill="#000000" fill-rule="evenodd" fill-opacity="1" /><path clip-path="url(#clip490)" d="M1375.03 34.1734 Q1373.77 33.4443 1372.27 33.1202 Q1370.81 32.7556 1369.03 32.7556 Q1362.71 32.7556 1359.31 36.8875 Q1355.95 40.9789 1355.95 48.6757 L1355.95 72.576 L1348.45 72.576 L1348.45 27.2059 L1355.95 27.2059 L1355.95 34.2544 Q1358.3 30.1225 1362.06 28.1376 Q1365.83 26.1121 1371.22 26.1121 Q1371.99 26.1121 1372.92 26.2337 Q1373.85 26.3147 1374.99 26.5172 L1375.03 34.1734 Z" fill="#000000" fill-rule="evenodd" fill-opacity="1" /><path clip-path="url(#clip490)" d="M1377.5 27.2059 L1385.4 27.2059 L1399.57 65.2844 L1413.75 27.2059 L1421.65 27.2059 L1404.64 72.576 L1394.51 72.576 L1377.5 27.2059 Z" fill="#000000" fill-rule="evenodd" fill-opacity="1" /><path clip-path="url(#clip490)" d="M1470.75 48.0275 L1470.75 51.6733 L1436.48 51.6733 Q1436.96 59.3701 1441.1 63.421 Q1445.27 67.4314 1452.68 67.4314 Q1456.98 67.4314 1460.99 66.3781 Q1465.04 65.3249 1469.01 63.2184 L1469.01 70.267 Q1465 71.9684 1460.78 72.8596 Q1456.57 73.7508 1452.24 73.7508 Q1441.38 73.7508 1435.02 67.4314 Q1428.7 61.1119 1428.7 50.3365 Q1428.7 39.1965 1434.7 32.6746 Q1440.73 26.1121 1450.94 26.1121 Q1460.09 26.1121 1465.4 32.0264 Q1470.75 37.9003 1470.75 48.0275 M1463.3 45.84 Q1463.21 39.7232 1459.85 36.0774 Q1456.53 32.4315 1451.02 32.4315 Q1444.78 32.4315 1441.02 35.9558 Q1437.29 39.4801 1436.72 45.8805 L1463.3 45.84 Z" fill="#000000" fill-rule="evenodd" fill-opacity="1" /><path clip-path="url(#clip490)" d="M1527.26 9.62495 Q1521.83 18.942 1519.2 28.0566 Q1516.56 37.1711 1516.56 46.5287 Q1516.56 55.8863 1519.2 65.0818 Q1521.87 74.2369 1527.26 83.5134 L1520.78 83.5134 Q1514.7 73.9938 1511.66 64.7983 Q1508.67 55.6027 1508.67 46.5287 Q1508.67 37.4952 1511.66 28.3401 Q1514.66 19.1851 1520.78 9.62495 L1527.26 9.62495 Z" fill="#000000" fill-rule="evenodd" fill-opacity="1" /><path clip-path="url(#clip490)" d="M1568.17 51.4708 L1566.39 42.1132 Q1564.57 32.5126 1557.36 32.5126 Q1551.93 32.5126 1549.46 36.9686 Q1546.34 42.5588 1546.34 49.9314 Q1546.34 58.8434 1549.38 63.0969 Q1552.46 67.4314 1557.36 67.4314 Q1562.79 67.4314 1565.7 58.8029 L1568.17 51.4708 M1572.35 39.075 L1576.36 27.2059 L1583 27.2059 L1574.69 51.7949 L1576.32 60.6663 Q1576.68 62.6513 1578.1 64.3122 Q1579.76 66.2566 1581.05 66.2566 L1584.62 66.2566 L1584.62 72.576 L1580.16 72.576 Q1576.36 72.576 1572.95 69.1732 Q1571.29 67.4719 1570.6 63.9071 Q1568.74 68.4036 1564.93 71.9279 Q1563.15 73.5887 1557.36 73.5887 Q1547.84 73.5887 1543.22 67.4314 Q1538.48 61.0714 1538.48 49.9314 Q1538.48 38.0218 1543.62 32.4315 Q1549.34 26.1931 1557.36 26.1931 Q1569.96 26.1931 1572.35 39.075 Z" fill="#000000" fill-rule="evenodd" fill-opacity="1" /><path clip-path="url(#clip490)" d="M1597.38 34.9026 L1649.31 34.9026 L1649.31 41.7081 L1597.38 41.7081 L1597.38 34.9026 M1597.38 51.4303 L1649.31 51.4303 L1649.31 58.3168 L1597.38 58.3168 L1597.38 51.4303 Z" fill="#000000" fill-rule="evenodd" fill-opacity="1" /><path clip-path="url(#clip490)" d="M1684.47 17.4837 Q1678.16 17.4837 1674.95 23.7221 Q1671.8 29.92 1671.8 42.3968 Q1671.8 54.833 1674.95 61.0714 Q1678.16 67.2693 1684.47 67.2693 Q1690.83 67.2693 1693.99 61.0714 Q1697.19 54.833 1697.19 42.3968 Q1697.19 29.92 1693.99 23.7221 Q1690.83 17.4837 1684.47 17.4837 M1684.47 11.0023 Q1694.64 11.0023 1699.99 19.0636 Q1705.38 27.0843 1705.38 42.3968 Q1705.38 57.6687 1699.99 65.73 Q1694.64 73.7508 1684.47 73.7508 Q1674.31 73.7508 1668.92 65.73 Q1663.57 57.6687 1663.57 42.3968 Q1663.57 27.0843 1668.92 19.0636 Q1674.31 11.0023 1684.47 11.0023 Z" fill="#000000" fill-rule="evenodd" fill-opacity="1" /><path clip-path="url(#clip490)" d="M1719.76 62.2867 L1728.31 62.2867 L1728.31 72.576 L1719.76 72.576 L1719.76 62.2867 Z" fill="#000000" fill-rule="evenodd" fill-opacity="1" /><path clip-path="url(#clip490)" d="M1744.06 12.096 L1782.95 12.096 L1782.95 15.5798 L1761 72.576 L1752.45 72.576 L1773.11 18.9825 L1744.06 18.9825 L1744.06 12.096 Z" fill="#000000" fill-rule="evenodd" fill-opacity="1" /><path clip-path="url(#clip490)" d="M1796.68 9.62495 L1803.17 9.62495 Q1809.24 19.1851 1812.24 28.3401 Q1815.28 37.4952 1815.28 46.5287 Q1815.28 55.6027 1812.24 64.7983 Q1809.24 73.9938 1803.17 83.5134 L1796.68 83.5134 Q1802.07 74.2369 1804.71 65.0818 Q1807.38 55.8863 1807.38 46.5287 Q1807.38 37.1711 1804.71 28.0566 Q1802.07 18.942 1796.68 9.62495 Z" fill="#000000" fill-rule="evenodd" fill-opacity="1" /><polyline clip-path="url(#clip492)" style="stroke:#008000; stroke-linecap:butt; stroke-linejoin:round; stroke-width:6; stroke-opacity:1; fill:none" points="
  280.231,1386.4 290.342,726.896 300.454,160.256 310.565,160.256 320.676,160.256 330.788,160.256 340.899,160.256 351.011,160.256 361.122,160.256 371.233,160.256 
  381.345,160.256 391.456,160.256 401.567,160.256 411.679,160.256 421.79,160.256 431.901,160.256 442.013,160.256 452.124,160.256 462.235,160.256 472.347,160.256 
  482.458,160.256 492.57,160.256 502.681,160.256 512.792,160.256 522.904,160.256 533.015,160.256 543.126,160.256 553.238,160.256 563.349,160.256 573.46,160.256 
  583.572,160.256 593.683,160.256 603.794,160.256 613.906,160.256 624.017,160.256 634.129,160.256 644.24,160.256 654.351,160.256 664.463,160.256 674.574,160.256 
  684.685,160.256 694.797,160.256 704.908,160.256 715.019,160.256 725.131,160.256 735.242,160.256 745.353,160.256 755.465,160.256 765.576,160.256 775.688,160.256 
  785.799,160.256 795.91,160.256 806.022,160.256 816.133,160.256 826.244,160.256 836.356,160.256 846.467,160.256 856.578,160.256 866.69,160.256 876.801,160.256 
  886.912,160.256 897.024,160.256 907.135,160.256 917.247,160.256 927.358,160.256 937.469,160.256 947.581,160.256 957.692,160.256 967.803,160.256 977.915,160.256 
  988.026,160.256 998.137,160.256 1008.25,160.256 1018.36,160.256 1028.47,160.256 1038.58,160.256 1048.69,160.256 1058.81,160.256 1068.92,160.256 1079.03,160.256 
  1089.14,160.256 1099.25,160.256 1109.36,160.256 1119.47,160.256 1129.59,160.256 1139.7,160.256 1149.81,160.256 1159.92,160.256 1170.03,160.256 1180.14,160.256 
  1190.25,160.256 1200.36,160.256 1210.48,160.256 1220.59,160.256 1230.7,160.256 1240.81,160.256 1250.92,160.256 1261.03,160.256 1271.14,160.256 1281.26,160.256 
  1291.37,160.256 1301.48,160.256 1311.59,160.256 1321.7,160.256 1331.81,160.256 1341.92,160.256 1352.03,160.256 1362.15,160.256 1372.26,160.256 1382.37,160.256 
  1392.48,160.256 1402.59,160.256 1412.7,160.256 1422.81,160.256 1432.93,160.256 1443.04,160.256 1453.15,160.256 1463.26,160.256 1473.37,160.256 1483.48,160.256 
  1493.59,160.256 1503.71,160.256 1513.82,160.256 1523.93,160.256 1534.04,160.256 1544.15,160.256 1554.26,160.256 1564.37,160.256 1574.48,160.256 1584.6,160.256 
  1594.71,160.256 1604.82,160.256 1614.93,160.256 1625.04,160.256 1635.15,160.256 1645.26,160.256 1655.38,160.256 1665.49,160.256 1675.6,160.256 1685.71,160.256 
  1695.82,160.256 1705.93,160.256 1716.04,160.256 1726.16,160.256 1736.27,160.256 1746.38,160.256 1756.49,160.256 1766.6,160.256 1776.71,160.256 1786.82,160.256 
  1796.93,160.256 1807.05,160.256 1817.16,160.256 1827.27,160.256 1837.38,160.256 1847.49,160.256 1857.6,160.256 1867.71,160.256 1877.83,160.256 1887.94,160.256 
  1898.05,160.256 1908.16,160.256 1918.27,160.256 1928.38,160.256 1938.49,160.256 1948.6,160.256 1958.72,160.256 1968.83,160.256 1978.94,160.256 1989.05,160.256 
  1999.16,160.256 2009.27,160.256 2019.38,160.256 2029.5,160.256 2039.61,160.256 2049.72,160.256 2059.83,160.256 2069.94,160.256 2080.05,160.256 2090.16,160.256 
  2100.28,160.256 2110.39,160.256 2120.5,160.256 2130.61,160.256 2140.72,160.256 2150.83,160.256 2160.94,160.256 2171.05,160.256 2181.17,160.256 2191.28,160.256 
  2201.39,160.256 2211.5,160.256 2221.61,160.256 2231.72,160.256 2241.83,160.256 2251.95,160.256 2262.06,160.256 2272.17,160.256 2282.28,160.256 2292.39,160.256 
  
  "/>
<polyline clip-path="url(#clip492)" style="stroke:#000000; stroke-linecap:butt; stroke-linejoin:round; stroke-width:8; stroke-opacity:1; fill:none" points="
  280.231,950.715 290.342,950.715 300.454,950.715 310.565,950.715 320.676,950.715 330.788,950.715 340.899,950.715 351.011,950.715 361.122,950.715 371.233,950.715 
  381.345,950.715 391.456,950.715 401.567,950.715 411.679,950.715 421.79,950.715 431.901,950.715 442.013,950.715 452.124,950.715 462.235,950.715 472.347,950.715 
  482.458,950.715 492.57,950.715 502.681,950.715 512.792,950.715 522.904,950.715 533.015,950.715 543.126,950.715 553.238,950.715 563.349,950.715 573.46,950.715 
  583.572,950.715 593.683,950.715 603.794,950.715 613.906,950.715 624.017,950.715 634.129,950.715 644.24,950.715 654.351,950.715 664.463,950.715 674.574,950.715 
  684.685,950.715 694.797,950.715 704.908,950.715 715.019,950.715 725.131,950.715 735.242,950.715 745.353,950.715 755.465,950.715 765.576,950.715 775.688,950.715 
  785.799,950.715 795.91,950.715 806.022,950.715 816.133,950.715 826.244,950.715 836.356,950.715 846.467,950.715 856.578,950.715 866.69,950.715 876.801,950.715 
  886.912,950.715 897.024,950.715 907.135,950.715 917.247,950.715 927.358,950.715 937.469,950.715 947.581,950.715 957.692,950.715 967.803,950.715 977.915,950.715 
  988.026,950.715 998.137,950.715 1008.25,950.715 1018.36,950.715 1028.47,950.715 1038.58,950.715 1048.69,950.715 1058.81,950.715 1068.92,950.715 1079.03,950.715 
  1089.14,950.715 1099.25,950.715 1109.36,950.715 1119.47,950.715 1129.59,950.715 1139.7,950.715 1149.81,950.715 1159.92,950.715 1170.03,950.715 1180.14,950.715 
  1190.25,950.715 1200.36,950.715 1210.48,950.715 1220.59,950.715 1230.7,950.715 1240.81,950.715 1250.92,950.715 1261.03,950.715 1271.14,950.715 1281.26,950.715 
  1291.37,950.715 1301.48,950.715 1311.59,950.715 1321.7,950.715 1331.81,950.715 1341.92,950.715 1352.03,950.715 1362.15,950.715 1372.26,950.715 1382.37,950.715 
  1392.48,950.715 1402.59,950.715 1412.7,950.715 1422.81,950.715 1432.93,950.715 1443.04,950.715 1453.15,950.715 1463.26,950.715 1473.37,950.715 1483.48,950.715 
  1493.59,950.715 1503.71,950.715 1513.82,950.715 1523.93,950.715 1534.04,950.715 1544.15,950.715 1554.26,950.715 1564.37,950.715 1574.48,950.715 1584.6,950.715 
  1594.71,950.715 1604.82,950.715 1614.93,950.715 1625.04,950.715 1635.15,950.715 1645.26,950.715 1655.38,950.715 1665.49,950.715 1675.6,950.715 1685.71,950.715 
  1695.82,950.715 1705.93,950.715 1716.04,950.715 1726.16,950.715 1736.27,950.715 1746.38,950.715 1756.49,950.715 1766.6,950.715 1776.71,950.715 1786.82,950.715 
  1796.93,950.715 1807.05,950.715 1817.16,950.715 1827.27,950.715 1837.38,950.715 1847.49,950.715 1857.6,950.715 1867.71,950.715 1877.83,950.715 1887.94,950.715 
  1898.05,950.715 1908.16,950.715 1918.27,950.715 1928.38,950.715 1938.49,950.715 1948.6,950.715 1958.72,950.715 1968.83,950.715 1978.94,950.715 1989.05,950.715 
  1999.16,950.715 2009.27,950.715 2019.38,950.715 2029.5,950.715 2039.61,950.715 2049.72,950.715 2059.83,950.715 2069.94,950.715 2080.05,950.715 2090.16,950.715 
  2100.28,950.715 2110.39,950.715 2120.5,950.715 2130.61,950.715 2140.72,950.715 2150.83,950.715 2160.94,950.715 2171.05,950.715 2181.17,950.715 2191.28,950.715 
  2201.39,950.715 2211.5,950.715 2221.61,950.715 2231.72,950.715 2241.83,950.715 2251.95,950.715 2262.06,950.715 2272.17,950.715 2282.28,950.715 2292.39,950.715 
  
  "/>
<path clip-path="url(#clip490)" d="
M1802.5 322.316 L2281.66 322.316 L2281.66 166.796 L1802.5 166.796  Z
  " fill="#ffffff" fill-rule="evenodd" fill-opacity="1"/>
<polyline clip-path="url(#clip490)" style="stroke:#000000; stroke-linecap:butt; stroke-linejoin:round; stroke-width:4; stroke-opacity:1; fill:none" points="
  1802.5,322.316 2281.66,322.316 2281.66,166.796 1802.5,166.796 1802.5,322.316 
  "/>
<polyline clip-path="url(#clip490)" style="stroke:#008000; stroke-linecap:butt; stroke-linejoin:round; stroke-width:4; stroke-opacity:1; fill:none" points="
  1826.2,218.636 1968.39,218.636 
  "/>
<path clip-path="url(#clip490)" d="M2008.11 204.527 Q2003.01 204.527 2000 208.323 Q1997.02 212.12 1997.02 218.67 Q1997.02 225.198 2000 228.994 Q2003.01 232.791 2008.11 232.791 Q2013.2 232.791 2016.16 228.994 Q2019.15 225.198 2019.15 218.67 Q2019.15 212.12 2016.16 208.323 Q2013.2 204.527 2008.11 204.527 M2014.66 235.291 L2020.81 242.027 L2015.17 242.027 L2010.05 236.494 Q2009.29 236.541 2008.87 236.564 Q2008.48 236.587 2008.11 236.587 Q2000.81 236.587 1996.44 231.726 Q1992.09 226.842 1992.09 218.67 Q1992.09 210.476 1996.44 205.615 Q2000.81 200.731 2008.11 200.731 Q2015.37 200.731 2019.73 205.615 Q2024.08 210.476 2024.08 218.67 Q2024.08 224.689 2021.65 228.971 Q2019.24 233.254 2014.66 235.291 Z" fill="#000000" fill-rule="evenodd" fill-opacity="1" /><path clip-path="url(#clip490)" d="M2030.37 221.032 L2042.85 221.032 L2042.85 224.828 L2030.37 224.828 L2030.37 221.032 Z" fill="#000000" fill-rule="evenodd" fill-opacity="1" /><path clip-path="url(#clip490)" d="M2049.63 199.897 L2053.89 199.897 L2053.89 235.916 L2049.63 235.916 L2049.63 199.897 Z" fill="#000000" fill-rule="evenodd" fill-opacity="1" /><path clip-path="url(#clip490)" d="M2084.98 221.888 L2084.98 223.971 L2065.4 223.971 Q2065.67 228.369 2068.04 230.684 Q2070.42 232.976 2074.66 232.976 Q2077.11 232.976 2079.4 232.374 Q2081.72 231.772 2083.99 230.569 L2083.99 234.596 Q2081.69 235.568 2079.29 236.078 Q2076.88 236.587 2074.4 236.587 Q2068.2 236.587 2064.56 232.976 Q2060.95 229.365 2060.95 223.207 Q2060.95 216.842 2064.38 213.115 Q2067.83 209.365 2073.66 209.365 Q2078.89 209.365 2081.92 212.745 Q2084.98 216.101 2084.98 221.888 M2080.72 220.638 Q2080.67 217.143 2078.75 215.059 Q2076.86 212.976 2073.71 212.976 Q2070.14 212.976 2067.99 214.99 Q2065.86 217.004 2065.54 220.661 L2080.72 220.638 Z" fill="#000000" fill-rule="evenodd" fill-opacity="1" /><path clip-path="url(#clip490)" d="M2103.75 222.883 Q2098.59 222.883 2096.6 224.064 Q2094.61 225.244 2094.61 228.092 Q2094.61 230.36 2096.09 231.703 Q2097.6 233.022 2100.17 233.022 Q2103.71 233.022 2105.84 230.522 Q2107.99 227.999 2107.99 223.832 L2107.99 222.883 L2103.75 222.883 M2112.25 221.124 L2112.25 235.916 L2107.99 235.916 L2107.99 231.981 Q2106.53 234.342 2104.36 235.476 Q2102.18 236.587 2099.03 236.587 Q2095.05 236.587 2092.69 234.365 Q2090.35 232.119 2090.35 228.369 Q2090.35 223.994 2093.27 221.772 Q2096.21 219.55 2102.02 219.55 L2107.99 219.55 L2107.99 219.133 Q2107.99 216.194 2106.05 214.596 Q2104.12 212.976 2100.63 212.976 Q2098.41 212.976 2096.3 213.508 Q2094.19 214.041 2092.25 215.106 L2092.25 211.17 Q2094.59 210.268 2096.79 209.828 Q2098.98 209.365 2101.07 209.365 Q2106.69 209.365 2109.47 212.282 Q2112.25 215.198 2112.25 221.124 Z" fill="#000000" fill-rule="evenodd" fill-opacity="1" /><path clip-path="url(#clip490)" d="M2136.04 213.971 Q2135.33 213.555 2134.47 213.37 Q2133.64 213.161 2132.62 213.161 Q2129.01 213.161 2127.06 215.522 Q2125.14 217.86 2125.14 222.258 L2125.14 235.916 L2120.86 235.916 L2120.86 209.99 L2125.14 209.99 L2125.14 214.018 Q2126.48 211.657 2128.64 210.522 Q2130.79 209.365 2133.87 209.365 Q2134.31 209.365 2134.84 209.434 Q2135.37 209.481 2136.02 209.596 L2136.04 213.971 Z" fill="#000000" fill-rule="evenodd" fill-opacity="1" /><path clip-path="url(#clip490)" d="M2161.23 220.268 L2161.23 235.916 L2156.97 235.916 L2156.97 220.407 Q2156.97 216.726 2155.54 214.897 Q2154.1 213.069 2151.23 213.069 Q2147.78 213.069 2145.79 215.268 Q2143.8 217.467 2143.8 221.263 L2143.8 235.916 L2139.52 235.916 L2139.52 209.99 L2143.8 209.99 L2143.8 214.018 Q2145.33 211.68 2147.39 210.522 Q2149.47 209.365 2152.18 209.365 Q2156.65 209.365 2158.94 212.143 Q2161.23 214.897 2161.23 220.268 Z" fill="#000000" fill-rule="evenodd" fill-opacity="1" /><path clip-path="url(#clip490)" d="M2169.73 209.99 L2173.98 209.99 L2173.98 235.916 L2169.73 235.916 L2169.73 209.99 M2169.73 199.897 L2173.98 199.897 L2173.98 205.291 L2169.73 205.291 L2169.73 199.897 Z" fill="#000000" fill-rule="evenodd" fill-opacity="1" /><path clip-path="url(#clip490)" d="M2204.45 220.268 L2204.45 235.916 L2200.19 235.916 L2200.19 220.407 Q2200.19 216.726 2198.75 214.897 Q2197.32 213.069 2194.45 213.069 Q2191 213.069 2189.01 215.268 Q2187.02 217.467 2187.02 221.263 L2187.02 235.916 L2182.73 235.916 L2182.73 209.99 L2187.02 209.99 L2187.02 214.018 Q2188.54 211.68 2190.6 210.522 Q2192.69 209.365 2195.4 209.365 Q2199.86 209.365 2202.16 212.143 Q2204.45 214.897 2204.45 220.268 Z" fill="#000000" fill-rule="evenodd" fill-opacity="1" /><path clip-path="url(#clip490)" d="M2230 222.652 Q2230 218.022 2228.08 215.476 Q2226.18 212.93 2222.73 212.93 Q2219.31 212.93 2217.39 215.476 Q2215.49 218.022 2215.49 222.652 Q2215.49 227.258 2217.39 229.805 Q2219.31 232.351 2222.73 232.351 Q2226.18 232.351 2228.08 229.805 Q2230 227.258 2230 222.652 M2234.26 232.698 Q2234.26 239.318 2231.32 242.536 Q2228.38 245.777 2222.32 245.777 Q2220.07 245.777 2218.08 245.43 Q2216.09 245.105 2214.22 244.411 L2214.22 240.268 Q2216.09 241.286 2217.92 241.772 Q2219.75 242.258 2221.65 242.258 Q2225.84 242.258 2227.92 240.059 Q2230 237.883 2230 233.462 L2230 231.356 Q2228.68 233.647 2226.62 234.781 Q2224.56 235.916 2221.69 235.916 Q2216.92 235.916 2214.01 232.281 Q2211.09 228.647 2211.09 222.652 Q2211.09 216.633 2214.01 212.999 Q2216.92 209.365 2221.69 209.365 Q2224.56 209.365 2226.62 210.499 Q2228.68 211.633 2230 213.925 L2230 209.99 L2234.26 209.99 L2234.26 232.698 Z" fill="#000000" fill-rule="evenodd" fill-opacity="1" /><polyline clip-path="url(#clip490)" style="stroke:#000000; stroke-linecap:butt; stroke-linejoin:round; stroke-width:4; stroke-opacity:1; fill:none" points="
  1826.2,270.476 1968.39,270.476 
  "/>
<path clip-path="url(#clip490)" d="M2004.03 256.274 Q2000.42 256.274 1998.59 259.839 Q1996.79 263.381 1996.79 270.51 Q1996.79 277.617 1998.59 281.182 Q2000.42 284.723 2004.03 284.723 Q2007.67 284.723 2009.47 281.182 Q2011.3 277.617 2011.3 270.51 Q2011.3 263.381 2009.47 259.839 Q2007.67 256.274 2004.03 256.274 M2004.03 252.571 Q2009.84 252.571 2012.9 257.177 Q2015.98 261.76 2015.98 270.51 Q2015.98 279.237 2012.9 283.844 Q2009.84 288.427 2004.03 288.427 Q1998.22 288.427 1995.14 283.844 Q1992.09 279.237 1992.09 270.51 Q1992.09 261.76 1995.14 257.177 Q1998.22 252.571 2004.03 252.571 Z" fill="#000000" fill-rule="evenodd" fill-opacity="1" /><path clip-path="url(#clip490)" d="M2024.19 281.876 L2029.08 281.876 L2029.08 287.756 L2024.19 287.756 L2024.19 281.876 Z" fill="#000000" fill-rule="evenodd" fill-opacity="1" /><path clip-path="url(#clip490)" d="M2039.31 253.196 L2057.67 253.196 L2057.67 257.131 L2043.59 257.131 L2043.59 265.603 Q2044.61 265.256 2045.63 265.094 Q2046.65 264.909 2047.67 264.909 Q2053.45 264.909 2056.83 268.08 Q2060.21 271.251 2060.21 276.668 Q2060.21 282.246 2056.74 285.348 Q2053.27 288.427 2046.95 288.427 Q2044.77 288.427 2042.5 288.057 Q2040.26 287.686 2037.85 286.946 L2037.85 282.246 Q2039.93 283.381 2042.16 283.936 Q2044.38 284.492 2046.86 284.492 Q2050.86 284.492 2053.2 282.385 Q2055.54 280.279 2055.54 276.668 Q2055.54 273.057 2053.2 270.95 Q2050.86 268.844 2046.86 268.844 Q2044.98 268.844 2043.11 269.26 Q2041.25 269.677 2039.31 270.557 L2039.31 253.196 Z" fill="#000000" fill-rule="evenodd" fill-opacity="1" /></svg>
