<?xml version="1.0" encoding="utf-8"?>
<svg xmlns="http://www.w3.org/2000/svg" xmlns:xlink="http://www.w3.org/1999/xlink" width="600" height="400" viewBox="0 0 2400 1600">
<defs>
  <clipPath id="clip020">
    <rect x="0" y="0" width="2400" height="1600"/>
  </clipPath>
</defs>
<path clip-path="url(#clip020)" d="
M0 1600 L2400 1600 L2400 0 L0 0  Z
  " fill="#ffffff" fill-rule="evenodd" fill-opacity="1"/>
<defs>
  <clipPath id="clip021">
    <rect x="480" y="0" width="1681" height="1600"/>
  </clipPath>
</defs>
<path clip-path="url(#clip020)" d="
M219.866 1423.18 L2352.76 1423.18 L2352.76 123.472 L219.866 123.472  Z
  " fill="#ffffff" fill-rule="evenodd" fill-opacity="1"/>
<defs>
  <clipPath id="clip022">
    <rect x="219" y="123" width="2134" height="1301"/>
  </clipPath>
</defs>
<polyline clip-path="url(#clip022)" style="stroke:#000000; stroke-linecap:butt; stroke-linejoin:round; stroke-width:2; stroke-opacity:0.1; fill:none" points="
  276.199,1423.18 276.199,123.472 
  "/>
<polyline clip-path="url(#clip022)" style="stroke:#000000; stroke-linecap:butt; stroke-linejoin:round; stroke-width:2; stroke-opacity:0.1; fill:none" points="
  679.437,1423.18 679.437,123.472 
  "/>
<polyline clip-path="url(#clip022)" style="stroke:#000000; stroke-linecap:butt; stroke-linejoin:round; stroke-width:2; stroke-opacity:0.1; fill:none" points="
  1082.68,1423.18 1082.68,123.472 
  "/>
<polyline clip-path="url(#clip022)" style="stroke:#000000; stroke-linecap:butt; stroke-linejoin:round; stroke-width:2; stroke-opacity:0.1; fill:none" points="
  1485.91,1423.18 1485.91,123.472 
  "/>
<polyline clip-path="url(#clip022)" style="stroke:#000000; stroke-linecap:butt; stroke-linejoin:round; stroke-width:2; stroke-opacity:0.1; fill:none" points="
  1889.15,1423.18 1889.15,123.472 
  "/>
<polyline clip-path="url(#clip022)" style="stroke:#000000; stroke-linecap:butt; stroke-linejoin:round; stroke-width:2; stroke-opacity:0.1; fill:none" points="
  2292.39,1423.18 2292.39,123.472 
  "/>
<polyline clip-path="url(#clip020)" style="stroke:#000000; stroke-linecap:butt; stroke-linejoin:round; stroke-width:4; stroke-opacity:1; fill:none" points="
  219.866,1423.18 2352.76,1423.18 
  "/>
<polyline clip-path="url(#clip020)" style="stroke:#000000; stroke-linecap:butt; stroke-linejoin:round; stroke-width:4; stroke-opacity:1; fill:none" points="
  219.866,123.472 2352.76,123.472 
  "/>
<polyline clip-path="url(#clip020)" style="stroke:#000000; stroke-linecap:butt; stroke-linejoin:round; stroke-width:4; stroke-opacity:1; fill:none" points="
  276.199,1423.18 276.199,1407.58 
  "/>
<polyline clip-path="url(#clip020)" style="stroke:#000000; stroke-linecap:butt; stroke-linejoin:round; stroke-width:4; stroke-opacity:1; fill:none" points="
  679.437,1423.18 679.437,1407.58 
  "/>
<polyline clip-path="url(#clip020)" style="stroke:#000000; stroke-linecap:butt; stroke-linejoin:round; stroke-width:4; stroke-opacity:1; fill:none" points="
  1082.68,1423.18 1082.68,1407.58 
  "/>
<polyline clip-path="url(#clip020)" style="stroke:#000000; stroke-linecap:butt; stroke-linejoin:round; stroke-width:4; stroke-opacity:1; fill:none" points="
  1485.91,1423.18 1485.91,1407.58 
  "/>
<polyline clip-path="url(#clip020)" style="stroke:#000000; stroke-linecap:butt; stroke-linejoin:round; stroke-width:4; stroke-opacity:1; fill:none" points="
  1889.15,1423.18 1889.15,1407.58 
  "/>
<polyline clip-path="url(#clip020)" style="stroke:#000000; stroke-linecap:butt; stroke-linejoin:round; stroke-width:4; stroke-opacity:1; fill:none" points="
  2292.39,1423.18 2292.39,1407.58 
  "/>
<path clip-path="url(#clip020)" d="M276.199 1452.37 Q272.588 1452.37 270.759 1455.94 Q268.953 1459.48 268.953 1466.61 Q268.953 1473.71 270.759 1477.28 Q272.588 1480.82 276.199 1480.82 Q279.833 1480.82 281.638 1477.28 Q283.467 1473.71 283.467 1466.61 Q283.467 1459.48 281.638 1455.94 Q279.833 1452.37 276.199 1452.37 M276.199 1448.67 Q282.009 1448.67 285.064 1453.27 Q288.143 1457.86 288.143 1466.61 Q288.143 1475.33 285.064 1479.94 Q282.009 1484.52 276.199 1484.52 Q270.389 1484.52 267.31 1479.94 Q264.254 1475.33 264.254 1466.61 Q264.254 1457.86 267.31 1453.27 Q270.389 1448.67 276.199 1448.67 Z" fill="#000000" fill-rule="evenodd" fill-opacity="1" /><path clip-path="url(#clip020)" d="M639.044 1479.92 L646.683 1479.92 L646.683 1453.55 L638.373 1455.22 L638.373 1450.96 L646.636 1449.29 L651.312 1449.29 L651.312 1479.92 L658.951 1479.92 L658.951 1483.85 L639.044 1483.85 L639.044 1479.92 Z" fill="#000000" fill-rule="evenodd" fill-opacity="1" /><path clip-path="url(#clip020)" d="M678.396 1452.37 Q674.784 1452.37 672.956 1455.94 Q671.15 1459.48 671.15 1466.61 Q671.15 1473.71 672.956 1477.28 Q674.784 1480.82 678.396 1480.82 Q682.03 1480.82 683.835 1477.28 Q685.664 1473.71 685.664 1466.61 Q685.664 1459.48 683.835 1455.94 Q682.03 1452.37 678.396 1452.37 M678.396 1448.67 Q684.206 1448.67 687.261 1453.27 Q690.34 1457.86 690.34 1466.61 Q690.34 1475.33 687.261 1479.94 Q684.206 1484.52 678.396 1484.52 Q672.585 1484.52 669.507 1479.94 Q666.451 1475.33 666.451 1466.61 Q666.451 1457.86 669.507 1453.27 Q672.585 1448.67 678.396 1448.67 Z" fill="#000000" fill-rule="evenodd" fill-opacity="1" /><path clip-path="url(#clip020)" d="M708.557 1452.37 Q704.946 1452.37 703.118 1455.94 Q701.312 1459.48 701.312 1466.61 Q701.312 1473.71 703.118 1477.28 Q704.946 1480.82 708.557 1480.82 Q712.192 1480.82 713.997 1477.28 Q715.826 1473.71 715.826 1466.61 Q715.826 1459.48 713.997 1455.94 Q712.192 1452.37 708.557 1452.37 M708.557 1448.67 Q714.368 1448.67 717.423 1453.27 Q720.502 1457.86 720.502 1466.61 Q720.502 1475.33 717.423 1479.94 Q714.368 1484.52 708.557 1484.52 Q702.747 1484.52 699.669 1479.94 Q696.613 1475.33 696.613 1466.61 Q696.613 1457.86 699.669 1453.27 Q702.747 1448.67 708.557 1448.67 Z" fill="#000000" fill-rule="evenodd" fill-opacity="1" /><path clip-path="url(#clip020)" d="M1046.37 1479.92 L1062.69 1479.92 L1062.69 1483.85 L1040.74 1483.85 L1040.74 1479.92 Q1043.41 1477.16 1047.99 1472.53 Q1052.59 1467.88 1053.78 1466.54 Q1056.02 1464.01 1056.9 1462.28 Q1057.8 1460.52 1057.8 1458.83 Q1057.8 1456.07 1055.86 1454.34 Q1053.94 1452.6 1050.84 1452.6 Q1048.64 1452.6 1046.18 1453.37 Q1043.75 1454.13 1040.97 1455.68 L1040.97 1450.96 Q1043.8 1449.82 1046.25 1449.25 Q1048.71 1448.67 1050.74 1448.67 Q1056.11 1448.67 1059.31 1451.35 Q1062.5 1454.04 1062.5 1458.53 Q1062.5 1460.66 1061.69 1462.58 Q1060.9 1464.48 1058.8 1467.07 Q1058.22 1467.74 1055.12 1470.96 Q1052.02 1474.15 1046.37 1479.92 Z" fill="#000000" fill-rule="evenodd" fill-opacity="1" /><path clip-path="url(#clip020)" d="M1082.5 1452.37 Q1078.89 1452.37 1077.06 1455.94 Q1075.26 1459.48 1075.26 1466.61 Q1075.26 1473.71 1077.06 1477.28 Q1078.89 1480.82 1082.5 1480.82 Q1086.14 1480.82 1087.94 1477.28 Q1089.77 1473.71 1089.77 1466.61 Q1089.77 1459.48 1087.94 1455.94 Q1086.14 1452.37 1082.5 1452.37 M1082.5 1448.67 Q1088.31 1448.67 1091.37 1453.27 Q1094.45 1457.86 1094.45 1466.61 Q1094.45 1475.33 1091.37 1479.94 Q1088.31 1484.52 1082.5 1484.52 Q1076.69 1484.52 1073.61 1479.94 Q1070.56 1475.33 1070.56 1466.61 Q1070.56 1457.86 1073.61 1453.27 Q1076.69 1448.67 1082.5 1448.67 Z" fill="#000000" fill-rule="evenodd" fill-opacity="1" /><path clip-path="url(#clip020)" d="M1112.66 1452.37 Q1109.05 1452.37 1107.22 1455.94 Q1105.42 1459.48 1105.42 1466.61 Q1105.42 1473.71 1107.22 1477.28 Q1109.05 1480.82 1112.66 1480.82 Q1116.3 1480.82 1118.1 1477.28 Q1119.93 1473.71 1119.93 1466.61 Q1119.93 1459.48 1118.1 1455.94 Q1116.3 1452.37 1112.66 1452.37 M1112.66 1448.67 Q1118.47 1448.67 1121.53 1453.27 Q1124.61 1457.86 1124.61 1466.61 Q1124.61 1475.33 1121.53 1479.94 Q1118.47 1484.52 1112.66 1484.52 Q1106.85 1484.52 1103.78 1479.94 Q1100.72 1475.33 1100.72 1466.61 Q1100.72 1457.86 1103.78 1453.27 Q1106.85 1448.67 1112.66 1448.67 Z" fill="#000000" fill-rule="evenodd" fill-opacity="1" /><path clip-path="url(#clip020)" d="M1459.68 1465.22 Q1463.03 1465.94 1464.91 1468.2 Q1466.81 1470.47 1466.81 1473.81 Q1466.81 1478.92 1463.29 1481.72 Q1459.77 1484.52 1453.29 1484.52 Q1451.11 1484.52 1448.8 1484.08 Q1446.5 1483.67 1444.05 1482.81 L1444.05 1478.3 Q1446 1479.43 1448.31 1480.01 Q1450.62 1480.59 1453.15 1480.59 Q1457.55 1480.59 1459.84 1478.85 Q1462.15 1477.12 1462.15 1473.81 Q1462.15 1470.75 1460 1469.04 Q1457.87 1467.3 1454.05 1467.3 L1450.02 1467.3 L1450.02 1463.46 L1454.24 1463.46 Q1457.69 1463.46 1459.51 1462.09 Q1461.34 1460.7 1461.34 1458.11 Q1461.34 1455.45 1459.44 1454.04 Q1457.57 1452.6 1454.05 1452.6 Q1452.13 1452.6 1449.93 1453.02 Q1447.73 1453.44 1445.09 1454.31 L1445.09 1450.15 Q1447.75 1449.41 1450.07 1449.04 Q1452.41 1448.67 1454.47 1448.67 Q1459.79 1448.67 1462.89 1451.1 Q1466 1453.5 1466 1457.63 Q1466 1460.5 1464.35 1462.49 Q1462.71 1464.45 1459.68 1465.22 Z" fill="#000000" fill-rule="evenodd" fill-opacity="1" /><path clip-path="url(#clip020)" d="M1485.67 1452.37 Q1482.06 1452.37 1480.23 1455.94 Q1478.43 1459.48 1478.43 1466.61 Q1478.43 1473.71 1480.23 1477.28 Q1482.06 1480.82 1485.67 1480.82 Q1489.31 1480.82 1491.11 1477.28 Q1492.94 1473.71 1492.94 1466.61 Q1492.94 1459.48 1491.11 1455.94 Q1489.31 1452.37 1485.67 1452.37 M1485.67 1448.67 Q1491.48 1448.67 1494.54 1453.27 Q1497.62 1457.86 1497.62 1466.61 Q1497.62 1475.33 1494.54 1479.94 Q1491.48 1484.52 1485.67 1484.52 Q1479.86 1484.52 1476.78 1479.94 Q1473.73 1475.33 1473.73 1466.61 Q1473.73 1457.86 1476.78 1453.27 Q1479.86 1448.67 1485.67 1448.67 Z" fill="#000000" fill-rule="evenodd" fill-opacity="1" /><path clip-path="url(#clip020)" d="M1515.83 1452.37 Q1512.22 1452.37 1510.39 1455.94 Q1508.59 1459.48 1508.59 1466.61 Q1508.59 1473.71 1510.39 1477.28 Q1512.22 1480.82 1515.83 1480.82 Q1519.47 1480.82 1521.27 1477.28 Q1523.1 1473.71 1523.1 1466.61 Q1523.1 1459.48 1521.27 1455.94 Q1519.47 1452.37 1515.83 1452.37 M1515.83 1448.67 Q1521.64 1448.67 1524.7 1453.27 Q1527.78 1457.86 1527.78 1466.61 Q1527.78 1475.33 1524.7 1479.94 Q1521.64 1484.52 1515.83 1484.52 Q1510.02 1484.52 1506.94 1479.94 Q1503.89 1475.33 1503.89 1466.61 Q1503.89 1457.86 1506.94 1453.27 Q1510.02 1448.67 1515.83 1448.67 Z" fill="#000000" fill-rule="evenodd" fill-opacity="1" /><path clip-path="url(#clip020)" d="M1862.24 1453.37 L1850.44 1471.81 L1862.24 1471.81 L1862.24 1453.37 M1861.02 1449.29 L1866.9 1449.29 L1866.9 1471.81 L1871.83 1471.81 L1871.83 1475.7 L1866.9 1475.7 L1866.9 1483.85 L1862.24 1483.85 L1862.24 1475.7 L1846.64 1475.7 L1846.64 1471.19 L1861.02 1449.29 Z" fill="#000000" fill-rule="evenodd" fill-opacity="1" /><path clip-path="url(#clip020)" d="M1889.56 1452.37 Q1885.95 1452.37 1884.12 1455.94 Q1882.31 1459.48 1882.31 1466.61 Q1882.31 1473.71 1884.12 1477.28 Q1885.95 1480.82 1889.56 1480.82 Q1893.19 1480.82 1895 1477.28 Q1896.83 1473.71 1896.83 1466.61 Q1896.83 1459.48 1895 1455.94 Q1893.19 1452.37 1889.56 1452.37 M1889.56 1448.67 Q1895.37 1448.67 1898.42 1453.27 Q1901.5 1457.86 1901.5 1466.61 Q1901.5 1475.33 1898.42 1479.94 Q1895.37 1484.52 1889.56 1484.52 Q1883.75 1484.52 1880.67 1479.94 Q1877.61 1475.33 1877.61 1466.61 Q1877.61 1457.86 1880.67 1453.27 Q1883.75 1448.67 1889.56 1448.67 Z" fill="#000000" fill-rule="evenodd" fill-opacity="1" /><path clip-path="url(#clip020)" d="M1919.72 1452.37 Q1916.11 1452.37 1914.28 1455.94 Q1912.47 1459.48 1912.47 1466.61 Q1912.47 1473.71 1914.28 1477.28 Q1916.11 1480.82 1919.72 1480.82 Q1923.35 1480.82 1925.16 1477.28 Q1926.99 1473.71 1926.99 1466.61 Q1926.99 1459.48 1925.16 1455.94 Q1923.35 1452.37 1919.72 1452.37 M1919.72 1448.67 Q1925.53 1448.67 1928.59 1453.27 Q1931.66 1457.86 1931.66 1466.61 Q1931.66 1475.33 1928.59 1479.94 Q1925.53 1484.52 1919.72 1484.52 Q1913.91 1484.52 1910.83 1479.94 Q1907.78 1475.33 1907.78 1466.61 Q1907.78 1457.86 1910.83 1453.27 Q1913.91 1448.67 1919.72 1448.67 Z" fill="#000000" fill-rule="evenodd" fill-opacity="1" /><path clip-path="url(#clip020)" d="M2252.01 1449.29 L2270.37 1449.29 L2270.37 1453.23 L2256.29 1453.23 L2256.29 1461.7 Q2257.31 1461.35 2258.33 1461.19 Q2259.35 1461 2260.37 1461 Q2266.15 1461 2269.53 1464.18 Q2272.91 1467.35 2272.91 1472.76 Q2272.91 1478.34 2269.44 1481.44 Q2265.97 1484.52 2259.65 1484.52 Q2257.47 1484.52 2255.2 1484.15 Q2252.96 1483.78 2250.55 1483.04 L2250.55 1478.34 Q2252.63 1479.48 2254.86 1480.03 Q2257.08 1480.59 2259.56 1480.59 Q2263.56 1480.59 2265.9 1478.48 Q2268.24 1476.38 2268.24 1472.76 Q2268.24 1469.15 2265.9 1467.05 Q2263.56 1464.94 2259.56 1464.94 Q2257.68 1464.94 2255.81 1465.36 Q2253.95 1465.77 2252.01 1466.65 L2252.01 1449.29 Z" fill="#000000" fill-rule="evenodd" fill-opacity="1" /><path clip-path="url(#clip020)" d="M2292.12 1452.37 Q2288.51 1452.37 2286.69 1455.94 Q2284.88 1459.48 2284.88 1466.61 Q2284.88 1473.71 2286.69 1477.28 Q2288.51 1480.82 2292.12 1480.82 Q2295.76 1480.82 2297.56 1477.28 Q2299.39 1473.71 2299.39 1466.61 Q2299.39 1459.48 2297.56 1455.94 Q2295.76 1452.37 2292.12 1452.37 M2292.12 1448.67 Q2297.94 1448.67 2300.99 1453.27 Q2304.07 1457.86 2304.07 1466.61 Q2304.07 1475.33 2300.99 1479.94 Q2297.94 1484.52 2292.12 1484.52 Q2286.31 1484.52 2283.24 1479.94 Q2280.18 1475.33 2280.18 1466.61 Q2280.18 1457.86 2283.24 1453.27 Q2286.31 1448.67 2292.12 1448.67 Z" fill="#000000" fill-rule="evenodd" fill-opacity="1" /><path clip-path="url(#clip020)" d="M2322.29 1452.37 Q2318.68 1452.37 2316.85 1455.94 Q2315.04 1459.48 2315.04 1466.61 Q2315.04 1473.71 2316.85 1477.28 Q2318.68 1480.82 2322.29 1480.82 Q2325.92 1480.82 2327.73 1477.28 Q2329.56 1473.71 2329.56 1466.61 Q2329.56 1459.48 2327.73 1455.94 Q2325.92 1452.37 2322.29 1452.37 M2322.29 1448.67 Q2328.1 1448.67 2331.15 1453.27 Q2334.23 1457.86 2334.23 1466.61 Q2334.23 1475.33 2331.15 1479.94 Q2328.1 1484.52 2322.29 1484.52 Q2316.48 1484.52 2313.4 1479.94 Q2310.34 1475.33 2310.34 1466.61 Q2310.34 1457.86 2313.4 1453.27 Q2316.48 1448.67 2322.29 1448.67 Z" fill="#000000" fill-rule="evenodd" fill-opacity="1" /><path clip-path="url(#clip020)" d="M1061 1520.52 L1091.04 1520.52 L1091.04 1525.93 L1067.43 1525.93 L1067.43 1540 L1090.06 1540 L1090.06 1545.41 L1067.43 1545.41 L1067.43 1562.63 L1091.62 1562.63 L1091.62 1568.04 L1061 1568.04 L1061 1520.52 Z" fill="#000000" fill-rule="evenodd" fill-opacity="1" /><path clip-path="url(#clip020)" d="M1107.59 1562.7 L1107.59 1581.6 L1101.71 1581.6 L1101.71 1532.4 L1107.59 1532.4 L1107.59 1537.81 Q1109.44 1534.62 1112.24 1533.1 Q1115.07 1531.54 1118.99 1531.54 Q1125.48 1531.54 1129.52 1536.69 Q1133.6 1541.85 1133.6 1550.25 Q1133.6 1558.65 1129.52 1563.81 Q1125.48 1568.97 1118.99 1568.97 Q1115.07 1568.97 1112.24 1567.44 Q1109.44 1565.88 1107.59 1562.7 M1127.52 1550.25 Q1127.52 1543.79 1124.84 1540.13 Q1122.2 1536.44 1117.56 1536.44 Q1112.91 1536.44 1110.24 1540.13 Q1107.59 1543.79 1107.59 1550.25 Q1107.59 1556.71 1110.24 1560.4 Q1112.91 1564.07 1117.56 1564.07 Q1122.2 1564.07 1124.84 1560.4 Q1127.52 1556.71 1127.52 1550.25 Z" fill="#000000" fill-rule="evenodd" fill-opacity="1" /><path clip-path="url(#clip020)" d="M1143.31 1532.4 L1149.16 1532.4 L1149.16 1568.04 L1143.31 1568.04 L1143.31 1532.4 M1143.31 1518.52 L1149.16 1518.52 L1149.16 1525.93 L1143.31 1525.93 L1143.31 1518.52 Z" fill="#000000" fill-rule="evenodd" fill-opacity="1" /><path clip-path="url(#clip020)" d="M1184.14 1533.45 L1184.14 1538.98 Q1181.66 1537.71 1178.99 1537.07 Q1176.31 1536.44 1173.45 1536.44 Q1169.09 1536.44 1166.89 1537.77 Q1164.73 1539.11 1164.73 1541.79 Q1164.73 1543.82 1166.29 1545 Q1167.85 1546.15 1172.56 1547.2 L1174.56 1547.64 Q1180.8 1548.98 1183.41 1551.43 Q1186.05 1553.85 1186.05 1558.21 Q1186.05 1563.17 1182.1 1566.07 Q1178.19 1568.97 1171.31 1568.97 Q1168.45 1568.97 1165.33 1568.39 Q1162.24 1567.85 1158.81 1566.74 L1158.81 1560.69 Q1162.05 1562.38 1165.2 1563.24 Q1168.35 1564.07 1171.44 1564.07 Q1175.58 1564.07 1177.81 1562.66 Q1180.04 1561.23 1180.04 1558.65 Q1180.04 1556.27 1178.41 1554.99 Q1176.82 1553.72 1171.38 1552.54 L1169.34 1552.07 Q1163.9 1550.92 1161.48 1548.56 Q1159.06 1546.18 1159.06 1542.04 Q1159.06 1537.01 1162.63 1534.27 Q1166.19 1531.54 1172.75 1531.54 Q1175.99 1531.54 1178.86 1532.01 Q1181.72 1532.49 1184.14 1533.45 Z" fill="#000000" fill-rule="evenodd" fill-opacity="1" /><path clip-path="url(#clip020)" d="M1209.19 1536.5 Q1204.48 1536.5 1201.74 1540.19 Q1199.01 1543.85 1199.01 1550.25 Q1199.01 1556.65 1201.71 1560.34 Q1204.45 1564 1209.19 1564 Q1213.87 1564 1216.61 1560.31 Q1219.34 1556.62 1219.34 1550.25 Q1219.34 1543.92 1216.61 1540.23 Q1213.87 1536.5 1209.19 1536.5 M1209.19 1531.54 Q1216.83 1531.54 1221.19 1536.5 Q1225.55 1541.47 1225.55 1550.25 Q1225.55 1559 1221.19 1564 Q1216.83 1568.97 1209.19 1568.97 Q1201.52 1568.97 1197.16 1564 Q1192.83 1559 1192.83 1550.25 Q1192.83 1541.47 1197.16 1536.5 Q1201.52 1531.54 1209.19 1531.54 Z" fill="#000000" fill-rule="evenodd" fill-opacity="1" /><path clip-path="url(#clip020)" d="M1258.72 1537.81 L1258.72 1518.52 L1264.57 1518.52 L1264.57 1568.04 L1258.72 1568.04 L1258.72 1562.7 Q1256.87 1565.88 1254.04 1567.44 Q1251.24 1568.97 1247.29 1568.97 Q1240.83 1568.97 1236.75 1563.81 Q1232.71 1558.65 1232.71 1550.25 Q1232.71 1541.85 1236.75 1536.69 Q1240.83 1531.54 1247.29 1531.54 Q1251.24 1531.54 1254.04 1533.1 Q1256.87 1534.62 1258.72 1537.81 M1238.76 1550.25 Q1238.76 1556.71 1241.4 1560.4 Q1244.07 1564.07 1248.72 1564.07 Q1253.37 1564.07 1256.04 1560.4 Q1258.72 1556.71 1258.72 1550.25 Q1258.72 1543.79 1256.04 1540.13 Q1253.37 1536.44 1248.72 1536.44 Q1244.07 1536.44 1241.4 1540.13 Q1238.76 1543.79 1238.76 1550.25 Z" fill="#000000" fill-rule="evenodd" fill-opacity="1" /><path clip-path="url(#clip020)" d="M1307.13 1548.76 L1307.13 1551.62 L1280.2 1551.62 Q1280.58 1557.67 1283.83 1560.85 Q1287.11 1564 1292.93 1564 Q1296.31 1564 1299.46 1563.17 Q1302.64 1562.35 1305.76 1560.69 L1305.76 1566.23 Q1302.61 1567.57 1299.3 1568.27 Q1295.99 1568.97 1292.58 1568.97 Q1284.05 1568.97 1279.05 1564 Q1274.09 1559.04 1274.09 1550.57 Q1274.09 1541.82 1278.8 1536.69 Q1283.54 1531.54 1291.56 1531.54 Q1298.76 1531.54 1302.93 1536.18 Q1307.13 1540.8 1307.13 1548.76 M1301.27 1547.04 Q1301.21 1542.23 1298.57 1539.37 Q1295.96 1536.5 1291.63 1536.5 Q1286.72 1536.5 1283.76 1539.27 Q1280.84 1542.04 1280.39 1547.07 L1301.27 1547.04 Z" fill="#000000" fill-rule="evenodd" fill-opacity="1" /><path clip-path="url(#clip020)" d="M1339.46 1533.45 L1339.46 1538.98 Q1336.98 1537.71 1334.31 1537.07 Q1331.63 1536.44 1328.77 1536.44 Q1324.41 1536.44 1322.21 1537.77 Q1320.05 1539.11 1320.05 1541.79 Q1320.05 1543.82 1321.61 1545 Q1323.17 1546.15 1327.88 1547.2 L1329.88 1547.64 Q1336.12 1548.98 1338.73 1551.43 Q1341.37 1553.85 1341.37 1558.21 Q1341.37 1563.17 1337.43 1566.07 Q1333.51 1568.97 1326.64 1568.97 Q1323.77 1568.97 1320.65 1568.39 Q1317.57 1567.85 1314.13 1566.74 L1314.13 1560.69 Q1317.38 1562.38 1320.53 1563.24 Q1323.68 1564.07 1326.77 1564.07 Q1330.9 1564.07 1333.13 1562.66 Q1335.36 1561.23 1335.36 1558.65 Q1335.36 1556.27 1333.74 1554.99 Q1332.14 1553.72 1326.7 1552.54 L1324.66 1552.07 Q1319.22 1550.92 1316.8 1548.56 Q1314.38 1546.18 1314.38 1542.04 Q1314.38 1537.01 1317.95 1534.27 Q1321.51 1531.54 1328.07 1531.54 Q1331.32 1531.54 1334.18 1532.01 Q1337.05 1532.49 1339.46 1533.45 Z" fill="#000000" fill-rule="evenodd" fill-opacity="1" /><path clip-path="url(#clip020)" d="M1381.83 1520.52 L1387.24 1520.52 L1370.69 1574.09 L1365.28 1574.09 L1381.83 1520.52 Z" fill="#000000" fill-rule="evenodd" fill-opacity="1" /><path clip-path="url(#clip020)" d="M1416.04 1562.63 L1426.55 1562.63 L1426.55 1526.38 L1415.12 1528.67 L1415.12 1522.82 L1426.48 1520.52 L1432.91 1520.52 L1432.91 1562.63 L1443.42 1562.63 L1443.42 1568.04 L1416.04 1568.04 L1416.04 1562.63 Z" fill="#000000" fill-rule="evenodd" fill-opacity="1" /><path clip-path="url(#clip020)" d="M1470.15 1524.76 Q1465.19 1524.76 1462.67 1529.66 Q1460.19 1534.53 1460.19 1544.33 Q1460.19 1554.1 1462.67 1559 Q1465.19 1563.87 1470.15 1563.87 Q1475.15 1563.87 1477.63 1559 Q1480.15 1554.1 1480.15 1544.33 Q1480.15 1534.53 1477.63 1529.66 Q1475.15 1524.76 1470.15 1524.76 M1470.15 1519.66 Q1478.14 1519.66 1482.34 1526 Q1486.58 1532.3 1486.58 1544.33 Q1486.58 1556.33 1482.34 1562.66 Q1478.14 1568.97 1470.15 1568.97 Q1462.16 1568.97 1457.93 1562.66 Q1453.73 1556.33 1453.73 1544.33 Q1453.73 1532.3 1457.93 1526 Q1462.16 1519.66 1470.15 1519.66 Z" fill="#000000" fill-rule="evenodd" fill-opacity="1" /><polyline clip-path="url(#clip022)" style="stroke:#000000; stroke-linecap:butt; stroke-linejoin:round; stroke-width:2; stroke-opacity:0.1; fill:none" points="
  219.866,1216.95 2352.76,1216.95 
  "/>
<polyline clip-path="url(#clip022)" style="stroke:#000000; stroke-linecap:butt; stroke-linejoin:round; stroke-width:2; stroke-opacity:0.1; fill:none" points="
  219.866,952.779 2352.76,952.779 
  "/>
<polyline clip-path="url(#clip022)" style="stroke:#000000; stroke-linecap:butt; stroke-linejoin:round; stroke-width:2; stroke-opacity:0.1; fill:none" points="
  219.866,688.605 2352.76,688.605 
  "/>
<polyline clip-path="url(#clip022)" style="stroke:#000000; stroke-linecap:butt; stroke-linejoin:round; stroke-width:2; stroke-opacity:0.1; fill:none" points="
  219.866,424.431 2352.76,424.431 
  "/>
<polyline clip-path="url(#clip022)" style="stroke:#000000; stroke-linecap:butt; stroke-linejoin:round; stroke-width:2; stroke-opacity:0.1; fill:none" points="
  219.866,160.256 2352.76,160.256 
  "/>
<polyline clip-path="url(#clip020)" style="stroke:#000000; stroke-linecap:butt; stroke-linejoin:round; stroke-width:4; stroke-opacity:1; fill:none" points="
  219.866,1423.18 219.866,123.472 
  "/>
<polyline clip-path="url(#clip020)" style="stroke:#000000; stroke-linecap:butt; stroke-linejoin:round; stroke-width:4; stroke-opacity:1; fill:none" points="
  2352.76,1423.18 2352.76,123.472 
  "/>
<polyline clip-path="url(#clip020)" style="stroke:#000000; stroke-linecap:butt; stroke-linejoin:round; stroke-width:4; stroke-opacity:1; fill:none" points="
  219.866,1216.95 245.461,1216.95 
  "/>
<polyline clip-path="url(#clip020)" style="stroke:#000000; stroke-linecap:butt; stroke-linejoin:round; stroke-width:4; stroke-opacity:1; fill:none" points="
  219.866,952.779 245.461,952.779 
  "/>
<polyline clip-path="url(#clip020)" style="stroke:#000000; stroke-linecap:butt; stroke-linejoin:round; stroke-width:4; stroke-opacity:1; fill:none" points="
  219.866,688.605 245.461,688.605 
  "/>
<polyline clip-path="url(#clip020)" style="stroke:#000000; stroke-linecap:butt; stroke-linejoin:round; stroke-width:4; stroke-opacity:1; fill:none" points="
  219.866,424.431 245.461,424.431 
  "/>
<polyline clip-path="url(#clip020)" style="stroke:#000000; stroke-linecap:butt; stroke-linejoin:round; stroke-width:4; stroke-opacity:1; fill:none" points="
  219.866,160.256 245.461,160.256 
  "/>
<path clip-path="url(#clip020)" d="M128.288 1202.75 Q124.677 1202.75 122.848 1206.32 Q121.043 1209.86 121.043 1216.99 Q121.043 1224.09 122.848 1227.66 Q124.677 1231.2 128.288 1231.2 Q131.922 1231.2 133.728 1227.66 Q135.556 1224.09 135.556 1216.99 Q135.556 1209.86 133.728 1206.32 Q131.922 1202.75 128.288 1202.75 M128.288 1199.05 Q134.098 1199.05 137.154 1203.65 Q140.232 1208.24 140.232 1216.99 Q140.232 1225.72 137.154 1230.32 Q134.098 1234.9 128.288 1234.9 Q122.478 1234.9 119.399 1230.32 Q116.343 1225.72 116.343 1216.99 Q116.343 1208.24 119.399 1203.65 Q122.478 1199.05 128.288 1199.05 Z" fill="#000000" fill-rule="evenodd" fill-opacity="1" /><path clip-path="url(#clip020)" d="M148.45 1228.35 L153.334 1228.35 L153.334 1234.23 L148.45 1234.23 L148.45 1228.35 Z" fill="#000000" fill-rule="evenodd" fill-opacity="1" /><path clip-path="url(#clip020)" d="M167.547 1230.3 L183.866 1230.3 L183.866 1234.23 L161.922 1234.23 L161.922 1230.3 Q164.584 1227.54 169.167 1222.91 Q173.774 1218.26 174.954 1216.92 Q177.2 1214.4 178.079 1212.66 Q178.982 1210.9 178.982 1209.21 Q178.982 1206.46 177.038 1204.72 Q175.116 1202.98 172.014 1202.98 Q169.815 1202.98 167.362 1203.75 Q164.931 1204.51 162.153 1206.06 L162.153 1201.34 Q164.977 1200.21 167.431 1199.63 Q169.885 1199.05 171.922 1199.05 Q177.292 1199.05 180.487 1201.73 Q183.681 1204.42 183.681 1208.91 Q183.681 1211.04 182.871 1212.96 Q182.084 1214.86 179.977 1217.45 Q179.399 1218.12 176.297 1221.34 Q173.195 1224.53 167.547 1230.3 Z" fill="#000000" fill-rule="evenodd" fill-opacity="1" /><path clip-path="url(#clip020)" d="M126.205 938.578 Q122.593 938.578 120.765 942.143 Q118.959 945.684 118.959 952.814 Q118.959 959.92 120.765 963.485 Q122.593 967.027 126.205 967.027 Q129.839 967.027 131.644 963.485 Q133.473 959.92 133.473 952.814 Q133.473 945.684 131.644 942.143 Q129.839 938.578 126.205 938.578 M126.205 934.874 Q132.015 934.874 135.07 939.481 Q138.149 944.064 138.149 952.814 Q138.149 961.541 135.07 966.147 Q132.015 970.73 126.205 970.73 Q120.394 970.73 117.316 966.147 Q114.26 961.541 114.26 952.814 Q114.26 944.064 117.316 939.481 Q120.394 934.874 126.205 934.874 Z" fill="#000000" fill-rule="evenodd" fill-opacity="1" /><path clip-path="url(#clip020)" d="M146.366 964.18 L151.251 964.18 L151.251 970.059 L146.366 970.059 L146.366 964.18 Z" fill="#000000" fill-rule="evenodd" fill-opacity="1" /><path clip-path="url(#clip020)" d="M174.283 939.573 L162.477 958.022 L174.283 958.022 L174.283 939.573 M173.056 935.499 L178.936 935.499 L178.936 958.022 L183.866 958.022 L183.866 961.911 L178.936 961.911 L178.936 970.059 L174.283 970.059 L174.283 961.911 L158.681 961.911 L158.681 957.397 L173.056 935.499 Z" fill="#000000" fill-rule="evenodd" fill-opacity="1" /><path clip-path="url(#clip020)" d="M126.529 674.404 Q122.918 674.404 121.089 677.968 Q119.283 681.51 119.283 688.64 Q119.283 695.746 121.089 699.311 Q122.918 702.853 126.529 702.853 Q130.163 702.853 131.968 699.311 Q133.797 695.746 133.797 688.64 Q133.797 681.51 131.968 677.968 Q130.163 674.404 126.529 674.404 M126.529 670.7 Q132.339 670.7 135.394 675.306 Q138.473 679.89 138.473 688.64 Q138.473 697.366 135.394 701.973 Q132.339 706.556 126.529 706.556 Q120.718 706.556 117.64 701.973 Q114.584 697.366 114.584 688.64 Q114.584 679.89 117.64 675.306 Q120.718 670.7 126.529 670.7 Z" fill="#000000" fill-rule="evenodd" fill-opacity="1" /><path clip-path="url(#clip020)" d="M146.691 700.005 L151.575 700.005 L151.575 705.885 L146.691 705.885 L146.691 700.005 Z" fill="#000000" fill-rule="evenodd" fill-opacity="1" /><path clip-path="url(#clip020)" d="M172.339 686.741 Q169.19 686.741 167.339 688.894 Q165.51 691.047 165.51 694.797 Q165.51 698.524 167.339 700.7 Q169.19 702.853 172.339 702.853 Q175.487 702.853 177.315 700.7 Q179.167 698.524 179.167 694.797 Q179.167 691.047 177.315 688.894 Q175.487 686.741 172.339 686.741 M181.621 672.089 L181.621 676.348 Q179.862 675.515 178.056 675.075 Q176.274 674.635 174.514 674.635 Q169.885 674.635 167.431 677.76 Q165.001 680.885 164.653 687.204 Q166.019 685.191 168.079 684.126 Q170.139 683.038 172.616 683.038 Q177.825 683.038 180.834 686.209 Q183.866 689.357 183.866 694.797 Q183.866 700.121 180.718 703.339 Q177.57 706.556 172.339 706.556 Q166.343 706.556 163.172 701.973 Q160.001 697.366 160.001 688.64 Q160.001 680.445 163.89 675.584 Q167.778 670.7 174.329 670.7 Q176.089 670.7 177.871 671.047 Q179.676 671.394 181.621 672.089 Z" fill="#000000" fill-rule="evenodd" fill-opacity="1" /><path clip-path="url(#clip020)" d="M126.783 410.229 Q123.172 410.229 121.343 413.794 Q119.538 417.336 119.538 424.465 Q119.538 431.572 121.343 435.137 Q123.172 438.678 126.783 438.678 Q130.417 438.678 132.223 435.137 Q134.052 431.572 134.052 424.465 Q134.052 417.336 132.223 413.794 Q130.417 410.229 126.783 410.229 M126.783 406.526 Q132.593 406.526 135.649 411.132 Q138.728 415.715 138.728 424.465 Q138.728 433.192 135.649 437.799 Q132.593 442.382 126.783 442.382 Q120.973 442.382 117.894 437.799 Q114.839 433.192 114.839 424.465 Q114.839 415.715 117.894 411.132 Q120.973 406.526 126.783 406.526 Z" fill="#000000" fill-rule="evenodd" fill-opacity="1" /><path clip-path="url(#clip020)" d="M146.945 435.831 L151.829 435.831 L151.829 441.711 L146.945 441.711 L146.945 435.831 Z" fill="#000000" fill-rule="evenodd" fill-opacity="1" /><path clip-path="url(#clip020)" d="M172.014 425.299 Q168.681 425.299 166.76 427.081 Q164.862 428.863 164.862 431.988 Q164.862 435.113 166.76 436.896 Q168.681 438.678 172.014 438.678 Q175.348 438.678 177.269 436.896 Q179.19 435.09 179.19 431.988 Q179.19 428.863 177.269 427.081 Q175.371 425.299 172.014 425.299 M167.339 423.308 Q164.329 422.567 162.64 420.507 Q160.973 418.447 160.973 415.484 Q160.973 411.34 163.913 408.933 Q166.876 406.526 172.014 406.526 Q177.176 406.526 180.116 408.933 Q183.056 411.34 183.056 415.484 Q183.056 418.447 181.366 420.507 Q179.7 422.567 176.714 423.308 Q180.093 424.095 181.968 426.387 Q183.866 428.678 183.866 431.988 Q183.866 437.012 180.788 439.697 Q177.732 442.382 172.014 442.382 Q166.297 442.382 163.218 439.697 Q160.163 437.012 160.163 431.988 Q160.163 428.678 162.061 426.387 Q163.959 424.095 167.339 423.308 M165.626 415.924 Q165.626 418.609 167.292 420.114 Q168.982 421.618 172.014 421.618 Q175.024 421.618 176.714 420.114 Q178.426 418.609 178.426 415.924 Q178.426 413.239 176.714 411.734 Q175.024 410.229 172.014 410.229 Q168.982 410.229 167.292 411.734 Q165.626 413.239 165.626 415.924 Z" fill="#000000" fill-rule="evenodd" fill-opacity="1" /><path clip-path="url(#clip020)" d="M117.501 173.601 L125.14 173.601 L125.14 147.236 L116.83 148.902 L116.83 144.643 L125.093 142.976 L129.769 142.976 L129.769 173.601 L137.408 173.601 L137.408 177.536 L117.501 177.536 L117.501 173.601 Z" fill="#000000" fill-rule="evenodd" fill-opacity="1" /><path clip-path="url(#clip020)" d="M146.853 171.657 L151.737 171.657 L151.737 177.536 L146.853 177.536 L146.853 171.657 Z" fill="#000000" fill-rule="evenodd" fill-opacity="1" /><path clip-path="url(#clip020)" d="M171.922 146.055 Q168.311 146.055 166.482 149.62 Q164.677 153.161 164.677 160.291 Q164.677 167.398 166.482 170.962 Q168.311 174.504 171.922 174.504 Q175.556 174.504 177.362 170.962 Q179.19 167.398 179.19 160.291 Q179.19 153.161 177.362 149.62 Q175.556 146.055 171.922 146.055 M171.922 142.351 Q177.732 142.351 180.788 146.958 Q183.866 151.541 183.866 160.291 Q183.866 169.018 180.788 173.624 Q177.732 178.208 171.922 178.208 Q166.112 178.208 163.033 173.624 Q159.978 169.018 159.978 160.291 Q159.978 151.541 163.033 146.958 Q166.112 142.351 171.922 142.351 Z" fill="#000000" fill-rule="evenodd" fill-opacity="1" /><path clip-path="url(#clip020)" d="M22.818 1005.98 L46.4666 1014.7 L46.4666 997.224 L22.818 1005.98 M16.4842 1009.61 L16.4842 1002.32 L64.0042 984.206 L64.0042 990.89 L51.8138 995.219 L51.8138 1016.64 L64.0042 1020.97 L64.0042 1027.75 L16.4842 1009.61 Z" fill="#000000" fill-rule="evenodd" fill-opacity="1" /><path clip-path="url(#clip020)" d="M28.3562 985.543 L28.3562 979.336 L58.275 968.196 L28.3562 957.056 L28.3562 950.85 L64.0042 964.218 L64.0042 972.175 L28.3562 985.543 Z" fill="#000000" fill-rule="evenodd" fill-opacity="1" /><path clip-path="url(#clip020)" d="M44.7161 912.273 L47.5806 912.273 L47.5806 939.2 Q53.6281 938.818 56.8109 935.572 Q59.9619 932.294 59.9619 926.469 Q59.9619 923.095 59.1344 919.944 Q58.3069 916.761 56.6518 913.642 L62.1899 913.642 Q63.5267 916.793 64.227 920.103 Q64.9272 923.413 64.9272 926.819 Q64.9272 935.349 59.9619 940.346 Q54.9967 945.311 46.5303 945.311 Q37.7774 945.311 32.6531 940.601 Q27.4968 935.858 27.4968 927.838 Q27.4968 920.644 32.1438 916.475 Q36.7589 912.273 44.7161 912.273 M42.9973 918.13 Q38.1912 918.194 35.3266 920.835 Q32.4621 923.445 32.4621 927.774 Q32.4621 932.676 35.2312 935.636 Q38.0002 938.564 43.0292 939.009 L42.9973 918.13 Z" fill="#000000" fill-rule="evenodd" fill-opacity="1" /><path clip-path="url(#clip020)" d="M33.8307 882.005 Q33.2578 882.991 33.0032 884.169 Q32.7167 885.315 32.7167 886.715 Q32.7167 891.68 35.9632 894.354 Q39.1779 896.996 45.2253 896.996 L64.0042 896.996 L64.0042 902.884 L28.3562 902.884 L28.3562 896.996 L33.8944 896.996 Q30.6479 895.15 29.0883 892.19 Q27.4968 889.23 27.4968 884.996 Q27.4968 884.392 27.5923 883.66 Q27.656 882.928 27.8151 882.036 L33.8307 882.005 Z" fill="#000000" fill-rule="evenodd" fill-opacity="1" /><path clip-path="url(#clip020)" d="M46.0847 859.661 Q46.0847 866.759 47.7079 869.496 Q49.3312 872.233 53.2461 872.233 Q56.3653 872.233 58.2114 870.196 Q60.0256 868.127 60.0256 864.594 Q60.0256 859.725 56.5881 856.796 Q53.1188 853.836 47.3897 853.836 L46.0847 853.836 L46.0847 859.661 M43.6657 847.98 L64.0042 847.98 L64.0042 853.836 L58.5933 853.836 Q61.8398 855.841 63.3994 858.833 Q64.9272 861.825 64.9272 866.154 Q64.9272 871.628 61.8716 874.875 Q58.7843 878.09 53.6281 878.09 Q47.6125 878.09 44.5569 874.079 Q41.5014 870.037 41.5014 862.048 L41.5014 853.836 L40.9285 853.836 Q36.8862 853.836 34.6901 856.51 Q32.4621 859.152 32.4621 863.958 Q32.4621 867.013 33.1941 869.91 Q33.9262 872.806 35.3903 875.48 L29.9795 875.48 Q28.7381 872.265 28.1334 869.241 Q27.4968 866.218 27.4968 863.353 Q27.4968 855.619 31.5072 851.799 Q35.5176 847.98 43.6657 847.98 Z" fill="#000000" fill-rule="evenodd" fill-opacity="1" /><path clip-path="url(#clip020)" d="M45.7664 812.459 Q39.4007 812.459 35.8996 815.101 Q32.3984 817.711 32.3984 822.453 Q32.3984 827.164 35.8996 829.806 Q39.4007 832.416 45.7664 832.416 Q52.1003 832.416 55.6014 829.806 Q59.1026 827.164 59.1026 822.453 Q59.1026 817.711 55.6014 815.101 Q52.1003 812.459 45.7664 812.459 M59.58 806.603 Q68.683 806.603 73.1071 810.645 Q77.5631 814.687 77.5631 823.026 Q77.5631 826.114 77.0857 828.851 Q76.6401 831.588 75.6852 834.166 L69.9879 834.166 Q71.3884 831.588 72.0568 829.074 Q72.7252 826.559 72.7252 823.949 Q72.7252 818.188 69.7015 815.324 Q66.7096 812.459 60.6303 812.459 L57.7339 812.459 Q60.885 814.273 62.4446 817.106 Q64.0042 819.939 64.0042 823.886 Q64.0042 830.442 59.0071 834.453 Q54.01 838.463 45.7664 838.463 Q37.491 838.463 32.4939 834.453 Q27.4968 830.442 27.4968 823.886 Q27.4968 819.939 29.0564 817.106 Q30.616 814.273 33.7671 812.459 L28.3562 812.459 L28.3562 806.603 L59.58 806.603 Z" fill="#000000" fill-rule="evenodd" fill-opacity="1" /><path clip-path="url(#clip020)" d="M44.7161 764.048 L47.5806 764.048 L47.5806 790.975 Q53.6281 790.593 56.8109 787.346 Q59.9619 784.068 59.9619 778.243 Q59.9619 774.87 59.1344 771.719 Q58.3069 768.536 56.6518 765.417 L62.1899 765.417 Q63.5267 768.568 64.227 771.878 Q64.9272 775.188 64.9272 778.594 Q64.9272 787.124 59.9619 792.121 Q54.9967 797.086 46.5303 797.086 Q37.7774 797.086 32.6531 792.375 Q27.4968 787.633 27.4968 779.612 Q27.4968 772.419 32.1438 768.249 Q36.7589 764.048 44.7161 764.048 M42.9973 769.904 Q38.1912 769.968 35.3266 772.61 Q32.4621 775.22 32.4621 779.548 Q32.4621 784.45 35.2312 787.41 Q38.0002 790.338 43.0292 790.784 L42.9973 769.904 Z" fill="#000000" fill-rule="evenodd" fill-opacity="1" /><path clip-path="url(#clip020)" d="M14.479 715.669 L19.3487 715.669 L19.3487 721.27 Q19.3487 724.421 20.6219 725.663 Q21.895 726.872 25.2052 726.872 L28.3562 726.872 L28.3562 717.228 L32.9077 717.228 L32.9077 726.872 L64.0042 726.872 L64.0042 732.761 L32.9077 732.761 L32.9077 738.362 L28.3562 738.362 L28.3562 732.761 L25.8736 732.761 Q19.9216 732.761 17.2162 729.991 Q14.479 727.222 14.479 721.207 L14.479 715.669 Z" fill="#000000" fill-rule="evenodd" fill-opacity="1" /><path clip-path="url(#clip020)" d="M28.3562 710.767 L28.3562 704.911 L64.0042 704.911 L64.0042 710.767 L28.3562 710.767 M14.479 710.767 L14.479 704.911 L21.895 704.911 L21.895 710.767 L14.479 710.767 Z" fill="#000000" fill-rule="evenodd" fill-opacity="1" /><path clip-path="url(#clip020)" d="M33.7671 669.199 L14.479 669.199 L14.479 663.342 L64.0042 663.342 L64.0042 669.199 L58.657 669.199 Q61.8398 671.045 63.3994 673.878 Q64.9272 676.679 64.9272 680.625 Q64.9272 687.087 59.771 691.161 Q54.6147 695.203 46.212 695.203 Q37.8093 695.203 32.6531 691.161 Q27.4968 687.087 27.4968 680.625 Q27.4968 676.679 29.0564 673.878 Q30.5842 671.045 33.7671 669.199 M46.212 689.155 Q52.6732 689.155 56.3653 686.514 Q60.0256 683.84 60.0256 679.193 Q60.0256 674.546 56.3653 671.873 Q52.6732 669.199 46.212 669.199 Q39.7508 669.199 36.0905 671.873 Q32.3984 674.546 32.3984 679.193 Q32.3984 683.84 36.0905 686.514 Q39.7508 689.155 46.212 689.155 Z" fill="#000000" fill-rule="evenodd" fill-opacity="1" /><path clip-path="url(#clip020)" d="M44.7161 620.788 L47.5806 620.788 L47.5806 647.715 Q53.6281 647.333 56.8109 644.086 Q59.9619 640.808 59.9619 634.983 Q59.9619 631.609 59.1344 628.458 Q58.3069 625.276 56.6518 622.156 L62.1899 622.156 Q63.5267 625.307 64.227 628.618 Q64.9272 631.928 64.9272 635.333 Q64.9272 643.863 59.9619 648.861 Q54.9967 653.826 46.5303 653.826 Q37.7774 653.826 32.6531 649.115 Q27.4968 644.373 27.4968 636.352 Q27.4968 629.159 32.1438 624.989 Q36.7589 620.788 44.7161 620.788 M42.9973 626.644 Q38.1912 626.708 35.3266 629.35 Q32.4621 631.96 32.4621 636.288 Q32.4621 641.19 35.2312 644.15 Q38.0002 647.078 43.0292 647.524 L42.9973 626.644 Z" fill="#000000" fill-rule="evenodd" fill-opacity="1" /><path clip-path="url(#clip020)" d="M14.479 611.176 L14.479 605.319 L64.0042 605.319 L64.0042 611.176 L14.479 611.176 Z" fill="#000000" fill-rule="evenodd" fill-opacity="1" /><path clip-path="url(#clip020)" d="M28.3562 593.065 L28.3562 587.209 L64.0042 587.209 L64.0042 593.065 L28.3562 593.065 M14.479 593.065 L14.479 587.209 L21.895 587.209 L21.895 593.065 L14.479 593.065 Z" fill="#000000" fill-rule="evenodd" fill-opacity="1" /><path clip-path="url(#clip020)" d="M18.2347 569.162 L28.3562 569.162 L28.3562 557.099 L32.9077 557.099 L32.9077 569.162 L52.2594 569.162 Q56.6199 569.162 57.8613 567.984 Q59.1026 566.775 59.1026 563.114 L59.1026 557.099 L64.0042 557.099 L64.0042 563.114 Q64.0042 569.894 61.4897 572.472 Q58.9434 575.05 52.2594 575.05 L32.9077 575.05 L32.9077 579.347 L28.3562 579.347 L28.3562 575.05 L18.2347 575.05 L18.2347 569.162 Z" fill="#000000" fill-rule="evenodd" fill-opacity="1" /><path clip-path="url(#clip020)" d="M67.3143 534.564 Q73.68 537.047 75.6216 539.402 Q77.5631 541.757 77.5631 545.704 L77.5631 550.383 L72.6615 550.383 L72.6615 546.946 Q72.6615 544.527 71.5157 543.19 Q70.3699 541.853 66.1048 540.23 L63.4312 539.179 L28.3562 553.598 L28.3562 547.391 L56.238 536.251 L28.3562 525.111 L28.3562 518.905 L67.3143 534.564 Z" fill="#000000" fill-rule="evenodd" fill-opacity="1" /><path clip-path="url(#clip020)" d="M711.184 16.7545 L711.184 25.383 Q707.052 21.5346 702.353 19.6307 Q697.694 17.7268 692.428 17.7268 Q682.058 17.7268 676.549 24.0867 Q671.039 30.4061 671.039 42.3968 Q671.039 54.3469 676.549 60.7069 Q682.058 67.0263 692.428 67.0263 Q697.694 67.0263 702.353 65.1223 Q707.052 63.2184 711.184 59.3701 L711.184 67.9175 Q706.89 70.8341 702.069 72.2924 Q697.289 73.7508 691.942 73.7508 Q678.21 73.7508 670.31 65.3654 Q662.411 56.9395 662.411 42.3968 Q662.411 27.8135 670.31 19.4281 Q678.21 11.0023 691.942 11.0023 Q697.37 11.0023 702.15 12.4606 Q706.971 13.8784 711.184 16.7545 Z" fill="#000000" fill-rule="evenodd" fill-opacity="1" /><path clip-path="url(#clip020)" d="M723.823 12.096 L734.841 12.096 L761.658 62.6918 L761.658 12.096 L769.598 12.096 L769.598 72.576 L758.58 72.576 L731.763 21.9802 L731.763 72.576 L723.823 72.576 L723.823 12.096 Z" fill="#000000" fill-rule="evenodd" fill-opacity="1" /><path clip-path="url(#clip020)" d="M810.431 17.6457 Q801.519 17.6457 796.253 24.2892 Q791.027 30.9327 791.027 42.3968 Q791.027 53.8203 796.253 60.4638 Q801.519 67.1073 810.431 67.1073 Q819.343 67.1073 824.528 60.4638 Q829.754 53.8203 829.754 42.3968 Q829.754 30.9327 824.528 24.2892 Q819.343 17.6457 810.431 17.6457 M810.431 11.0023 Q823.151 11.0023 830.767 19.5497 Q838.382 28.0566 838.382 42.3968 Q838.382 56.6965 830.767 65.2439 Q823.151 73.7508 810.431 73.7508 Q797.671 73.7508 790.015 65.2439 Q782.399 56.737 782.399 42.3968 Q782.399 28.0566 790.015 19.5497 Q797.671 11.0023 810.431 11.0023 Z" fill="#000000" fill-rule="evenodd" fill-opacity="1" /><path clip-path="url(#clip020)" d="M842.798 12.096 L893.961 12.096 L893.961 18.9825 L872.491 18.9825 L872.491 72.576 L864.268 72.576 L864.268 18.9825 L842.798 18.9825 L842.798 12.096 Z" fill="#000000" fill-rule="evenodd" fill-opacity="1" /><path clip-path="url(#clip020)" d="M927.907 9.54393 L935.361 9.54393 L935.361 72.576 L927.907 72.576 L927.907 9.54393 Z" fill="#000000" fill-rule="evenodd" fill-opacity="1" /><path clip-path="url(#clip020)" d="M989.765 48.0275 L989.765 51.6733 L955.494 51.6733 Q955.98 59.3701 960.112 63.421 Q964.284 67.4314 971.698 67.4314 Q975.992 67.4314 980.002 66.3781 Q984.053 65.3249 988.023 63.2184 L988.023 70.267 Q984.012 71.9684 979.799 72.8596 Q975.586 73.7508 971.252 73.7508 Q960.396 73.7508 954.036 67.4314 Q947.716 61.1119 947.716 50.3365 Q947.716 39.1965 953.712 32.6746 Q959.747 26.1121 969.956 26.1121 Q979.111 26.1121 984.417 32.0264 Q989.765 37.9003 989.765 48.0275 M982.311 45.84 Q982.23 39.7232 978.868 36.0774 Q975.546 32.4315 970.037 32.4315 Q963.798 32.4315 960.031 35.9558 Q956.304 39.4801 955.737 45.8805 L982.311 45.84 Z" fill="#000000" fill-rule="evenodd" fill-opacity="1" /><path clip-path="url(#clip020)" d="M1022.62 49.7694 Q1013.58 49.7694 1010.1 51.8354 Q1006.62 53.9013 1006.62 58.8839 Q1006.62 62.8538 1009.21 65.2034 Q1011.84 67.5124 1016.34 67.5124 Q1022.54 67.5124 1026.26 63.1374 Q1030.03 58.7219 1030.03 51.4303 L1030.03 49.7694 L1022.62 49.7694 M1037.48 46.6907 L1037.48 72.576 L1030.03 72.576 L1030.03 65.6895 Q1027.48 69.8214 1023.67 71.8063 Q1019.86 73.7508 1014.35 73.7508 Q1007.39 73.7508 1003.25 69.8619 Q999.163 65.9325 999.163 59.3701 Q999.163 51.7138 1004.27 47.825 Q1009.41 43.9361 1019.58 43.9361 L1030.03 43.9361 L1030.03 43.2069 Q1030.03 38.0623 1026.63 35.2672 Q1023.27 32.4315 1017.15 32.4315 Q1013.26 32.4315 1009.57 33.3632 Q1005.89 34.295 1002.48 36.1584 L1002.48 29.2718 Q1006.58 27.692 1010.42 26.9223 Q1014.27 26.1121 1017.92 26.1121 Q1027.76 26.1121 1032.62 31.2163 Q1037.48 36.3204 1037.48 46.6907 Z" fill="#000000" fill-rule="evenodd" fill-opacity="1" /><path clip-path="url(#clip020)" d="M1079.13 34.1734 Q1077.87 33.4443 1076.37 33.1202 Q1074.91 32.7556 1073.13 32.7556 Q1066.81 32.7556 1063.41 36.8875 Q1060.05 40.9789 1060.05 48.6757 L1060.05 72.576 L1052.55 72.576 L1052.55 27.2059 L1060.05 27.2059 L1060.05 34.2544 Q1062.4 30.1225 1066.16 28.1376 Q1069.93 26.1121 1075.32 26.1121 Q1076.09 26.1121 1077.02 26.2337 Q1077.95 26.3147 1079.09 26.5172 L1079.13 34.1734 Z" fill="#000000" fill-rule="evenodd" fill-opacity="1" /><path clip-path="url(#clip020)" d="M1123.2 45.1919 L1123.2 72.576 L1115.75 72.576 L1115.75 45.4349 Q1115.75 38.994 1113.24 35.7938 Q1110.72 32.5936 1105.7 32.5936 Q1099.67 32.5936 1096.18 36.4419 Q1092.7 40.2903 1092.7 46.9338 L1092.7 72.576 L1085.2 72.576 L1085.2 27.2059 L1092.7 27.2059 L1092.7 34.2544 Q1095.37 30.163 1098.98 28.1376 Q1102.62 26.1121 1107.36 26.1121 Q1115.18 26.1121 1119.19 30.9732 Q1123.2 35.7938 1123.2 45.1919 Z" fill="#000000" fill-rule="evenodd" fill-opacity="1" /><path clip-path="url(#clip020)" d="M1138.07 27.2059 L1145.52 27.2059 L1145.52 72.576 L1138.07 72.576 L1138.07 27.2059 M1138.07 9.54393 L1145.52 9.54393 L1145.52 18.9825 L1138.07 18.9825 L1138.07 9.54393 Z" fill="#000000" fill-rule="evenodd" fill-opacity="1" /><path clip-path="url(#clip020)" d="M1198.83 45.1919 L1198.83 72.576 L1191.38 72.576 L1191.38 45.4349 Q1191.38 38.994 1188.87 35.7938 Q1186.36 32.5936 1181.33 32.5936 Q1175.3 32.5936 1171.81 36.4419 Q1168.33 40.2903 1168.33 46.9338 L1168.33 72.576 L1160.83 72.576 L1160.83 27.2059 L1168.33 27.2059 L1168.33 34.2544 Q1171 30.163 1174.61 28.1376 Q1178.25 26.1121 1182.99 26.1121 Q1190.81 26.1121 1194.82 30.9732 Q1198.83 35.7938 1198.83 45.1919 Z" fill="#000000" fill-rule="evenodd" fill-opacity="1" /><path clip-path="url(#clip020)" d="M1243.55 49.3643 Q1243.55 41.2625 1240.19 36.8065 Q1236.87 32.3505 1230.83 32.3505 Q1224.84 32.3505 1221.48 36.8065 Q1218.15 41.2625 1218.15 49.3643 Q1218.15 57.4256 1221.48 61.8816 Q1224.84 66.3376 1230.83 66.3376 Q1236.87 66.3376 1240.19 61.8816 Q1243.55 57.4256 1243.55 49.3643 M1251.01 66.9452 Q1251.01 78.5308 1245.86 84.1616 Q1240.72 89.8329 1230.1 89.8329 Q1226.18 89.8329 1222.69 89.2252 Q1219.21 88.6581 1215.93 87.4428 L1215.93 80.1917 Q1219.21 81.9741 1222.41 82.8248 Q1225.61 83.6755 1228.93 83.6755 Q1236.26 83.6755 1239.91 79.8271 Q1243.55 76.0193 1243.55 68.282 L1243.55 64.5957 Q1241.24 68.6061 1237.64 70.5911 Q1234.03 72.576 1229.01 72.576 Q1220.67 72.576 1215.56 66.2161 Q1210.46 59.8562 1210.46 49.3643 Q1210.46 38.832 1215.56 32.472 Q1220.67 26.1121 1229.01 26.1121 Q1234.03 26.1121 1237.64 28.0971 Q1241.24 30.082 1243.55 34.0924 L1243.55 27.2059 L1251.01 27.2059 L1251.01 66.9452 Z" fill="#000000" fill-rule="evenodd" fill-opacity="1" /><path clip-path="url(#clip020)" d="M1325.38 28.9478 L1325.38 35.9153 Q1322.22 34.1734 1319.02 33.3227 Q1315.86 32.4315 1312.62 32.4315 Q1305.37 32.4315 1301.36 37.0496 Q1297.35 41.6271 1297.35 49.9314 Q1297.35 58.2358 1301.36 62.8538 Q1305.37 67.4314 1312.62 67.4314 Q1315.86 67.4314 1319.02 66.5807 Q1322.22 65.6895 1325.38 63.9476 L1325.38 70.8341 Q1322.26 72.2924 1318.9 73.0216 Q1315.58 73.7508 1311.81 73.7508 Q1301.56 73.7508 1295.53 67.3098 Q1289.49 60.8689 1289.49 49.9314 Q1289.49 38.832 1295.57 32.472 Q1301.68 26.1121 1312.3 26.1121 Q1315.74 26.1121 1319.02 26.8413 Q1322.3 27.5299 1325.38 28.9478 Z" fill="#000000" fill-rule="evenodd" fill-opacity="1" /><path clip-path="url(#clip020)" d="M1337.58 54.671 L1337.58 27.2059 L1345.03 27.2059 L1345.03 54.3874 Q1345.03 60.8284 1347.54 64.0691 Q1350.05 67.2693 1355.08 67.2693 Q1361.11 67.2693 1364.59 63.421 Q1368.12 59.5726 1368.12 52.9291 L1368.12 27.2059 L1375.57 27.2059 L1375.57 72.576 L1368.12 72.576 L1368.12 65.6084 Q1365.4 69.7404 1361.8 71.7658 Q1358.23 73.7508 1353.5 73.7508 Q1345.68 73.7508 1341.63 68.8897 Q1337.58 64.0286 1337.58 54.671 M1356.33 26.1121 L1356.33 26.1121 Z" fill="#000000" fill-rule="evenodd" fill-opacity="1" /><path clip-path="url(#clip020)" d="M1417.22 34.1734 Q1415.96 33.4443 1414.46 33.1202 Q1413 32.7556 1411.22 32.7556 Q1404.9 32.7556 1401.5 36.8875 Q1398.14 40.9789 1398.14 48.6757 L1398.14 72.576 L1390.64 72.576 L1390.64 27.2059 L1398.14 27.2059 L1398.14 34.2544 Q1400.49 30.1225 1404.25 28.1376 Q1408.02 26.1121 1413.41 26.1121 Q1414.18 26.1121 1415.11 26.2337 Q1416.04 26.3147 1417.18 26.5172 L1417.22 34.1734 Z" fill="#000000" fill-rule="evenodd" fill-opacity="1" /><path clip-path="url(#clip020)" d="M1419.69 27.2059 L1427.59 27.2059 L1441.76 65.2844 L1455.94 27.2059 L1463.84 27.2059 L1446.83 72.576 L1436.7 72.576 L1419.69 27.2059 Z" fill="#000000" fill-rule="evenodd" fill-opacity="1" /><path clip-path="url(#clip020)" d="M1512.94 48.0275 L1512.94 51.6733 L1478.67 51.6733 Q1479.15 59.3701 1483.29 63.421 Q1487.46 67.4314 1494.87 67.4314 Q1499.17 67.4314 1503.18 66.3781 Q1507.23 65.3249 1511.2 63.2184 L1511.2 70.267 Q1507.19 71.9684 1502.97 72.8596 Q1498.76 73.7508 1494.43 73.7508 Q1483.57 73.7508 1477.21 67.4314 Q1470.89 61.1119 1470.89 50.3365 Q1470.89 39.1965 1476.89 32.6746 Q1482.92 26.1121 1493.13 26.1121 Q1502.29 26.1121 1507.59 32.0264 Q1512.94 37.9003 1512.94 48.0275 M1505.49 45.84 Q1505.4 39.7232 1502.04 36.0774 Q1498.72 32.4315 1493.21 32.4315 Q1486.97 32.4315 1483.21 35.9558 Q1479.48 39.4801 1478.91 45.8805 L1505.49 45.84 Z" fill="#000000" fill-rule="evenodd" fill-opacity="1" /><path clip-path="url(#clip020)" d="M1569.45 9.62495 Q1564.02 18.942 1561.39 28.0566 Q1558.75 37.1711 1558.75 46.5287 Q1558.75 55.8863 1561.39 65.0818 Q1564.06 74.2369 1569.45 83.5134 L1562.97 83.5134 Q1556.89 73.9938 1553.85 64.7983 Q1550.86 55.6027 1550.86 46.5287 Q1550.86 37.4952 1553.85 28.3401 Q1556.85 19.1851 1562.97 9.62495 L1569.45 9.62495 Z" fill="#000000" fill-rule="evenodd" fill-opacity="1" /><path clip-path="url(#clip020)" d="M1610.36 51.4708 L1608.58 42.1132 Q1606.76 32.5126 1599.55 32.5126 Q1594.12 32.5126 1591.65 36.9686 Q1588.53 42.5588 1588.53 49.9314 Q1588.53 58.8434 1591.57 63.0969 Q1594.65 67.4314 1599.55 67.4314 Q1604.98 67.4314 1607.89 58.8029 L1610.36 51.4708 M1614.54 39.075 L1618.55 27.2059 L1625.19 27.2059 L1616.89 51.7949 L1618.51 60.6663 Q1618.87 62.6513 1620.29 64.3122 Q1621.95 66.2566 1623.25 66.2566 L1626.81 66.2566 L1626.81 72.576 L1622.35 72.576 Q1618.55 72.576 1615.14 69.1732 Q1613.48 67.4719 1612.79 63.9071 Q1610.93 68.4036 1607.12 71.9279 Q1605.34 73.5887 1599.55 73.5887 Q1590.03 73.5887 1585.41 67.4314 Q1580.67 61.0714 1580.67 49.9314 Q1580.67 38.0218 1585.81 32.4315 Q1591.53 26.1931 1599.55 26.1931 Q1612.15 26.1931 1614.54 39.075 Z" fill="#000000" fill-rule="evenodd" fill-opacity="1" /><path clip-path="url(#clip020)" d="M1665.94 34.9026 L1717.87 34.9026 L1717.87 41.7081 L1665.94 41.7081 L1665.94 34.9026 M1665.94 51.4303 L1717.87 51.4303 L1717.87 58.3168 L1665.94 58.3168 L1665.94 51.4303 Z" fill="#000000" fill-rule="evenodd" fill-opacity="1" /><path clip-path="url(#clip020)" d="M1779.41 17.4837 Q1773.09 17.4837 1769.89 23.7221 Q1766.73 29.92 1766.73 42.3968 Q1766.73 54.833 1769.89 61.0714 Q1773.09 67.2693 1779.41 67.2693 Q1785.77 67.2693 1788.93 61.0714 Q1792.13 54.833 1792.13 42.3968 Q1792.13 29.92 1788.93 23.7221 Q1785.77 17.4837 1779.41 17.4837 M1779.41 11.0023 Q1789.58 11.0023 1794.92 19.0636 Q1800.31 27.0843 1800.31 42.3968 Q1800.31 57.6687 1794.92 65.73 Q1789.58 73.7508 1779.41 73.7508 Q1769.24 73.7508 1763.85 65.73 Q1758.5 57.6687 1758.5 42.3968 Q1758.5 27.0843 1763.85 19.0636 Q1769.24 11.0023 1779.41 11.0023 Z" fill="#000000" fill-rule="evenodd" fill-opacity="1" /><path clip-path="url(#clip020)" d="M1814.69 62.2867 L1823.24 62.2867 L1823.24 72.576 L1814.69 72.576 L1814.69 62.2867 Z" fill="#000000" fill-rule="evenodd" fill-opacity="1" /><path clip-path="url(#clip020)" d="M1839 12.096 L1877.88 12.096 L1877.88 15.5798 L1855.93 72.576 L1847.38 72.576 L1868.04 18.9825 L1839 18.9825 L1839 12.096 Z" fill="#000000" fill-rule="evenodd" fill-opacity="1" /><path clip-path="url(#clip020)" d="M1891.62 9.62495 L1898.1 9.62495 Q1904.18 19.1851 1907.17 28.3401 Q1910.21 37.4952 1910.21 46.5287 Q1910.21 55.6027 1907.17 64.7983 Q1904.18 73.9938 1898.1 83.5134 L1891.62 83.5134 Q1897.01 74.2369 1899.64 65.0818 Q1902.31 55.8863 1902.31 46.5287 Q1902.31 37.1711 1899.64 28.0566 Q1897.01 18.942 1891.62 9.62495 Z" fill="#000000" fill-rule="evenodd" fill-opacity="1" /><polyline clip-path="url(#clip022)" style="stroke:#0000ff; stroke-linecap:butt; stroke-linejoin:round; stroke-width:6; stroke-opacity:1; fill:none" points="
  280.231,1041.6 284.263,930.202 288.296,1078.65 292.328,276.35 296.361,1141 300.393,1126.71 304.425,1135.27 308.458,859.493 312.49,829.429 316.523,1330.75 
  320.555,1048.29 324.587,1241.18 328.62,994.949 332.652,1019.02 336.684,1136.36 340.717,1249.47 344.749,1281.93 348.782,1214.51 352.814,1181.04 356.846,1363.87 
  360.879,1242.32 364.911,1043.48 368.944,1351.93 372.976,1209.67 377.008,1261.68 381.041,1140.19 385.073,1205.85 389.105,1132.89 393.138,1305.06 397.17,735.573 
  401.203,1047.19 405.235,1049.71 409.267,1360.3 413.3,1163.97 417.332,1220.47 421.365,1260.55 425.397,1275.32 429.429,815.922 433.462,816.431 437.494,1045.73 
  441.526,868.278 445.559,692.988 449.591,1113.16 453.624,1296.31 457.656,1300.35 461.688,1254.53 465.721,1109.99 469.753,895.696 473.786,430.53 477.818,1131.03 
  481.85,406.133 485.883,899.085 489.915,843.024 493.947,1364.78 497.98,1262.4 502.012,971.125 506.045,1070.74 510.077,972.698 514.109,1341.17 518.142,808.55 
  522.174,1386.4 526.207,880.407 530.239,1126.92 534.271,1280.67 538.304,1122.13 542.336,894.627 546.368,1016.09 550.401,1169.07 554.433,1241.88 558.466,1294.86 
  562.498,1368.67 566.53,1257.98 570.563,1245.07 574.595,1336.99 578.628,928.039 582.66,915.879 586.692,841.71 590.725,950.56 594.757,997.442 598.789,1277.84 
  602.822,1150.78 606.854,1005.52 610.887,1281.4 614.919,584.271 618.951,530.59 622.984,1033.3 627.016,480.703 631.049,1236.55 635.081,1084.49 639.113,1198.6 
  643.146,1081.16 647.178,1273.91 651.21,439.436 655.243,778.703 659.275,240.795 663.308,566.37 667.34,304.319 671.372,407.296 675.405,427.466 679.437,208.696 
  683.47,261.692 687.502,533.415 691.534,393.793 695.567,1106.12 699.599,1217.5 703.631,462.582 707.664,456.993 711.696,218.441 715.729,353.941 719.761,235.719 
  723.793,223.714 727.826,231.807 731.858,220.528 735.891,556.268 739.923,413.828 743.955,279.01 747.988,700.444 752.02,274.522 756.052,249.416 760.085,400.219 
  764.117,299.094 768.15,220.478 772.182,214.978 776.214,246.76 780.247,304.317 784.279,259.675 788.312,261.156 792.344,271.471 796.376,241.311 800.409,233.113 
  804.441,276.606 808.473,222.038 812.506,489.615 816.538,606.412 820.571,246.895 824.603,210.789 828.635,260.006 832.668,754.009 836.7,535.459 840.733,493.53 
  844.765,231.048 848.797,211.525 852.83,492.265 856.862,670.253 860.894,268.09 864.927,1096.96 868.959,249.967 872.992,399.1 877.024,301.389 881.056,258.335 
  885.089,298.349 889.121,663.131 893.154,251.839 897.186,241.507 901.218,208.252 905.251,314.902 909.283,285.805 913.315,280.62 917.348,222.651 921.38,225.155 
  925.413,233.741 929.445,256.237 933.477,273.339 937.51,1192.98 941.542,280.078 945.575,1096.24 949.607,1004.49 953.639,255.11 957.672,276.913 961.704,231.293 
  965.736,283.219 969.769,224.425 973.801,441.884 977.834,224.001 981.866,1161.61 985.898,267.437 989.931,533.741 993.963,472.83 997.996,289.979 1002.03,425.835 
  1006.06,313.009 1010.09,279.915 1014.13,247.859 1018.16,250.114 1022.19,229.209 1026.22,264.911 1030.25,246.072 1034.29,229.605 1038.32,239.354 1042.35,258.689 
  1046.38,284.132 1050.42,1118.58 1054.45,338.464 1058.48,249.812 1062.51,275.232 1066.55,308.145 1070.58,924.084 1074.61,260.351 1078.64,271.989 1082.68,230.707 
  1086.71,271.762 1090.74,400.024 1094.77,385.105 1098.81,295.638 1102.84,1028.42 1106.87,713.128 1110.9,1144.62 1114.93,716.807 1118.97,1127.49 1123,228.695 
  1127.03,226.203 1131.06,233.788 1135.1,537.736 1139.13,341.504 1143.16,240.594 1147.19,285.479 1151.23,272.631 1155.26,239.546 1159.29,235.33 1163.32,235.856 
  1167.36,197.434 1171.39,264.505 1175.42,315.655 1179.45,283.197 1183.49,209.672 1187.52,360.208 1191.55,258.212 1195.58,234.118 1199.61,217.018 1203.65,514.715 
  1207.68,268.328 1211.71,454.265 1215.74,1175.46 1219.78,160.256 1223.81,252.84 1227.84,391.471 1231.87,513.761 1235.91,230.734 1239.94,274.904 1243.97,240.928 
  1248,479.184 1252.04,226.686 1256.07,244.199 1260.1,533.267 1264.13,217.037 1268.17,227.858 1272.2,265.117 1276.23,257.592 1280.26,275.917 1284.29,355.079 
  1288.33,468.464 1292.36,160.256 1296.39,160.256 1300.42,160.256 1304.46,160.256 1308.49,160.256 1312.52,160.256 1316.55,160.256 1320.59,160.256 1324.62,160.256 
  1328.65,160.256 1332.68,160.256 1336.72,160.256 1340.75,160.256 1344.78,160.256 1348.81,160.256 1352.85,160.256 1356.88,160.256 1360.91,160.256 1364.94,160.256 
  1368.97,160.256 1373.01,160.256 1377.04,160.256 1381.07,160.256 1385.1,160.256 1389.14,160.256 1393.17,160.256 1397.2,160.256 1401.23,160.256 1405.27,160.256 
  1409.3,160.256 1413.33,160.256 1417.36,160.256 1421.4,160.256 1425.43,160.256 1429.46,160.256 1433.49,160.256 1437.53,160.256 1441.56,160.256 1445.59,160.256 
  1449.62,160.256 1453.66,160.256 1457.69,160.256 1461.72,160.256 1465.75,160.256 1469.78,160.256 1473.82,160.256 1477.85,160.256 1481.88,160.256 1485.91,160.256 
  1489.95,160.256 1493.98,160.256 1498.01,160.256 1502.04,160.256 1506.08,160.256 1510.11,160.256 1514.14,160.256 1518.17,160.256 1522.21,160.256 1526.24,160.256 
  1530.27,160.256 1534.3,160.256 1538.34,160.256 1542.37,160.256 1546.4,160.256 1550.43,160.256 1554.46,160.256 1558.5,160.256 1562.53,160.256 1566.56,160.256 
  1570.59,160.256 1574.63,160.256 1578.66,160.256 1582.69,160.256 1586.72,160.256 1590.76,160.256 1594.79,160.256 1598.82,160.256 1602.85,160.256 1606.89,160.256 
  1610.92,160.256 1614.95,160.256 1618.98,160.256 1623.02,160.256 1627.05,160.256 1631.08,160.256 1635.11,160.256 1639.14,160.256 1643.18,160.256 1647.21,160.256 
  1651.24,160.256 1655.27,160.256 1659.31,160.256 1663.34,160.256 1667.37,160.256 1671.4,160.256 1675.44,160.256 1679.47,160.256 1683.5,160.256 1687.53,160.256 
  1691.57,160.256 1695.6,160.256 1699.63,160.256 1703.66,160.256 1707.7,160.256 1711.73,160.256 1715.76,160.256 1719.79,160.256 1723.82,160.256 1727.86,160.256 
  1731.89,160.256 1735.92,160.256 1739.95,160.256 1743.99,160.256 1748.02,160.256 1752.05,160.256 1756.08,160.256 1760.12,160.256 1764.15,160.256 1768.18,160.256 
  1772.21,160.256 1776.25,160.256 1780.28,160.256 1784.31,160.256 1788.34,160.256 1792.38,160.256 1796.41,160.256 1800.44,160.256 1804.47,160.256 1808.5,160.256 
  1812.54,160.256 1816.57,160.256 1820.6,160.256 1824.63,160.256 1828.67,160.256 1832.7,160.256 1836.73,160.256 1840.76,160.256 1844.8,160.256 1848.83,160.256 
  1852.86,160.256 1856.89,160.256 1860.93,160.256 1864.96,160.256 1868.99,160.256 1873.02,160.256 1877.06,160.256 1881.09,160.256 1885.12,160.256 1889.15,160.256 
  1893.19,160.256 1897.22,160.256 1901.25,160.256 1905.28,160.256 1909.31,160.256 1913.35,160.256 1917.38,160.256 1921.41,160.256 1925.44,160.256 1929.48,160.256 
  1933.51,160.256 1937.54,160.256 1941.57,160.256 1945.61,160.256 1949.64,160.256 1953.67,160.256 1957.7,160.256 1961.74,160.256 1965.77,160.256 1969.8,160.256 
  1973.83,160.256 1977.87,160.256 1981.9,160.256 1985.93,160.256 1989.96,160.256 1993.99,160.256 1998.03,160.256 2002.06,160.256 2006.09,160.256 2010.12,160.256 
  2014.16,160.256 2018.19,160.256 2022.22,160.256 2026.25,160.256 2030.29,160.256 2034.32,160.256 2038.35,160.256 2042.38,160.256 2046.42,160.256 2050.45,160.256 
  2054.48,160.256 2058.51,160.256 2062.55,160.256 2066.58,160.256 2070.61,160.256 2074.64,160.256 2078.67,160.256 2082.71,160.256 2086.74,160.256 2090.77,160.256 
  2094.8,160.256 2098.84,160.256 2102.87,160.256 2106.9,160.256 2110.93,160.256 2114.97,160.256 2119,160.256 2123.03,160.256 2127.06,160.256 2131.1,160.256 
  2135.13,160.256 2139.16,160.256 2143.19,160.256 2147.23,160.256 2151.26,160.256 2155.29,160.256 2159.32,160.256 2163.35,160.256 2167.39,160.256 2171.42,160.256 
  2175.45,160.256 2179.48,160.256 2183.52,160.256 2187.55,160.256 2191.58,160.256 2195.61,160.256 2199.65,160.256 2203.68,160.256 2207.71,160.256 2211.74,160.256 
  2215.78,160.256 2219.81,160.256 2223.84,160.256 2227.87,160.256 2231.91,160.256 2235.94,160.256 2239.97,160.256 2244,160.256 2248.03,160.256 2252.07,160.256 
  2256.1,160.256 2260.13,160.256 2264.16,160.256 2268.2,160.256 2272.23,160.256 2276.26,160.256 2280.29,160.256 2284.33,160.256 2288.36,160.256 2292.39,160.256 
  
  "/>
<polyline clip-path="url(#clip022)" style="stroke:#000000; stroke-linecap:butt; stroke-linejoin:round; stroke-width:8; stroke-opacity:1; fill:none" points="
  280.231,820.692 284.263,820.692 288.296,820.692 292.328,820.692 296.361,820.692 300.393,820.692 304.425,820.692 308.458,820.692 312.49,820.692 316.523,820.692 
  320.555,820.692 324.587,820.692 328.62,820.692 332.652,820.692 336.684,820.692 340.717,820.692 344.749,820.692 348.782,820.692 352.814,820.692 356.846,820.692 
  360.879,820.692 364.911,820.692 368.944,820.692 372.976,820.692 377.008,820.692 381.041,820.692 385.073,820.692 389.105,820.692 393.138,820.692 397.17,820.692 
  401.203,820.692 405.235,820.692 409.267,820.692 413.3,820.692 417.332,820.692 421.365,820.692 425.397,820.692 429.429,820.692 433.462,820.692 437.494,820.692 
  441.526,820.692 445.559,820.692 449.591,820.692 453.624,820.692 457.656,820.692 461.688,820.692 465.721,820.692 469.753,820.692 473.786,820.692 477.818,820.692 
  481.85,820.692 485.883,820.692 489.915,820.692 493.947,820.692 497.98,820.692 502.012,820.692 506.045,820.692 510.077,820.692 514.109,820.692 518.142,820.692 
  522.174,820.692 526.207,820.692 530.239,820.692 534.271,820.692 538.304,820.692 542.336,820.692 546.368,820.692 550.401,820.692 554.433,820.692 558.466,820.692 
  562.498,820.692 566.53,820.692 570.563,820.692 574.595,820.692 578.628,820.692 582.66,820.692 586.692,820.692 590.725,820.692 594.757,820.692 598.789,820.692 
  602.822,820.692 606.854,820.692 610.887,820.692 614.919,820.692 618.951,820.692 622.984,820.692 627.016,820.692 631.049,820.692 635.081,820.692 639.113,820.692 
  643.146,820.692 647.178,820.692 651.21,820.692 655.243,820.692 659.275,820.692 663.308,820.692 667.34,820.692 671.372,820.692 675.405,820.692 679.437,820.692 
  683.47,820.692 687.502,820.692 691.534,820.692 695.567,820.692 699.599,820.692 703.631,820.692 707.664,820.692 711.696,820.692 715.729,820.692 719.761,820.692 
  723.793,820.692 727.826,820.692 731.858,820.692 735.891,820.692 739.923,820.692 743.955,820.692 747.988,820.692 752.02,820.692 756.052,820.692 760.085,820.692 
  764.117,820.692 768.15,820.692 772.182,820.692 776.214,820.692 780.247,820.692 784.279,820.692 788.312,820.692 792.344,820.692 796.376,820.692 800.409,820.692 
  804.441,820.692 808.473,820.692 812.506,820.692 816.538,820.692 820.571,820.692 824.603,820.692 828.635,820.692 832.668,820.692 836.7,820.692 840.733,820.692 
  844.765,820.692 848.797,820.692 852.83,820.692 856.862,820.692 860.894,820.692 864.927,820.692 868.959,820.692 872.992,820.692 877.024,820.692 881.056,820.692 
  885.089,820.692 889.121,820.692 893.154,820.692 897.186,820.692 901.218,820.692 905.251,820.692 909.283,820.692 913.315,820.692 917.348,820.692 921.38,820.692 
  925.413,820.692 929.445,820.692 933.477,820.692 937.51,820.692 941.542,820.692 945.575,820.692 949.607,820.692 953.639,820.692 957.672,820.692 961.704,820.692 
  965.736,820.692 969.769,820.692 973.801,820.692 977.834,820.692 981.866,820.692 985.898,820.692 989.931,820.692 993.963,820.692 997.996,820.692 1002.03,820.692 
  1006.06,820.692 1010.09,820.692 1014.13,820.692 1018.16,820.692 1022.19,820.692 1026.22,820.692 1030.25,820.692 1034.29,820.692 1038.32,820.692 1042.35,820.692 
  1046.38,820.692 1050.42,820.692 1054.45,820.692 1058.48,820.692 1062.51,820.692 1066.55,820.692 1070.58,820.692 1074.61,820.692 1078.64,820.692 1082.68,820.692 
  1086.71,820.692 1090.74,820.692 1094.77,820.692 1098.81,820.692 1102.84,820.692 1106.87,820.692 1110.9,820.692 1114.93,820.692 1118.97,820.692 1123,820.692 
  1127.03,820.692 1131.06,820.692 1135.1,820.692 1139.13,820.692 1143.16,820.692 1147.19,820.692 1151.23,820.692 1155.26,820.692 1159.29,820.692 1163.32,820.692 
  1167.36,820.692 1171.39,820.692 1175.42,820.692 1179.45,820.692 1183.49,820.692 1187.52,820.692 1191.55,820.692 1195.58,820.692 1199.61,820.692 1203.65,820.692 
  1207.68,820.692 1211.71,820.692 1215.74,820.692 1219.78,820.692 1223.81,820.692 1227.84,820.692 1231.87,820.692 1235.91,820.692 1239.94,820.692 1243.97,820.692 
  1248,820.692 1252.04,820.692 1256.07,820.692 1260.1,820.692 1264.13,820.692 1268.17,820.692 1272.2,820.692 1276.23,820.692 1280.26,820.692 1284.29,820.692 
  1288.33,820.692 1292.36,820.692 1296.39,820.692 1300.42,820.692 1304.46,820.692 1308.49,820.692 1312.52,820.692 1316.55,820.692 1320.59,820.692 1324.62,820.692 
  1328.65,820.692 1332.68,820.692 1336.72,820.692 1340.75,820.692 1344.78,820.692 1348.81,820.692 1352.85,820.692 1356.88,820.692 1360.91,820.692 1364.94,820.692 
  1368.97,820.692 1373.01,820.692 1377.04,820.692 1381.07,820.692 1385.1,820.692 1389.14,820.692 1393.17,820.692 1397.2,820.692 1401.23,820.692 1405.27,820.692 
  1409.3,820.692 1413.33,820.692 1417.36,820.692 1421.4,820.692 1425.43,820.692 1429.46,820.692 1433.49,820.692 1437.53,820.692 1441.56,820.692 1445.59,820.692 
  1449.62,820.692 1453.66,820.692 1457.69,820.692 1461.72,820.692 1465.75,820.692 1469.78,820.692 1473.82,820.692 1477.85,820.692 1481.88,820.692 1485.91,820.692 
  1489.95,820.692 1493.98,820.692 1498.01,820.692 1502.04,820.692 1506.08,820.692 1510.11,820.692 1514.14,820.692 1518.17,820.692 1522.21,820.692 1526.24,820.692 
  1530.27,820.692 1534.3,820.692 1538.34,820.692 1542.37,820.692 1546.4,820.692 1550.43,820.692 1554.46,820.692 1558.5,820.692 1562.53,820.692 1566.56,820.692 
  1570.59,820.692 1574.63,820.692 1578.66,820.692 1582.69,820.692 1586.72,820.692 1590.76,820.692 1594.79,820.692 1598.82,820.692 1602.85,820.692 1606.89,820.692 
  1610.92,820.692 1614.95,820.692 1618.98,820.692 1623.02,820.692 1627.05,820.692 1631.08,820.692 1635.11,820.692 1639.14,820.692 1643.18,820.692 1647.21,820.692 
  1651.24,820.692 1655.27,820.692 1659.31,820.692 1663.34,820.692 1667.37,820.692 1671.4,820.692 1675.44,820.692 1679.47,820.692 1683.5,820.692 1687.53,820.692 
  1691.57,820.692 1695.6,820.692 1699.63,820.692 1703.66,820.692 1707.7,820.692 1711.73,820.692 1715.76,820.692 1719.79,820.692 1723.82,820.692 1727.86,820.692 
  1731.89,820.692 1735.92,820.692 1739.95,820.692 1743.99,820.692 1748.02,820.692 1752.05,820.692 1756.08,820.692 1760.12,820.692 1764.15,820.692 1768.18,820.692 
  1772.21,820.692 1776.25,820.692 1780.28,820.692 1784.31,820.692 1788.34,820.692 1792.38,820.692 1796.41,820.692 1800.44,820.692 1804.47,820.692 1808.5,820.692 
  1812.54,820.692 1816.57,820.692 1820.6,820.692 1824.63,820.692 1828.67,820.692 1832.7,820.692 1836.73,820.692 1840.76,820.692 1844.8,820.692 1848.83,820.692 
  1852.86,820.692 1856.89,820.692 1860.93,820.692 1864.96,820.692 1868.99,820.692 1873.02,820.692 1877.06,820.692 1881.09,820.692 1885.12,820.692 1889.15,820.692 
  1893.19,820.692 1897.22,820.692 1901.25,820.692 1905.28,820.692 1909.31,820.692 1913.35,820.692 1917.38,820.692 1921.41,820.692 1925.44,820.692 1929.48,820.692 
  1933.51,820.692 1937.54,820.692 1941.57,820.692 1945.61,820.692 1949.64,820.692 1953.67,820.692 1957.7,820.692 1961.74,820.692 1965.77,820.692 1969.8,820.692 
  1973.83,820.692 1977.87,820.692 1981.9,820.692 1985.93,820.692 1989.96,820.692 1993.99,820.692 1998.03,820.692 2002.06,820.692 2006.09,820.692 2010.12,820.692 
  2014.16,820.692 2018.19,820.692 2022.22,820.692 2026.25,820.692 2030.29,820.692 2034.32,820.692 2038.35,820.692 2042.38,820.692 2046.42,820.692 2050.45,820.692 
  2054.48,820.692 2058.51,820.692 2062.55,820.692 2066.58,820.692 2070.61,820.692 2074.64,820.692 2078.67,820.692 2082.71,820.692 2086.74,820.692 2090.77,820.692 
  2094.8,820.692 2098.84,820.692 2102.87,820.692 2106.9,820.692 2110.93,820.692 2114.97,820.692 2119,820.692 2123.03,820.692 2127.06,820.692 2131.1,820.692 
  2135.13,820.692 2139.16,820.692 2143.19,820.692 2147.23,820.692 2151.26,820.692 2155.29,820.692 2159.32,820.692 2163.35,820.692 2167.39,820.692 2171.42,820.692 
  2175.45,820.692 2179.48,820.692 2183.52,820.692 2187.55,820.692 2191.58,820.692 2195.61,820.692 2199.65,820.692 2203.68,820.692 2207.71,820.692 2211.74,820.692 
  2215.78,820.692 2219.81,820.692 2223.84,820.692 2227.87,820.692 2231.91,820.692 2235.94,820.692 2239.97,820.692 2244,820.692 2248.03,820.692 2252.07,820.692 
  2256.1,820.692 2260.13,820.692 2264.16,820.692 2268.2,820.692 2272.23,820.692 2276.26,820.692 2280.29,820.692 2284.33,820.692 2288.36,820.692 2292.39,820.692 
  
  "/>
<path clip-path="url(#clip020)" d="
M1722.45 1379.86 L2281.66 1379.86 L2281.66 1224.34 L1722.45 1224.34  Z
  " fill="#ffffff" fill-rule="evenodd" fill-opacity="1"/>
<polyline clip-path="url(#clip020)" style="stroke:#000000; stroke-linecap:butt; stroke-linejoin:round; stroke-width:4; stroke-opacity:1; fill:none" points="
  1722.45,1379.86 2281.66,1379.86 2281.66,1224.34 1722.45,1224.34 1722.45,1379.86 
  "/>
<polyline clip-path="url(#clip020)" style="stroke:#0000ff; stroke-linecap:butt; stroke-linejoin:round; stroke-width:4; stroke-opacity:1; fill:none" points="
  1746.15,1276.18 1888.34,1276.18 
  "/>
<path clip-path="url(#clip020)" d="M1937.6 1288.53 L1937.6 1279.24 L1929.96 1279.24 L1929.96 1275.4 L1942.23 1275.4 L1942.23 1290.24 Q1939.52 1292.16 1936.25 1293.16 Q1932.99 1294.13 1929.29 1294.13 Q1921.19 1294.13 1916.6 1289.41 Q1912.04 1284.66 1912.04 1276.21 Q1912.04 1267.74 1916.6 1263.02 Q1921.19 1258.27 1929.29 1258.27 Q1932.67 1258.27 1935.7 1259.1 Q1938.75 1259.94 1941.32 1261.56 L1941.32 1266.54 Q1938.73 1264.34 1935.81 1263.22 Q1932.9 1262.11 1929.68 1262.11 Q1923.34 1262.11 1920.14 1265.66 Q1916.97 1269.2 1916.97 1276.21 Q1916.97 1283.2 1920.14 1286.74 Q1923.34 1290.28 1929.68 1290.28 Q1932.16 1290.28 1934.1 1289.87 Q1936.05 1289.43 1937.6 1288.53 Z" fill="#000000" fill-rule="evenodd" fill-opacity="1" /><path clip-path="url(#clip020)" d="M1965.61 1271.51 Q1964.89 1271.1 1964.03 1270.91 Q1963.2 1270.7 1962.18 1270.7 Q1958.57 1270.7 1956.62 1273.06 Q1954.7 1275.4 1954.7 1279.8 L1954.7 1293.46 L1950.42 1293.46 L1950.42 1267.53 L1954.7 1267.53 L1954.7 1271.56 Q1956.05 1269.2 1958.2 1268.06 Q1960.35 1266.91 1963.43 1266.91 Q1963.87 1266.91 1964.4 1266.97 Q1964.93 1267.02 1965.58 1267.14 L1965.61 1271.51 Z" fill="#000000" fill-rule="evenodd" fill-opacity="1" /><path clip-path="url(#clip020)" d="M1991.21 1279.43 L1991.21 1281.51 L1971.62 1281.51 Q1971.9 1285.91 1974.26 1288.22 Q1976.65 1290.52 1980.88 1290.52 Q1983.34 1290.52 1985.63 1289.91 Q1987.94 1289.31 1990.21 1288.11 L1990.21 1292.14 Q1987.92 1293.11 1985.51 1293.62 Q1983.11 1294.13 1980.63 1294.13 Q1974.43 1294.13 1970.79 1290.52 Q1967.18 1286.91 1967.18 1280.75 Q1967.18 1274.38 1970.61 1270.66 Q1974.06 1266.91 1979.89 1266.91 Q1985.12 1266.91 1988.15 1270.29 Q1991.21 1273.64 1991.21 1279.43 M1986.95 1278.18 Q1986.9 1274.68 1984.98 1272.6 Q1983.08 1270.52 1979.93 1270.52 Q1976.37 1270.52 1974.22 1272.53 Q1972.09 1274.54 1971.76 1278.2 L1986.95 1278.18 Z" fill="#000000" fill-rule="evenodd" fill-opacity="1" /><path clip-path="url(#clip020)" d="M2020.37 1279.43 L2020.37 1281.51 L2000.79 1281.51 Q2001.07 1285.91 2003.43 1288.22 Q2005.81 1290.52 2010.05 1290.52 Q2012.5 1290.52 2014.8 1289.91 Q2017.11 1289.31 2019.38 1288.11 L2019.38 1292.14 Q2017.09 1293.11 2014.68 1293.62 Q2012.27 1294.13 2009.8 1294.13 Q2003.59 1294.13 1999.96 1290.52 Q1996.35 1286.91 1996.35 1280.75 Q1996.35 1274.38 1999.77 1270.66 Q2003.22 1266.91 2009.05 1266.91 Q2014.29 1266.91 2017.32 1270.29 Q2020.37 1273.64 2020.37 1279.43 M2016.12 1278.18 Q2016.07 1274.68 2014.15 1272.6 Q2012.25 1270.52 2009.1 1270.52 Q2005.54 1270.52 2003.38 1272.53 Q2001.25 1274.54 2000.93 1278.2 L2016.12 1278.18 Z" fill="#000000" fill-rule="evenodd" fill-opacity="1" /><path clip-path="url(#clip020)" d="M2044.43 1271.47 L2044.43 1257.44 L2048.68 1257.44 L2048.68 1293.46 L2044.43 1293.46 L2044.43 1289.57 Q2043.08 1291.88 2041.02 1293.02 Q2038.99 1294.13 2036.11 1294.13 Q2031.42 1294.13 2028.45 1290.38 Q2025.51 1286.63 2025.51 1280.52 Q2025.51 1274.41 2028.45 1270.66 Q2031.42 1266.91 2036.11 1266.91 Q2038.99 1266.91 2041.02 1268.04 Q2043.08 1269.15 2044.43 1271.47 M2029.91 1280.52 Q2029.91 1285.22 2031.83 1287.9 Q2033.78 1290.56 2037.16 1290.56 Q2040.54 1290.56 2042.48 1287.9 Q2044.43 1285.22 2044.43 1280.52 Q2044.43 1275.82 2042.48 1273.16 Q2040.54 1270.47 2037.16 1270.47 Q2033.78 1270.47 2031.83 1273.16 Q2029.91 1275.82 2029.91 1280.52 Z" fill="#000000" fill-rule="evenodd" fill-opacity="1" /><path clip-path="url(#clip020)" d="M2068.24 1295.86 Q2066.44 1300.49 2064.73 1301.91 Q2063.01 1303.32 2060.14 1303.32 L2056.74 1303.32 L2056.74 1299.75 L2059.24 1299.75 Q2061 1299.75 2061.97 1298.92 Q2062.94 1298.09 2064.12 1294.98 L2064.89 1293.04 L2054.4 1267.53 L2058.92 1267.53 L2067.02 1287.81 L2075.12 1267.53 L2079.63 1267.53 L2068.24 1295.86 Z" fill="#000000" fill-rule="evenodd" fill-opacity="1" /><path clip-path="url(#clip020)" d="M2104.7 1289.57 L2104.7 1303.32 L2100.42 1303.32 L2100.42 1267.53 L2104.7 1267.53 L2104.7 1271.47 Q2106.05 1269.15 2108.08 1268.04 Q2110.14 1266.91 2112.99 1266.91 Q2117.71 1266.91 2120.65 1270.66 Q2123.61 1274.41 2123.61 1280.52 Q2123.61 1286.63 2120.65 1290.38 Q2117.71 1294.13 2112.99 1294.13 Q2110.14 1294.13 2108.08 1293.02 Q2106.05 1291.88 2104.7 1289.57 M2119.19 1280.52 Q2119.19 1275.82 2117.25 1273.16 Q2115.33 1270.47 2111.95 1270.47 Q2108.57 1270.47 2106.62 1273.16 Q2104.7 1275.82 2104.7 1280.52 Q2104.7 1285.22 2106.62 1287.9 Q2108.57 1290.56 2111.95 1290.56 Q2115.33 1290.56 2117.25 1287.9 Q2119.19 1285.22 2119.19 1280.52 Z" fill="#000000" fill-rule="evenodd" fill-opacity="1" /><path clip-path="url(#clip020)" d="M2140.72 1270.52 Q2137.29 1270.52 2135.3 1273.2 Q2133.31 1275.86 2133.31 1280.52 Q2133.31 1285.17 2135.28 1287.85 Q2137.27 1290.52 2140.72 1290.52 Q2144.12 1290.52 2146.11 1287.83 Q2148.11 1285.15 2148.11 1280.52 Q2148.11 1275.91 2146.11 1273.22 Q2144.12 1270.52 2140.72 1270.52 M2140.72 1266.91 Q2146.28 1266.91 2149.45 1270.52 Q2152.62 1274.13 2152.62 1280.52 Q2152.62 1286.88 2149.45 1290.52 Q2146.28 1294.13 2140.72 1294.13 Q2135.14 1294.13 2131.97 1290.52 Q2128.82 1286.88 2128.82 1280.52 Q2128.82 1274.13 2131.97 1270.52 Q2135.14 1266.91 2140.72 1266.91 Z" fill="#000000" fill-rule="evenodd" fill-opacity="1" /><path clip-path="url(#clip020)" d="M2159.68 1257.44 L2163.94 1257.44 L2163.94 1293.46 L2159.68 1293.46 L2159.68 1257.44 Z" fill="#000000" fill-rule="evenodd" fill-opacity="1" /><path clip-path="url(#clip020)" d="M2172.85 1267.53 L2177.11 1267.53 L2177.11 1293.46 L2172.85 1293.46 L2172.85 1267.53 M2172.85 1257.44 L2177.11 1257.44 L2177.11 1262.83 L2172.85 1262.83 L2172.85 1257.44 Z" fill="#000000" fill-rule="evenodd" fill-opacity="1" /><path clip-path="url(#clip020)" d="M2204.68 1268.53 L2204.68 1272.51 Q2202.87 1271.51 2201.04 1271.03 Q2199.24 1270.52 2197.39 1270.52 Q2193.24 1270.52 2190.95 1273.16 Q2188.66 1275.77 2188.66 1280.52 Q2188.66 1285.26 2190.95 1287.9 Q2193.24 1290.52 2197.39 1290.52 Q2199.24 1290.52 2201.04 1290.03 Q2202.87 1289.52 2204.68 1288.53 L2204.68 1292.46 Q2202.9 1293.29 2200.98 1293.71 Q2199.08 1294.13 2196.92 1294.13 Q2191.07 1294.13 2187.62 1290.45 Q2184.17 1286.77 2184.17 1280.52 Q2184.17 1274.17 2187.64 1270.54 Q2191.14 1266.91 2197.2 1266.91 Q2199.17 1266.91 2201.04 1267.32 Q2202.92 1267.72 2204.68 1268.53 Z" fill="#000000" fill-rule="evenodd" fill-opacity="1" /><path clip-path="url(#clip020)" d="M2222.87 1295.86 Q2221.07 1300.49 2219.35 1301.91 Q2217.64 1303.32 2214.77 1303.32 L2211.37 1303.32 L2211.37 1299.75 L2213.87 1299.75 Q2215.63 1299.75 2216.6 1298.92 Q2217.57 1298.09 2218.75 1294.98 L2219.52 1293.04 L2209.03 1267.53 L2213.54 1267.53 L2221.65 1287.81 L2229.75 1267.53 L2234.26 1267.53 L2222.87 1295.86 Z" fill="#000000" fill-rule="evenodd" fill-opacity="1" /><polyline clip-path="url(#clip020)" style="stroke:#000000; stroke-linecap:butt; stroke-linejoin:round; stroke-width:4; stroke-opacity:1; fill:none" points="
  1746.15,1328.02 1888.34,1328.02 
  "/>
<path clip-path="url(#clip020)" d="M1923.99 1313.81 Q1920.37 1313.81 1918.55 1317.38 Q1916.74 1320.92 1916.74 1328.05 Q1916.74 1335.16 1918.55 1338.72 Q1920.37 1342.26 1923.99 1342.26 Q1927.62 1342.26 1929.43 1338.72 Q1931.25 1335.16 1931.25 1328.05 Q1931.25 1320.92 1929.43 1317.38 Q1927.62 1313.81 1923.99 1313.81 M1923.99 1310.11 Q1929.8 1310.11 1932.85 1314.72 Q1935.93 1319.3 1935.93 1328.05 Q1935.93 1336.78 1932.85 1341.38 Q1929.8 1345.97 1923.99 1345.97 Q1918.18 1345.97 1915.1 1341.38 Q1912.04 1336.78 1912.04 1328.05 Q1912.04 1319.3 1915.1 1314.72 Q1918.18 1310.11 1923.99 1310.11 Z" fill="#000000" fill-rule="evenodd" fill-opacity="1" /><path clip-path="url(#clip020)" d="M1944.15 1339.42 L1949.03 1339.42 L1949.03 1345.3 L1944.15 1345.3 L1944.15 1339.42 Z" fill="#000000" fill-rule="evenodd" fill-opacity="1" /><path clip-path="url(#clip020)" d="M1959.26 1310.74 L1977.62 1310.74 L1977.62 1314.67 L1963.55 1314.67 L1963.55 1323.14 Q1964.56 1322.8 1965.58 1322.63 Q1966.6 1322.45 1967.62 1322.45 Q1973.41 1322.45 1976.79 1325.62 Q1980.17 1328.79 1980.17 1334.21 Q1980.17 1339.79 1976.69 1342.89 Q1973.22 1345.97 1966.9 1345.97 Q1964.73 1345.97 1962.46 1345.6 Q1960.21 1345.23 1957.81 1344.49 L1957.81 1339.79 Q1959.89 1340.92 1962.11 1341.48 Q1964.33 1342.03 1966.81 1342.03 Q1970.81 1342.03 1973.15 1339.93 Q1975.49 1337.82 1975.49 1334.21 Q1975.49 1330.6 1973.15 1328.49 Q1970.81 1326.38 1966.81 1326.38 Q1964.93 1326.38 1963.06 1326.8 Q1961.21 1327.22 1959.26 1328.1 L1959.26 1310.74 Z" fill="#000000" fill-rule="evenodd" fill-opacity="1" /></svg>
