<?xml version="1.0" encoding="utf-8"?>
<svg xmlns="http://www.w3.org/2000/svg" xmlns:xlink="http://www.w3.org/1999/xlink" width="600" height="400" viewBox="0 0 2400 1600">
<defs>
  <clipPath id="clip280">
    <rect x="0" y="0" width="2400" height="1600"/>
  </clipPath>
</defs>
<path clip-path="url(#clip280)" d="
M0 1600 L2400 1600 L2400 0 L0 0  Z
  " fill="#ffffff" fill-rule="evenodd" fill-opacity="1"/>
<defs>
  <clipPath id="clip281">
    <rect x="480" y="0" width="1681" height="1600"/>
  </clipPath>
</defs>
<path clip-path="url(#clip280)" d="
M219.866 1423.18 L2352.76 1423.18 L2352.76 123.472 L219.866 123.472  Z
  " fill="#ffffff" fill-rule="evenodd" fill-opacity="1"/>
<defs>
  <clipPath id="clip282">
    <rect x="219" y="123" width="2134" height="1301"/>
  </clipPath>
</defs>
<polyline clip-path="url(#clip282)" style="stroke:#000000; stroke-linecap:butt; stroke-linejoin:round; stroke-width:2; stroke-opacity:0.1; fill:none" points="
  259.906,1423.18 259.906,123.472 
  "/>
<polyline clip-path="url(#clip282)" style="stroke:#000000; stroke-linecap:butt; stroke-linejoin:round; stroke-width:2; stroke-opacity:0.1; fill:none" points="
  768.027,1423.18 768.027,123.472 
  "/>
<polyline clip-path="url(#clip282)" style="stroke:#000000; stroke-linecap:butt; stroke-linejoin:round; stroke-width:2; stroke-opacity:0.1; fill:none" points="
  1276.15,1423.18 1276.15,123.472 
  "/>
<polyline clip-path="url(#clip282)" style="stroke:#000000; stroke-linecap:butt; stroke-linejoin:round; stroke-width:2; stroke-opacity:0.1; fill:none" points="
  1784.27,1423.18 1784.27,123.472 
  "/>
<polyline clip-path="url(#clip282)" style="stroke:#000000; stroke-linecap:butt; stroke-linejoin:round; stroke-width:2; stroke-opacity:0.1; fill:none" points="
  2292.39,1423.18 2292.39,123.472 
  "/>
<polyline clip-path="url(#clip280)" style="stroke:#000000; stroke-linecap:butt; stroke-linejoin:round; stroke-width:4; stroke-opacity:1; fill:none" points="
  219.866,1423.18 2352.76,1423.18 
  "/>
<polyline clip-path="url(#clip280)" style="stroke:#000000; stroke-linecap:butt; stroke-linejoin:round; stroke-width:4; stroke-opacity:1; fill:none" points="
  219.866,123.472 2352.76,123.472 
  "/>
<polyline clip-path="url(#clip280)" style="stroke:#000000; stroke-linecap:butt; stroke-linejoin:round; stroke-width:4; stroke-opacity:1; fill:none" points="
  259.906,1423.18 259.906,1407.58 
  "/>
<polyline clip-path="url(#clip280)" style="stroke:#000000; stroke-linecap:butt; stroke-linejoin:round; stroke-width:4; stroke-opacity:1; fill:none" points="
  768.027,1423.18 768.027,1407.58 
  "/>
<polyline clip-path="url(#clip280)" style="stroke:#000000; stroke-linecap:butt; stroke-linejoin:round; stroke-width:4; stroke-opacity:1; fill:none" points="
  1276.15,1423.18 1276.15,1407.58 
  "/>
<polyline clip-path="url(#clip280)" style="stroke:#000000; stroke-linecap:butt; stroke-linejoin:round; stroke-width:4; stroke-opacity:1; fill:none" points="
  1784.27,1423.18 1784.27,1407.58 
  "/>
<polyline clip-path="url(#clip280)" style="stroke:#000000; stroke-linecap:butt; stroke-linejoin:round; stroke-width:4; stroke-opacity:1; fill:none" points="
  2292.39,1423.18 2292.39,1407.58 
  "/>
<path clip-path="url(#clip280)" d="M259.906 1452.37 Q256.295 1452.37 254.466 1455.94 Q252.661 1459.48 252.661 1466.61 Q252.661 1473.71 254.466 1477.28 Q256.295 1480.82 259.906 1480.82 Q263.54 1480.82 265.346 1477.28 Q267.175 1473.71 267.175 1466.61 Q267.175 1459.48 265.346 1455.94 Q263.54 1452.37 259.906 1452.37 M259.906 1448.67 Q265.716 1448.67 268.772 1453.27 Q271.851 1457.86 271.851 1466.61 Q271.851 1475.33 268.772 1479.94 Q265.716 1484.52 259.906 1484.52 Q254.096 1484.52 251.017 1479.94 Q247.962 1475.33 247.962 1466.61 Q247.962 1457.86 251.017 1453.27 Q254.096 1448.67 259.906 1448.67 Z" fill="#000000" fill-rule="evenodd" fill-opacity="1" /><path clip-path="url(#clip280)" d="M747.298 1479.92 L763.618 1479.92 L763.618 1483.85 L741.673 1483.85 L741.673 1479.92 Q744.335 1477.16 748.919 1472.53 Q753.525 1467.88 754.706 1466.54 Q756.951 1464.01 757.831 1462.28 Q758.734 1460.52 758.734 1458.83 Q758.734 1456.07 756.789 1454.34 Q754.868 1452.6 751.766 1452.6 Q749.567 1452.6 747.113 1453.37 Q744.683 1454.13 741.905 1455.68 L741.905 1450.96 Q744.729 1449.82 747.183 1449.25 Q749.636 1448.67 751.673 1448.67 Q757.044 1448.67 760.238 1451.35 Q763.433 1454.04 763.433 1458.53 Q763.433 1460.66 762.622 1462.58 Q761.835 1464.48 759.729 1467.07 Q759.15 1467.74 756.048 1470.96 Q752.947 1474.15 747.298 1479.92 Z" fill="#000000" fill-rule="evenodd" fill-opacity="1" /><path clip-path="url(#clip280)" d="M773.479 1449.29 L791.835 1449.29 L791.835 1453.23 L777.761 1453.23 L777.761 1461.7 Q778.78 1461.35 779.798 1461.19 Q780.817 1461 781.835 1461 Q787.622 1461 791.002 1464.18 Q794.381 1467.35 794.381 1472.76 Q794.381 1478.34 790.909 1481.44 Q787.437 1484.52 781.118 1484.52 Q778.942 1484.52 776.673 1484.15 Q774.428 1483.78 772.02 1483.04 L772.02 1478.34 Q774.104 1479.48 776.326 1480.03 Q778.548 1480.59 781.025 1480.59 Q785.03 1480.59 787.368 1478.48 Q789.706 1476.38 789.706 1472.76 Q789.706 1469.15 787.368 1467.05 Q785.03 1464.94 781.025 1464.94 Q779.15 1464.94 777.275 1465.36 Q775.423 1465.77 773.479 1466.65 L773.479 1449.29 Z" fill="#000000" fill-rule="evenodd" fill-opacity="1" /><path clip-path="url(#clip280)" d="M1250.85 1449.29 L1269.2 1449.29 L1269.2 1453.23 L1255.13 1453.23 L1255.13 1461.7 Q1256.15 1461.35 1257.17 1461.19 Q1258.19 1461 1259.2 1461 Q1264.99 1461 1268.37 1464.18 Q1271.75 1467.35 1271.75 1472.76 Q1271.75 1478.34 1268.28 1481.44 Q1264.81 1484.52 1258.49 1484.52 Q1256.31 1484.52 1254.04 1484.15 Q1251.8 1483.78 1249.39 1483.04 L1249.39 1478.34 Q1251.47 1479.48 1253.7 1480.03 Q1255.92 1480.59 1258.39 1480.59 Q1262.4 1480.59 1264.74 1478.48 Q1267.07 1476.38 1267.07 1472.76 Q1267.07 1469.15 1264.74 1467.05 Q1262.4 1464.94 1258.39 1464.94 Q1256.52 1464.94 1254.64 1465.36 Q1252.79 1465.77 1250.85 1466.65 L1250.85 1449.29 Z" fill="#000000" fill-rule="evenodd" fill-opacity="1" /><path clip-path="url(#clip280)" d="M1290.96 1452.37 Q1287.35 1452.37 1285.52 1455.94 Q1283.72 1459.48 1283.72 1466.61 Q1283.72 1473.71 1285.52 1477.28 Q1287.35 1480.82 1290.96 1480.82 Q1294.6 1480.82 1296.4 1477.28 Q1298.23 1473.71 1298.23 1466.61 Q1298.23 1459.48 1296.4 1455.94 Q1294.6 1452.37 1290.96 1452.37 M1290.96 1448.67 Q1296.77 1448.67 1299.83 1453.27 Q1302.91 1457.86 1302.91 1466.61 Q1302.91 1475.33 1299.83 1479.94 Q1296.77 1484.52 1290.96 1484.52 Q1285.15 1484.52 1282.07 1479.94 Q1279.02 1475.33 1279.02 1466.61 Q1279.02 1457.86 1282.07 1453.27 Q1285.15 1448.67 1290.96 1448.67 Z" fill="#000000" fill-rule="evenodd" fill-opacity="1" /><path clip-path="url(#clip280)" d="M1758.12 1449.29 L1780.35 1449.29 L1780.35 1451.28 L1767.8 1483.85 L1762.92 1483.85 L1774.72 1453.23 L1758.12 1453.23 L1758.12 1449.29 Z" fill="#000000" fill-rule="evenodd" fill-opacity="1" /><path clip-path="url(#clip280)" d="M1789.51 1449.29 L1807.87 1449.29 L1807.87 1453.23 L1793.8 1453.23 L1793.8 1461.7 Q1794.81 1461.35 1795.83 1461.19 Q1796.85 1461 1797.87 1461 Q1803.66 1461 1807.04 1464.18 Q1810.42 1467.35 1810.42 1472.76 Q1810.42 1478.34 1806.94 1481.44 Q1803.47 1484.52 1797.15 1484.52 Q1794.98 1484.52 1792.71 1484.15 Q1790.46 1483.78 1788.05 1483.04 L1788.05 1478.34 Q1790.14 1479.48 1792.36 1480.03 Q1794.58 1480.59 1797.06 1480.59 Q1801.06 1480.59 1803.4 1478.48 Q1805.74 1476.38 1805.74 1472.76 Q1805.74 1469.15 1803.4 1467.05 Q1801.06 1464.94 1797.06 1464.94 Q1795.18 1464.94 1793.31 1465.36 Q1791.46 1465.77 1789.51 1466.65 L1789.51 1449.29 Z" fill="#000000" fill-rule="evenodd" fill-opacity="1" /><path clip-path="url(#clip280)" d="M2252 1479.92 L2259.64 1479.92 L2259.64 1453.55 L2251.33 1455.22 L2251.33 1450.96 L2259.59 1449.29 L2264.27 1449.29 L2264.27 1479.92 L2271.91 1479.92 L2271.91 1483.85 L2252 1483.85 L2252 1479.92 Z" fill="#000000" fill-rule="evenodd" fill-opacity="1" /><path clip-path="url(#clip280)" d="M2291.35 1452.37 Q2287.74 1452.37 2285.91 1455.94 Q2284.1 1459.48 2284.1 1466.61 Q2284.1 1473.71 2285.91 1477.28 Q2287.74 1480.82 2291.35 1480.82 Q2294.98 1480.82 2296.79 1477.28 Q2298.62 1473.71 2298.62 1466.61 Q2298.62 1459.48 2296.79 1455.94 Q2294.98 1452.37 2291.35 1452.37 M2291.35 1448.67 Q2297.16 1448.67 2300.22 1453.27 Q2303.29 1457.86 2303.29 1466.61 Q2303.29 1475.33 2300.22 1479.94 Q2297.16 1484.52 2291.35 1484.52 Q2285.54 1484.52 2282.46 1479.94 Q2279.41 1475.33 2279.41 1466.61 Q2279.41 1457.86 2282.46 1453.27 Q2285.54 1448.67 2291.35 1448.67 Z" fill="#000000" fill-rule="evenodd" fill-opacity="1" /><path clip-path="url(#clip280)" d="M2321.51 1452.37 Q2317.9 1452.37 2316.07 1455.94 Q2314.27 1459.48 2314.27 1466.61 Q2314.27 1473.71 2316.07 1477.28 Q2317.9 1480.82 2321.51 1480.82 Q2325.15 1480.82 2326.95 1477.28 Q2328.78 1473.71 2328.78 1466.61 Q2328.78 1459.48 2326.95 1455.94 Q2325.15 1452.37 2321.51 1452.37 M2321.51 1448.67 Q2327.32 1448.67 2330.38 1453.27 Q2333.46 1457.86 2333.46 1466.61 Q2333.46 1475.33 2330.38 1479.94 Q2327.32 1484.52 2321.51 1484.52 Q2315.7 1484.52 2312.62 1479.94 Q2309.57 1475.33 2309.57 1466.61 Q2309.57 1457.86 2312.62 1453.27 Q2315.7 1448.67 2321.51 1448.67 Z" fill="#000000" fill-rule="evenodd" fill-opacity="1" /><path clip-path="url(#clip280)" d="M1094.94 1520.52 L1124.99 1520.52 L1124.99 1525.93 L1101.37 1525.93 L1101.37 1540 L1124 1540 L1124 1545.41 L1101.37 1545.41 L1101.37 1562.63 L1125.56 1562.63 L1125.56 1568.04 L1094.94 1568.04 L1094.94 1520.52 Z" fill="#000000" fill-rule="evenodd" fill-opacity="1" /><path clip-path="url(#clip280)" d="M1141.54 1562.7 L1141.54 1581.6 L1135.65 1581.6 L1135.65 1532.4 L1141.54 1532.4 L1141.54 1537.81 Q1143.39 1534.62 1146.19 1533.1 Q1149.02 1531.54 1152.93 1531.54 Q1159.43 1531.54 1163.47 1536.69 Q1167.54 1541.85 1167.54 1550.25 Q1167.54 1558.65 1163.47 1563.81 Q1159.43 1568.97 1152.93 1568.97 Q1149.02 1568.97 1146.19 1567.44 Q1143.39 1565.88 1141.54 1562.7 M1161.46 1550.25 Q1161.46 1543.79 1158.79 1540.13 Q1156.15 1536.44 1151.5 1536.44 Q1146.85 1536.44 1144.18 1540.13 Q1141.54 1543.79 1141.54 1550.25 Q1141.54 1556.71 1144.18 1560.4 Q1146.85 1564.07 1151.5 1564.07 Q1156.15 1564.07 1158.79 1560.4 Q1161.46 1556.71 1161.46 1550.25 Z" fill="#000000" fill-rule="evenodd" fill-opacity="1" /><path clip-path="url(#clip280)" d="M1177.25 1532.4 L1183.11 1532.4 L1183.11 1568.04 L1177.25 1568.04 L1177.25 1532.4 M1177.25 1518.52 L1183.11 1518.52 L1183.11 1525.93 L1177.25 1525.93 L1177.25 1518.52 Z" fill="#000000" fill-rule="evenodd" fill-opacity="1" /><path clip-path="url(#clip280)" d="M1218.09 1533.45 L1218.09 1538.98 Q1215.6 1537.71 1212.93 1537.07 Q1210.26 1536.44 1207.39 1536.44 Q1203.03 1536.44 1200.84 1537.77 Q1198.67 1539.11 1198.67 1541.79 Q1198.67 1543.82 1200.23 1545 Q1201.79 1546.15 1206.5 1547.2 L1208.51 1547.64 Q1214.74 1548.98 1217.35 1551.43 Q1220 1553.85 1220 1558.21 Q1220 1563.17 1216.05 1566.07 Q1212.13 1568.97 1205.26 1568.97 Q1202.4 1568.97 1199.28 1568.39 Q1196.19 1567.85 1192.75 1566.74 L1192.75 1560.69 Q1196 1562.38 1199.15 1563.24 Q1202.3 1564.07 1205.39 1564.07 Q1209.52 1564.07 1211.75 1562.66 Q1213.98 1561.23 1213.98 1558.65 Q1213.98 1556.27 1212.36 1554.99 Q1210.77 1553.72 1205.32 1552.54 L1203.29 1552.07 Q1197.84 1550.92 1195.42 1548.56 Q1193.01 1546.18 1193.01 1542.04 Q1193.01 1537.01 1196.57 1534.27 Q1200.14 1531.54 1206.69 1531.54 Q1209.94 1531.54 1212.8 1532.01 Q1215.67 1532.49 1218.09 1533.45 Z" fill="#000000" fill-rule="evenodd" fill-opacity="1" /><path clip-path="url(#clip280)" d="M1243.14 1536.5 Q1238.43 1536.5 1235.69 1540.19 Q1232.95 1543.85 1232.95 1550.25 Q1232.95 1556.65 1235.66 1560.34 Q1238.39 1564 1243.14 1564 Q1247.81 1564 1250.55 1560.31 Q1253.29 1556.62 1253.29 1550.25 Q1253.29 1543.92 1250.55 1540.23 Q1247.81 1536.5 1243.14 1536.5 M1243.14 1531.54 Q1250.77 1531.54 1255.14 1536.5 Q1259.5 1541.47 1259.5 1550.25 Q1259.5 1559 1255.14 1564 Q1250.77 1568.97 1243.14 1568.97 Q1235.47 1568.97 1231.1 1564 Q1226.78 1559 1226.78 1550.25 Q1226.78 1541.47 1231.1 1536.5 Q1235.47 1531.54 1243.14 1531.54 Z" fill="#000000" fill-rule="evenodd" fill-opacity="1" /><path clip-path="url(#clip280)" d="M1292.66 1537.81 L1292.66 1518.52 L1298.52 1518.52 L1298.52 1568.04 L1292.66 1568.04 L1292.66 1562.7 Q1290.81 1565.88 1287.98 1567.44 Q1285.18 1568.97 1281.23 1568.97 Q1274.77 1568.97 1270.7 1563.81 Q1266.66 1558.65 1266.66 1550.25 Q1266.66 1541.85 1270.7 1536.69 Q1274.77 1531.54 1281.23 1531.54 Q1285.18 1531.54 1287.98 1533.1 Q1290.81 1534.62 1292.66 1537.81 M1272.7 1550.25 Q1272.7 1556.71 1275.35 1560.4 Q1278.02 1564.07 1282.67 1564.07 Q1287.31 1564.07 1289.99 1560.4 Q1292.66 1556.71 1292.66 1550.25 Q1292.66 1543.79 1289.99 1540.13 Q1287.31 1536.44 1282.67 1536.44 Q1278.02 1536.44 1275.35 1540.13 Q1272.7 1543.79 1272.7 1550.25 Z" fill="#000000" fill-rule="evenodd" fill-opacity="1" /><path clip-path="url(#clip280)" d="M1341.07 1548.76 L1341.07 1551.62 L1314.15 1551.62 Q1314.53 1557.67 1317.77 1560.85 Q1321.05 1564 1326.88 1564 Q1330.25 1564 1333.4 1563.17 Q1336.58 1562.35 1339.7 1560.69 L1339.7 1566.23 Q1336.55 1567.57 1333.24 1568.27 Q1329.93 1568.97 1326.53 1568.97 Q1318 1568.97 1313 1564 Q1308.03 1559.04 1308.03 1550.57 Q1308.03 1541.82 1312.74 1536.69 Q1317.49 1531.54 1325.51 1531.54 Q1332.7 1531.54 1336.87 1536.18 Q1341.07 1540.8 1341.07 1548.76 M1335.22 1547.04 Q1335.15 1542.23 1332.51 1539.37 Q1329.9 1536.5 1325.57 1536.5 Q1320.67 1536.5 1317.71 1539.27 Q1314.78 1542.04 1314.34 1547.07 L1335.22 1547.04 Z" fill="#000000" fill-rule="evenodd" fill-opacity="1" /><path clip-path="url(#clip280)" d="M1373.41 1533.45 L1373.41 1538.98 Q1370.93 1537.71 1368.25 1537.07 Q1365.58 1536.44 1362.72 1536.44 Q1358.35 1536.44 1356.16 1537.77 Q1353.99 1539.11 1353.99 1541.79 Q1353.99 1543.82 1355.55 1545 Q1357.11 1546.15 1361.82 1547.2 L1363.83 1547.64 Q1370.07 1548.98 1372.68 1551.43 Q1375.32 1553.85 1375.32 1558.21 Q1375.32 1563.17 1371.37 1566.07 Q1367.46 1568.97 1360.58 1568.97 Q1357.72 1568.97 1354.6 1568.39 Q1351.51 1567.85 1348.07 1566.74 L1348.07 1560.69 Q1351.32 1562.38 1354.47 1563.24 Q1357.62 1564.07 1360.71 1564.07 Q1364.85 1564.07 1367.08 1562.66 Q1369.3 1561.23 1369.3 1558.65 Q1369.3 1556.27 1367.68 1554.99 Q1366.09 1553.72 1360.65 1552.54 L1358.61 1552.07 Q1353.17 1550.92 1350.75 1548.56 Q1348.33 1546.18 1348.33 1542.04 Q1348.33 1537.01 1351.89 1534.27 Q1355.46 1531.54 1362.02 1531.54 Q1365.26 1531.54 1368.13 1532.01 Q1370.99 1532.49 1373.41 1533.45 Z" fill="#000000" fill-rule="evenodd" fill-opacity="1" /><path clip-path="url(#clip280)" d="M1415.77 1520.52 L1421.18 1520.52 L1404.63 1574.09 L1399.22 1574.09 L1415.77 1520.52 Z" fill="#000000" fill-rule="evenodd" fill-opacity="1" /><path clip-path="url(#clip280)" d="M1448.94 1520.52 L1474.18 1520.52 L1474.18 1525.93 L1454.83 1525.93 L1454.83 1537.58 Q1456.23 1537.11 1457.63 1536.88 Q1459.03 1536.63 1460.43 1536.63 Q1468.39 1536.63 1473.03 1540.99 Q1477.68 1545.35 1477.68 1552.8 Q1477.68 1560.47 1472.91 1564.73 Q1468.13 1568.97 1459.44 1568.97 Q1456.45 1568.97 1453.33 1568.46 Q1450.24 1567.95 1446.93 1566.93 L1446.93 1560.47 Q1449.8 1562.03 1452.85 1562.79 Q1455.91 1563.56 1459.32 1563.56 Q1464.82 1563.56 1468.04 1560.66 Q1471.25 1557.76 1471.25 1552.8 Q1471.25 1547.83 1468.04 1544.94 Q1464.82 1542.04 1459.32 1542.04 Q1456.74 1542.04 1454.16 1542.61 Q1451.61 1543.19 1448.94 1544.4 L1448.94 1520.52 Z" fill="#000000" fill-rule="evenodd" fill-opacity="1" /><polyline clip-path="url(#clip282)" style="stroke:#000000; stroke-linecap:butt; stroke-linejoin:round; stroke-width:2; stroke-opacity:0.1; fill:none" points="
  219.866,1313.38 2352.76,1313.38 
  "/>
<polyline clip-path="url(#clip282)" style="stroke:#000000; stroke-linecap:butt; stroke-linejoin:round; stroke-width:2; stroke-opacity:0.1; fill:none" points="
  219.866,1121.19 2352.76,1121.19 
  "/>
<polyline clip-path="url(#clip282)" style="stroke:#000000; stroke-linecap:butt; stroke-linejoin:round; stroke-width:2; stroke-opacity:0.1; fill:none" points="
  219.866,929.006 2352.76,929.006 
  "/>
<polyline clip-path="url(#clip282)" style="stroke:#000000; stroke-linecap:butt; stroke-linejoin:round; stroke-width:2; stroke-opacity:0.1; fill:none" points="
  219.866,736.819 2352.76,736.819 
  "/>
<polyline clip-path="url(#clip282)" style="stroke:#000000; stroke-linecap:butt; stroke-linejoin:round; stroke-width:2; stroke-opacity:0.1; fill:none" points="
  219.866,544.631 2352.76,544.631 
  "/>
<polyline clip-path="url(#clip282)" style="stroke:#000000; stroke-linecap:butt; stroke-linejoin:round; stroke-width:2; stroke-opacity:0.1; fill:none" points="
  219.866,352.444 2352.76,352.444 
  "/>
<polyline clip-path="url(#clip282)" style="stroke:#000000; stroke-linecap:butt; stroke-linejoin:round; stroke-width:2; stroke-opacity:0.1; fill:none" points="
  219.866,160.256 2352.76,160.256 
  "/>
<polyline clip-path="url(#clip280)" style="stroke:#000000; stroke-linecap:butt; stroke-linejoin:round; stroke-width:4; stroke-opacity:1; fill:none" points="
  219.866,1423.18 219.866,123.472 
  "/>
<polyline clip-path="url(#clip280)" style="stroke:#000000; stroke-linecap:butt; stroke-linejoin:round; stroke-width:4; stroke-opacity:1; fill:none" points="
  2352.76,1423.18 2352.76,123.472 
  "/>
<polyline clip-path="url(#clip280)" style="stroke:#000000; stroke-linecap:butt; stroke-linejoin:round; stroke-width:4; stroke-opacity:1; fill:none" points="
  219.866,1313.38 245.461,1313.38 
  "/>
<polyline clip-path="url(#clip280)" style="stroke:#000000; stroke-linecap:butt; stroke-linejoin:round; stroke-width:4; stroke-opacity:1; fill:none" points="
  219.866,1121.19 245.461,1121.19 
  "/>
<polyline clip-path="url(#clip280)" style="stroke:#000000; stroke-linecap:butt; stroke-linejoin:round; stroke-width:4; stroke-opacity:1; fill:none" points="
  219.866,929.006 245.461,929.006 
  "/>
<polyline clip-path="url(#clip280)" style="stroke:#000000; stroke-linecap:butt; stroke-linejoin:round; stroke-width:4; stroke-opacity:1; fill:none" points="
  219.866,736.819 245.461,736.819 
  "/>
<polyline clip-path="url(#clip280)" style="stroke:#000000; stroke-linecap:butt; stroke-linejoin:round; stroke-width:4; stroke-opacity:1; fill:none" points="
  219.866,544.631 245.461,544.631 
  "/>
<polyline clip-path="url(#clip280)" style="stroke:#000000; stroke-linecap:butt; stroke-linejoin:round; stroke-width:4; stroke-opacity:1; fill:none" points="
  219.866,352.444 245.461,352.444 
  "/>
<polyline clip-path="url(#clip280)" style="stroke:#000000; stroke-linecap:butt; stroke-linejoin:round; stroke-width:4; stroke-opacity:1; fill:none" points="
  219.866,160.256 245.461,160.256 
  "/>
<path clip-path="url(#clip280)" d="M126.205 1299.18 Q122.593 1299.18 120.765 1302.74 Q118.959 1306.29 118.959 1313.42 Q118.959 1320.52 120.765 1324.09 Q122.593 1327.63 126.205 1327.63 Q129.839 1327.63 131.644 1324.09 Q133.473 1320.52 133.473 1313.42 Q133.473 1306.29 131.644 1302.74 Q129.839 1299.18 126.205 1299.18 M126.205 1295.48 Q132.015 1295.48 135.07 1300.08 Q138.149 1304.67 138.149 1313.42 Q138.149 1322.14 135.07 1326.75 Q132.015 1331.33 126.205 1331.33 Q120.394 1331.33 117.316 1326.75 Q114.26 1322.14 114.26 1313.42 Q114.26 1304.67 117.316 1300.08 Q120.394 1295.48 126.205 1295.48 Z" fill="#000000" fill-rule="evenodd" fill-opacity="1" /><path clip-path="url(#clip280)" d="M146.366 1324.78 L151.251 1324.78 L151.251 1330.66 L146.366 1330.66 L146.366 1324.78 Z" fill="#000000" fill-rule="evenodd" fill-opacity="1" /><path clip-path="url(#clip280)" d="M174.283 1300.18 L162.477 1318.62 L174.283 1318.62 L174.283 1300.18 M173.056 1296.1 L178.936 1296.1 L178.936 1318.62 L183.866 1318.62 L183.866 1322.51 L178.936 1322.51 L178.936 1330.66 L174.283 1330.66 L174.283 1322.51 L158.681 1322.51 L158.681 1318 L173.056 1296.1 Z" fill="#000000" fill-rule="evenodd" fill-opacity="1" /><path clip-path="url(#clip280)" d="M127.686 1106.99 Q124.075 1106.99 122.246 1110.56 Q120.441 1114.1 120.441 1121.23 Q120.441 1128.33 122.246 1131.9 Q124.075 1135.44 127.686 1135.44 Q131.32 1135.44 133.126 1131.9 Q134.954 1128.33 134.954 1121.23 Q134.954 1114.1 133.126 1110.56 Q131.32 1106.99 127.686 1106.99 M127.686 1103.29 Q133.496 1103.29 136.552 1107.9 Q139.63 1112.48 139.63 1121.23 Q139.63 1129.96 136.552 1134.56 Q133.496 1139.14 127.686 1139.14 Q121.876 1139.14 118.797 1134.56 Q115.742 1129.96 115.742 1121.23 Q115.742 1112.48 118.797 1107.9 Q121.876 1103.29 127.686 1103.29 Z" fill="#000000" fill-rule="evenodd" fill-opacity="1" /><path clip-path="url(#clip280)" d="M147.848 1132.59 L152.732 1132.59 L152.732 1138.47 L147.848 1138.47 L147.848 1132.59 Z" fill="#000000" fill-rule="evenodd" fill-opacity="1" /><path clip-path="url(#clip280)" d="M162.964 1103.91 L181.32 1103.91 L181.32 1107.85 L167.246 1107.85 L167.246 1116.32 Q168.264 1115.97 169.283 1115.81 Q170.302 1115.63 171.32 1115.63 Q177.107 1115.63 180.487 1118.8 Q183.866 1121.97 183.866 1127.39 Q183.866 1132.96 180.394 1136.07 Q176.922 1139.14 170.602 1139.14 Q168.427 1139.14 166.158 1138.77 Q163.913 1138.4 161.505 1137.66 L161.505 1132.96 Q163.589 1134.1 165.811 1134.65 Q168.033 1135.21 170.51 1135.21 Q174.514 1135.21 176.852 1133.1 Q179.19 1131 179.19 1127.39 Q179.19 1123.77 176.852 1121.67 Q174.514 1119.56 170.51 1119.56 Q168.635 1119.56 166.76 1119.98 Q164.908 1120.4 162.964 1121.27 L162.964 1103.91 Z" fill="#000000" fill-rule="evenodd" fill-opacity="1" /><path clip-path="url(#clip280)" d="M126.529 914.805 Q122.918 914.805 121.089 918.37 Q119.283 921.911 119.283 929.041 Q119.283 936.147 121.089 939.712 Q122.918 943.254 126.529 943.254 Q130.163 943.254 131.968 939.712 Q133.797 936.147 133.797 929.041 Q133.797 921.911 131.968 918.37 Q130.163 914.805 126.529 914.805 M126.529 911.101 Q132.339 911.101 135.394 915.708 Q138.473 920.291 138.473 929.041 Q138.473 937.768 135.394 942.374 Q132.339 946.957 126.529 946.957 Q120.718 946.957 117.64 942.374 Q114.584 937.768 114.584 929.041 Q114.584 920.291 117.64 915.708 Q120.718 911.101 126.529 911.101 Z" fill="#000000" fill-rule="evenodd" fill-opacity="1" /><path clip-path="url(#clip280)" d="M146.691 940.407 L151.575 940.407 L151.575 946.286 L146.691 946.286 L146.691 940.407 Z" fill="#000000" fill-rule="evenodd" fill-opacity="1" /><path clip-path="url(#clip280)" d="M172.339 927.143 Q169.19 927.143 167.339 929.296 Q165.51 931.448 165.51 935.198 Q165.51 938.925 167.339 941.101 Q169.19 943.254 172.339 943.254 Q175.487 943.254 177.315 941.101 Q179.167 938.925 179.167 935.198 Q179.167 931.448 177.315 929.296 Q175.487 927.143 172.339 927.143 M181.621 912.49 L181.621 916.749 Q179.862 915.916 178.056 915.476 Q176.274 915.036 174.514 915.036 Q169.885 915.036 167.431 918.161 Q165.001 921.286 164.653 927.606 Q166.019 925.592 168.079 924.527 Q170.139 923.439 172.616 923.439 Q177.825 923.439 180.834 926.61 Q183.866 929.758 183.866 935.198 Q183.866 940.522 180.718 943.74 Q177.57 946.957 172.339 946.957 Q166.343 946.957 163.172 942.374 Q160.001 937.768 160.001 929.041 Q160.001 920.846 163.89 915.985 Q167.778 911.101 174.329 911.101 Q176.089 911.101 177.871 911.448 Q179.676 911.796 181.621 912.49 Z" fill="#000000" fill-rule="evenodd" fill-opacity="1" /><path clip-path="url(#clip280)" d="M127.593 722.617 Q123.982 722.617 122.154 726.182 Q120.348 729.724 120.348 736.853 Q120.348 743.96 122.154 747.525 Q123.982 751.066 127.593 751.066 Q131.228 751.066 133.033 747.525 Q134.862 743.96 134.862 736.853 Q134.862 729.724 133.033 726.182 Q131.228 722.617 127.593 722.617 M127.593 718.914 Q133.404 718.914 136.459 723.52 Q139.538 728.103 139.538 736.853 Q139.538 745.58 136.459 750.187 Q133.404 754.77 127.593 754.77 Q121.783 754.77 118.705 750.187 Q115.649 745.58 115.649 736.853 Q115.649 728.103 118.705 723.52 Q121.783 718.914 127.593 718.914 Z" fill="#000000" fill-rule="evenodd" fill-opacity="1" /><path clip-path="url(#clip280)" d="M147.755 748.219 L152.64 748.219 L152.64 754.099 L147.755 754.099 L147.755 748.219 Z" fill="#000000" fill-rule="evenodd" fill-opacity="1" /><path clip-path="url(#clip280)" d="M161.644 719.539 L183.866 719.539 L183.866 721.529 L171.32 754.099 L166.436 754.099 L178.241 723.474 L161.644 723.474 L161.644 719.539 Z" fill="#000000" fill-rule="evenodd" fill-opacity="1" /><path clip-path="url(#clip280)" d="M126.783 530.43 Q123.172 530.43 121.343 533.995 Q119.538 537.536 119.538 544.666 Q119.538 551.772 121.343 555.337 Q123.172 558.879 126.783 558.879 Q130.417 558.879 132.223 555.337 Q134.052 551.772 134.052 544.666 Q134.052 537.536 132.223 533.995 Q130.417 530.43 126.783 530.43 M126.783 526.726 Q132.593 526.726 135.649 531.333 Q138.728 535.916 138.728 544.666 Q138.728 553.393 135.649 557.999 Q132.593 562.583 126.783 562.583 Q120.973 562.583 117.894 557.999 Q114.839 553.393 114.839 544.666 Q114.839 535.916 117.894 531.333 Q120.973 526.726 126.783 526.726 Z" fill="#000000" fill-rule="evenodd" fill-opacity="1" /><path clip-path="url(#clip280)" d="M146.945 556.032 L151.829 556.032 L151.829 561.911 L146.945 561.911 L146.945 556.032 Z" fill="#000000" fill-rule="evenodd" fill-opacity="1" /><path clip-path="url(#clip280)" d="M172.014 545.499 Q168.681 545.499 166.76 547.282 Q164.862 549.064 164.862 552.189 Q164.862 555.314 166.76 557.096 Q168.681 558.879 172.014 558.879 Q175.348 558.879 177.269 557.096 Q179.19 555.291 179.19 552.189 Q179.19 549.064 177.269 547.282 Q175.371 545.499 172.014 545.499 M167.339 543.509 Q164.329 542.768 162.64 540.708 Q160.973 538.647 160.973 535.685 Q160.973 531.541 163.913 529.134 Q166.876 526.726 172.014 526.726 Q177.176 526.726 180.116 529.134 Q183.056 531.541 183.056 535.685 Q183.056 538.647 181.366 540.708 Q179.7 542.768 176.714 543.509 Q180.093 544.296 181.968 546.587 Q183.866 548.879 183.866 552.189 Q183.866 557.212 180.788 559.897 Q177.732 562.583 172.014 562.583 Q166.297 562.583 163.218 559.897 Q160.163 557.212 160.163 552.189 Q160.163 548.879 162.061 546.587 Q163.959 544.296 167.339 543.509 M165.626 536.124 Q165.626 538.81 167.292 540.314 Q168.982 541.819 172.014 541.819 Q175.024 541.819 176.714 540.314 Q178.426 538.81 178.426 536.124 Q178.426 533.439 176.714 531.935 Q175.024 530.43 172.014 530.43 Q168.982 530.43 167.292 531.935 Q165.626 533.439 165.626 536.124 Z" fill="#000000" fill-rule="evenodd" fill-opacity="1" /><path clip-path="url(#clip280)" d="M126.876 338.242 Q123.265 338.242 121.436 341.807 Q119.63 345.349 119.63 352.479 Q119.63 359.585 121.436 363.15 Q123.265 366.691 126.876 366.691 Q130.51 366.691 132.316 363.15 Q134.144 359.585 134.144 352.479 Q134.144 345.349 132.316 341.807 Q130.51 338.242 126.876 338.242 M126.876 334.539 Q132.686 334.539 135.742 339.145 Q138.82 343.729 138.82 352.479 Q138.82 361.205 135.742 365.812 Q132.686 370.395 126.876 370.395 Q121.066 370.395 117.987 365.812 Q114.931 361.205 114.931 352.479 Q114.931 343.729 117.987 339.145 Q121.066 334.539 126.876 334.539 Z" fill="#000000" fill-rule="evenodd" fill-opacity="1" /><path clip-path="url(#clip280)" d="M147.038 363.844 L151.922 363.844 L151.922 369.724 L147.038 369.724 L147.038 363.844 Z" fill="#000000" fill-rule="evenodd" fill-opacity="1" /><path clip-path="url(#clip280)" d="M162.246 369.006 L162.246 364.747 Q164.005 365.58 165.811 366.02 Q167.616 366.46 169.352 366.46 Q173.982 366.46 176.413 363.358 Q178.866 360.233 179.214 353.891 Q177.871 355.881 175.811 356.946 Q173.751 358.011 171.251 358.011 Q166.065 358.011 163.033 354.886 Q160.024 351.738 160.024 346.298 Q160.024 340.974 163.172 337.756 Q166.32 334.539 171.552 334.539 Q177.547 334.539 180.695 339.145 Q183.866 343.729 183.866 352.479 Q183.866 360.65 179.977 365.534 Q176.112 370.395 169.561 370.395 Q167.802 370.395 165.996 370.048 Q164.19 369.701 162.246 369.006 M171.552 354.354 Q174.7 354.354 176.528 352.201 Q178.38 350.048 178.38 346.298 Q178.38 342.571 176.528 340.418 Q174.7 338.242 171.552 338.242 Q168.403 338.242 166.552 340.418 Q164.723 342.571 164.723 346.298 Q164.723 350.048 166.552 352.201 Q168.403 354.354 171.552 354.354 Z" fill="#000000" fill-rule="evenodd" fill-opacity="1" /><path clip-path="url(#clip280)" d="M117.501 173.601 L125.14 173.601 L125.14 147.236 L116.83 148.902 L116.83 144.643 L125.093 142.976 L129.769 142.976 L129.769 173.601 L137.408 173.601 L137.408 177.536 L117.501 177.536 L117.501 173.601 Z" fill="#000000" fill-rule="evenodd" fill-opacity="1" /><path clip-path="url(#clip280)" d="M146.853 171.657 L151.737 171.657 L151.737 177.536 L146.853 177.536 L146.853 171.657 Z" fill="#000000" fill-rule="evenodd" fill-opacity="1" /><path clip-path="url(#clip280)" d="M171.922 146.055 Q168.311 146.055 166.482 149.62 Q164.677 153.161 164.677 160.291 Q164.677 167.397 166.482 170.962 Q168.311 174.504 171.922 174.504 Q175.556 174.504 177.362 170.962 Q179.19 167.397 179.19 160.291 Q179.19 153.161 177.362 149.62 Q175.556 146.055 171.922 146.055 M171.922 142.351 Q177.732 142.351 180.788 146.958 Q183.866 151.541 183.866 160.291 Q183.866 169.018 180.788 173.624 Q177.732 178.208 171.922 178.208 Q166.112 178.208 163.033 173.624 Q159.978 169.018 159.978 160.291 Q159.978 151.541 163.033 146.958 Q166.112 142.351 171.922 142.351 Z" fill="#000000" fill-rule="evenodd" fill-opacity="1" /><path clip-path="url(#clip280)" d="M22.818 1005.98 L46.4666 1014.7 L46.4666 997.224 L22.818 1005.98 M16.4842 1009.61 L16.4842 1002.32 L64.0042 984.206 L64.0042 990.89 L51.8138 995.219 L51.8138 1016.64 L64.0042 1020.97 L64.0042 1027.75 L16.4842 1009.61 Z" fill="#000000" fill-rule="evenodd" fill-opacity="1" /><path clip-path="url(#clip280)" d="M28.3562 985.543 L28.3562 979.336 L58.275 968.196 L28.3562 957.056 L28.3562 950.85 L64.0042 964.218 L64.0042 972.175 L28.3562 985.543 Z" fill="#000000" fill-rule="evenodd" fill-opacity="1" /><path clip-path="url(#clip280)" d="M44.7161 912.273 L47.5806 912.273 L47.5806 939.2 Q53.6281 938.818 56.8109 935.572 Q59.9619 932.294 59.9619 926.469 Q59.9619 923.095 59.1344 919.944 Q58.3069 916.761 56.6518 913.642 L62.1899 913.642 Q63.5267 916.793 64.227 920.103 Q64.9272 923.413 64.9272 926.819 Q64.9272 935.349 59.9619 940.346 Q54.9967 945.311 46.5303 945.311 Q37.7774 945.311 32.6531 940.601 Q27.4968 935.858 27.4968 927.838 Q27.4968 920.644 32.1438 916.475 Q36.7589 912.273 44.7161 912.273 M42.9973 918.13 Q38.1912 918.194 35.3266 920.835 Q32.4621 923.445 32.4621 927.774 Q32.4621 932.676 35.2312 935.636 Q38.0002 938.564 43.0292 939.009 L42.9973 918.13 Z" fill="#000000" fill-rule="evenodd" fill-opacity="1" /><path clip-path="url(#clip280)" d="M33.8307 882.005 Q33.2578 882.991 33.0032 884.169 Q32.7167 885.315 32.7167 886.715 Q32.7167 891.68 35.9632 894.354 Q39.1779 896.996 45.2253 896.996 L64.0042 896.996 L64.0042 902.884 L28.3562 902.884 L28.3562 896.996 L33.8944 896.996 Q30.6479 895.15 29.0883 892.19 Q27.4968 889.23 27.4968 884.996 Q27.4968 884.392 27.5923 883.66 Q27.656 882.928 27.8151 882.036 L33.8307 882.005 Z" fill="#000000" fill-rule="evenodd" fill-opacity="1" /><path clip-path="url(#clip280)" d="M46.0847 859.661 Q46.0847 866.759 47.7079 869.496 Q49.3312 872.233 53.2461 872.233 Q56.3653 872.233 58.2114 870.196 Q60.0256 868.127 60.0256 864.594 Q60.0256 859.725 56.5881 856.796 Q53.1188 853.836 47.3897 853.836 L46.0847 853.836 L46.0847 859.661 M43.6657 847.98 L64.0042 847.98 L64.0042 853.836 L58.5933 853.836 Q61.8398 855.841 63.3994 858.833 Q64.9272 861.825 64.9272 866.154 Q64.9272 871.628 61.8716 874.875 Q58.7843 878.09 53.6281 878.09 Q47.6125 878.09 44.5569 874.079 Q41.5014 870.037 41.5014 862.048 L41.5014 853.836 L40.9285 853.836 Q36.8862 853.836 34.6901 856.51 Q32.4621 859.152 32.4621 863.958 Q32.4621 867.013 33.1941 869.91 Q33.9262 872.806 35.3903 875.48 L29.9795 875.48 Q28.7381 872.265 28.1334 869.241 Q27.4968 866.218 27.4968 863.353 Q27.4968 855.619 31.5072 851.799 Q35.5176 847.98 43.6657 847.98 Z" fill="#000000" fill-rule="evenodd" fill-opacity="1" /><path clip-path="url(#clip280)" d="M45.7664 812.459 Q39.4007 812.459 35.8996 815.101 Q32.3984 817.711 32.3984 822.453 Q32.3984 827.164 35.8996 829.806 Q39.4007 832.416 45.7664 832.416 Q52.1003 832.416 55.6014 829.806 Q59.1026 827.164 59.1026 822.453 Q59.1026 817.711 55.6014 815.101 Q52.1003 812.459 45.7664 812.459 M59.58 806.603 Q68.683 806.603 73.1071 810.645 Q77.5631 814.687 77.5631 823.026 Q77.5631 826.114 77.0857 828.851 Q76.6401 831.588 75.6852 834.166 L69.9879 834.166 Q71.3884 831.588 72.0568 829.074 Q72.7252 826.559 72.7252 823.949 Q72.7252 818.188 69.7015 815.324 Q66.7096 812.459 60.6303 812.459 L57.7339 812.459 Q60.885 814.273 62.4446 817.106 Q64.0042 819.939 64.0042 823.886 Q64.0042 830.442 59.0071 834.453 Q54.01 838.463 45.7664 838.463 Q37.491 838.463 32.4939 834.453 Q27.4968 830.442 27.4968 823.886 Q27.4968 819.939 29.0564 817.106 Q30.616 814.273 33.7671 812.459 L28.3562 812.459 L28.3562 806.603 L59.58 806.603 Z" fill="#000000" fill-rule="evenodd" fill-opacity="1" /><path clip-path="url(#clip280)" d="M44.7161 764.048 L47.5806 764.048 L47.5806 790.975 Q53.6281 790.593 56.8109 787.346 Q59.9619 784.068 59.9619 778.243 Q59.9619 774.87 59.1344 771.719 Q58.3069 768.536 56.6518 765.417 L62.1899 765.417 Q63.5267 768.568 64.227 771.878 Q64.9272 775.188 64.9272 778.594 Q64.9272 787.124 59.9619 792.121 Q54.9967 797.086 46.5303 797.086 Q37.7774 797.086 32.6531 792.375 Q27.4968 787.633 27.4968 779.612 Q27.4968 772.419 32.1438 768.249 Q36.7589 764.048 44.7161 764.048 M42.9973 769.904 Q38.1912 769.968 35.3266 772.61 Q32.4621 775.22 32.4621 779.548 Q32.4621 784.45 35.2312 787.41 Q38.0002 790.338 43.0292 790.784 L42.9973 769.904 Z" fill="#000000" fill-rule="evenodd" fill-opacity="1" /><path clip-path="url(#clip280)" d="M14.479 715.669 L19.3487 715.669 L19.3487 721.27 Q19.3487 724.421 20.6219 725.663 Q21.895 726.872 25.2052 726.872 L28.3562 726.872 L28.3562 717.228 L32.9077 717.228 L32.9077 726.872 L64.0042 726.872 L64.0042 732.761 L32.9077 732.761 L32.9077 738.362 L28.3562 738.362 L28.3562 732.761 L25.8736 732.761 Q19.9216 732.761 17.2162 729.991 Q14.479 727.222 14.479 721.207 L14.479 715.669 Z" fill="#000000" fill-rule="evenodd" fill-opacity="1" /><path clip-path="url(#clip280)" d="M28.3562 710.767 L28.3562 704.911 L64.0042 704.911 L64.0042 710.767 L28.3562 710.767 M14.479 710.767 L14.479 704.911 L21.895 704.911 L21.895 710.767 L14.479 710.767 Z" fill="#000000" fill-rule="evenodd" fill-opacity="1" /><path clip-path="url(#clip280)" d="M33.7671 669.199 L14.479 669.199 L14.479 663.342 L64.0042 663.342 L64.0042 669.199 L58.657 669.199 Q61.8398 671.045 63.3994 673.878 Q64.9272 676.679 64.9272 680.625 Q64.9272 687.087 59.771 691.161 Q54.6147 695.203 46.212 695.203 Q37.8093 695.203 32.6531 691.161 Q27.4968 687.087 27.4968 680.625 Q27.4968 676.679 29.0564 673.878 Q30.5842 671.045 33.7671 669.199 M46.212 689.155 Q52.6732 689.155 56.3653 686.514 Q60.0256 683.84 60.0256 679.193 Q60.0256 674.546 56.3653 671.873 Q52.6732 669.199 46.212 669.199 Q39.7508 669.199 36.0905 671.873 Q32.3984 674.546 32.3984 679.193 Q32.3984 683.84 36.0905 686.514 Q39.7508 689.155 46.212 689.155 Z" fill="#000000" fill-rule="evenodd" fill-opacity="1" /><path clip-path="url(#clip280)" d="M44.7161 620.788 L47.5806 620.788 L47.5806 647.715 Q53.6281 647.333 56.8109 644.086 Q59.9619 640.808 59.9619 634.983 Q59.9619 631.609 59.1344 628.458 Q58.3069 625.276 56.6518 622.156 L62.1899 622.156 Q63.5267 625.307 64.227 628.618 Q64.9272 631.928 64.9272 635.333 Q64.9272 643.863 59.9619 648.861 Q54.9967 653.826 46.5303 653.826 Q37.7774 653.826 32.6531 649.115 Q27.4968 644.373 27.4968 636.352 Q27.4968 629.159 32.1438 624.989 Q36.7589 620.788 44.7161 620.788 M42.9973 626.644 Q38.1912 626.708 35.3266 629.35 Q32.4621 631.96 32.4621 636.288 Q32.4621 641.19 35.2312 644.15 Q38.0002 647.078 43.0292 647.524 L42.9973 626.644 Z" fill="#000000" fill-rule="evenodd" fill-opacity="1" /><path clip-path="url(#clip280)" d="M14.479 611.176 L14.479 605.319 L64.0042 605.319 L64.0042 611.176 L14.479 611.176 Z" fill="#000000" fill-rule="evenodd" fill-opacity="1" /><path clip-path="url(#clip280)" d="M28.3562 593.065 L28.3562 587.209 L64.0042 587.209 L64.0042 593.065 L28.3562 593.065 M14.479 593.065 L14.479 587.209 L21.895 587.209 L21.895 593.065 L14.479 593.065 Z" fill="#000000" fill-rule="evenodd" fill-opacity="1" /><path clip-path="url(#clip280)" d="M18.2347 569.162 L28.3562 569.162 L28.3562 557.099 L32.9077 557.099 L32.9077 569.162 L52.2594 569.162 Q56.6199 569.162 57.8613 567.984 Q59.1026 566.775 59.1026 563.114 L59.1026 557.099 L64.0042 557.099 L64.0042 563.114 Q64.0042 569.894 61.4897 572.472 Q58.9434 575.05 52.2594 575.05 L32.9077 575.05 L32.9077 579.347 L28.3562 579.347 L28.3562 575.05 L18.2347 575.05 L18.2347 569.162 Z" fill="#000000" fill-rule="evenodd" fill-opacity="1" /><path clip-path="url(#clip280)" d="M67.3143 534.564 Q73.68 537.047 75.6216 539.402 Q77.5631 541.757 77.5631 545.704 L77.5631 550.383 L72.6615 550.383 L72.6615 546.946 Q72.6615 544.527 71.5157 543.19 Q70.3699 541.853 66.1048 540.23 L63.4312 539.179 L28.3562 553.598 L28.3562 547.391 L56.238 536.251 L28.3562 525.111 L28.3562 518.905 L67.3143 534.564 Z" fill="#000000" fill-rule="evenodd" fill-opacity="1" /><path clip-path="url(#clip280)" d="M574.912 12.096 L583.094 12.096 L583.094 36.8875 L612.828 36.8875 L612.828 12.096 L621.011 12.096 L621.011 72.576 L612.828 72.576 L612.828 43.7741 L583.094 43.7741 L583.094 72.576 L574.912 72.576 L574.912 12.096 Z" fill="#000000" fill-rule="evenodd" fill-opacity="1" /><path clip-path="url(#clip280)" d="M657.59 49.7694 Q648.557 49.7694 645.073 51.8354 Q641.589 53.9013 641.589 58.8839 Q641.589 62.8538 644.182 65.2034 Q646.815 67.5124 651.312 67.5124 Q657.509 67.5124 661.236 63.1374 Q665.004 58.7219 665.004 51.4303 L665.004 49.7694 L657.59 49.7694 M672.457 46.6907 L672.457 72.576 L665.004 72.576 L665.004 65.6895 Q662.452 69.8214 658.644 71.8063 Q654.836 73.7508 649.327 73.7508 Q642.359 73.7508 638.227 69.8619 Q634.136 65.9325 634.136 59.3701 Q634.136 51.7138 639.24 47.825 Q644.385 43.9361 654.552 43.9361 L665.004 43.9361 L665.004 43.2069 Q665.004 38.0623 661.601 35.2672 Q658.239 32.4315 652.122 32.4315 Q648.233 32.4315 644.547 33.3632 Q640.86 34.295 637.458 36.1584 L637.458 29.2718 Q641.549 27.692 645.397 26.9223 Q649.246 26.1121 652.891 26.1121 Q662.735 26.1121 667.596 31.2163 Q672.457 36.3204 672.457 46.6907 Z" fill="#000000" fill-rule="evenodd" fill-opacity="1" /><path clip-path="url(#clip280)" d="M717.665 34.0924 L717.665 9.54393 L725.119 9.54393 L725.119 72.576 L717.665 72.576 L717.665 65.7705 Q715.316 69.8214 711.711 71.8063 Q708.146 73.7508 703.123 73.7508 Q694.899 73.7508 689.714 67.1883 Q684.57 60.6258 684.57 49.9314 Q684.57 39.2371 689.714 32.6746 Q694.899 26.1121 703.123 26.1121 Q708.146 26.1121 711.711 28.0971 Q715.316 30.0415 717.665 34.0924 M692.266 49.9314 Q692.266 58.1548 695.628 62.8538 Q699.031 67.5124 704.946 67.5124 Q710.86 67.5124 714.263 62.8538 Q717.665 58.1548 717.665 49.9314 Q717.665 41.7081 714.263 37.0496 Q710.86 32.3505 704.946 32.3505 Q699.031 32.3505 695.628 37.0496 Q692.266 41.7081 692.266 49.9314 Z" fill="#000000" fill-rule="evenodd" fill-opacity="1" /><path clip-path="url(#clip280)" d="M761.091 49.7694 Q752.058 49.7694 748.574 51.8354 Q745.09 53.9013 745.09 58.8839 Q745.09 62.8538 747.683 65.2034 Q750.316 67.5124 754.812 67.5124 Q761.01 67.5124 764.737 63.1374 Q768.504 58.7219 768.504 51.4303 L768.504 49.7694 L761.091 49.7694 M775.958 46.6907 L775.958 72.576 L768.504 72.576 L768.504 65.6895 Q765.952 69.8214 762.144 71.8063 Q758.336 73.7508 752.827 73.7508 Q745.86 73.7508 741.728 69.8619 Q737.636 65.9325 737.636 59.3701 Q737.636 51.7138 742.741 47.825 Q747.885 43.9361 758.053 43.9361 L768.504 43.9361 L768.504 43.2069 Q768.504 38.0623 765.101 35.2672 Q761.739 32.4315 755.622 32.4315 Q751.734 32.4315 748.047 33.3632 Q744.361 34.295 740.958 36.1584 L740.958 29.2718 Q745.05 27.692 748.898 26.9223 Q752.746 26.1121 756.392 26.1121 Q766.236 26.1121 771.097 31.2163 Q775.958 36.3204 775.958 46.6907 Z" fill="#000000" fill-rule="evenodd" fill-opacity="1" /><path clip-path="url(#clip280)" d="M826.635 35.9153 Q829.43 30.8922 833.319 28.5022 Q837.208 26.1121 842.474 26.1121 Q849.563 26.1121 853.411 31.0947 Q857.26 36.0368 857.26 45.1919 L857.26 72.576 L849.765 72.576 L849.765 45.4349 Q849.765 38.913 847.456 35.7533 Q845.147 32.5936 840.408 32.5936 Q834.615 32.5936 831.253 36.4419 Q827.891 40.2903 827.891 46.9338 L827.891 72.576 L820.396 72.576 L820.396 45.4349 Q820.396 38.8725 818.087 35.7533 Q815.778 32.5936 810.958 32.5936 Q805.246 32.5936 801.884 36.4824 Q798.521 40.3308 798.521 46.9338 L798.521 72.576 L791.027 72.576 L791.027 27.2059 L798.521 27.2059 L798.521 34.2544 Q801.074 30.082 804.638 28.0971 Q808.203 26.1121 813.105 26.1121 Q818.047 26.1121 821.49 28.6237 Q824.974 31.1352 826.635 35.9153 Z" fill="#000000" fill-rule="evenodd" fill-opacity="1" /><path clip-path="url(#clip280)" d="M892.745 49.7694 Q883.712 49.7694 880.228 51.8354 Q876.744 53.9013 876.744 58.8839 Q876.744 62.8538 879.337 65.2034 Q881.97 67.5124 886.467 67.5124 Q892.664 67.5124 896.391 63.1374 Q900.159 58.7219 900.159 51.4303 L900.159 49.7694 L892.745 49.7694 M907.612 46.6907 L907.612 72.576 L900.159 72.576 L900.159 65.6895 Q897.607 69.8214 893.799 71.8063 Q889.991 73.7508 884.482 73.7508 Q877.514 73.7508 873.382 69.8619 Q869.291 65.9325 869.291 59.3701 Q869.291 51.7138 874.395 47.825 Q879.54 43.9361 889.707 43.9361 L900.159 43.9361 L900.159 43.2069 Q900.159 38.0623 896.756 35.2672 Q893.394 32.4315 887.277 32.4315 Q883.388 32.4315 879.702 33.3632 Q876.015 34.295 872.612 36.1584 L872.612 29.2718 Q876.704 27.692 880.552 26.9223 Q884.401 26.1121 888.046 26.1121 Q897.89 26.1121 902.751 31.2163 Q907.612 36.3204 907.612 46.6907 Z" fill="#000000" fill-rule="evenodd" fill-opacity="1" /><path clip-path="url(#clip280)" d="M949.256 34.1734 Q948 33.4443 946.501 33.1202 Q945.043 32.7556 943.26 32.7556 Q936.941 32.7556 933.538 36.8875 Q930.176 40.9789 930.176 48.6757 L930.176 72.576 L922.682 72.576 L922.682 27.2059 L930.176 27.2059 L930.176 34.2544 Q932.525 30.1225 936.293 28.1376 Q940.06 26.1121 945.448 26.1121 Q946.217 26.1121 947.149 26.2337 Q948.081 26.3147 949.215 26.5172 L949.256 34.1734 Z" fill="#000000" fill-rule="evenodd" fill-opacity="1" /><path clip-path="url(#clip280)" d="M985.471 34.0924 L985.471 9.54393 L992.924 9.54393 L992.924 72.576 L985.471 72.576 L985.471 65.7705 Q983.121 69.8214 979.516 71.8063 Q975.951 73.7508 970.928 73.7508 Q962.705 73.7508 957.519 67.1883 Q952.375 60.6258 952.375 49.9314 Q952.375 39.2371 957.519 32.6746 Q962.705 26.1121 970.928 26.1121 Q975.951 26.1121 979.516 28.0971 Q983.121 30.0415 985.471 34.0924 M960.072 49.9314 Q960.072 58.1548 963.434 62.8538 Q966.837 67.5124 972.751 67.5124 Q978.665 67.5124 982.068 62.8538 Q985.471 58.1548 985.471 49.9314 Q985.471 41.7081 982.068 37.0496 Q978.665 32.3505 972.751 32.3505 Q966.837 32.3505 963.434 37.0496 Q960.072 41.7081 960.072 49.9314 Z" fill="#000000" fill-rule="evenodd" fill-opacity="1" /><path clip-path="url(#clip280)" d="M1034.65 9.54393 L1042.1 9.54393 L1042.1 72.576 L1034.65 72.576 L1034.65 9.54393 Z" fill="#000000" fill-rule="evenodd" fill-opacity="1" /><path clip-path="url(#clip280)" d="M1096.51 48.0275 L1096.51 51.6733 L1062.24 51.6733 Q1062.72 59.3701 1066.85 63.421 Q1071.03 67.4314 1078.44 67.4314 Q1082.73 67.4314 1086.74 66.3781 Q1090.79 65.3249 1094.76 63.2184 L1094.76 70.267 Q1090.75 71.9684 1086.54 72.8596 Q1082.33 73.7508 1077.99 73.7508 Q1067.14 73.7508 1060.78 67.4314 Q1054.46 61.1119 1054.46 50.3365 Q1054.46 39.1965 1060.45 32.6746 Q1066.49 26.1121 1076.7 26.1121 Q1085.85 26.1121 1091.16 32.0264 Q1096.51 37.9003 1096.51 48.0275 M1089.05 45.84 Q1088.97 39.7232 1085.61 36.0774 Q1082.29 32.4315 1076.78 32.4315 Q1070.54 32.4315 1066.77 35.9558 Q1063.05 39.4801 1062.48 45.8805 L1089.05 45.84 Z" fill="#000000" fill-rule="evenodd" fill-opacity="1" /><path clip-path="url(#clip280)" d="M1129.36 49.7694 Q1120.33 49.7694 1116.84 51.8354 Q1113.36 53.9013 1113.36 58.8839 Q1113.36 62.8538 1115.95 65.2034 Q1118.58 67.5124 1123.08 67.5124 Q1129.28 67.5124 1133 63.1374 Q1136.77 58.7219 1136.77 51.4303 L1136.77 49.7694 L1129.36 49.7694 M1144.23 46.6907 L1144.23 72.576 L1136.77 72.576 L1136.77 65.6895 Q1134.22 69.8214 1130.41 71.8063 Q1126.6 73.7508 1121.09 73.7508 Q1114.13 73.7508 1110 69.8619 Q1105.9 65.9325 1105.9 59.3701 Q1105.9 51.7138 1111.01 47.825 Q1116.15 43.9361 1126.32 43.9361 L1136.77 43.9361 L1136.77 43.2069 Q1136.77 38.0623 1133.37 35.2672 Q1130.01 32.4315 1123.89 32.4315 Q1120 32.4315 1116.31 33.3632 Q1112.63 34.295 1109.23 36.1584 L1109.23 29.2718 Q1113.32 27.692 1117.17 26.9223 Q1121.01 26.1121 1124.66 26.1121 Q1134.5 26.1121 1139.36 31.2163 Q1144.23 36.3204 1144.23 46.6907 Z" fill="#000000" fill-rule="evenodd" fill-opacity="1" /><path clip-path="url(#clip280)" d="M1185.87 34.1734 Q1184.61 33.4443 1183.11 33.1202 Q1181.66 32.7556 1179.87 32.7556 Q1173.55 32.7556 1170.15 36.8875 Q1166.79 40.9789 1166.79 48.6757 L1166.79 72.576 L1159.29 72.576 L1159.29 27.2059 L1166.79 27.2059 L1166.79 34.2544 Q1169.14 30.1225 1172.91 28.1376 Q1176.67 26.1121 1182.06 26.1121 Q1182.83 26.1121 1183.76 26.2337 Q1184.69 26.3147 1185.83 26.5172 L1185.87 34.1734 Z" fill="#000000" fill-rule="evenodd" fill-opacity="1" /><path clip-path="url(#clip280)" d="M1229.94 45.1919 L1229.94 72.576 L1222.49 72.576 L1222.49 45.4349 Q1222.49 38.994 1219.98 35.7938 Q1217.47 32.5936 1212.44 32.5936 Q1206.41 32.5936 1202.92 36.4419 Q1199.44 40.2903 1199.44 46.9338 L1199.44 72.576 L1191.95 72.576 L1191.95 27.2059 L1199.44 27.2059 L1199.44 34.2544 Q1202.11 30.163 1205.72 28.1376 Q1209.36 26.1121 1214.1 26.1121 Q1221.92 26.1121 1225.93 30.9732 Q1229.94 35.7938 1229.94 45.1919 Z" fill="#000000" fill-rule="evenodd" fill-opacity="1" /><path clip-path="url(#clip280)" d="M1244.81 27.2059 L1252.26 27.2059 L1252.26 72.576 L1244.81 72.576 L1244.81 27.2059 M1244.81 9.54393 L1252.26 9.54393 L1252.26 18.9825 L1244.81 18.9825 L1244.81 9.54393 Z" fill="#000000" fill-rule="evenodd" fill-opacity="1" /><path clip-path="url(#clip280)" d="M1305.57 45.1919 L1305.57 72.576 L1298.12 72.576 L1298.12 45.4349 Q1298.12 38.994 1295.61 35.7938 Q1293.1 32.5936 1288.07 32.5936 Q1282.04 32.5936 1278.55 36.4419 Q1275.07 40.2903 1275.07 46.9338 L1275.07 72.576 L1267.58 72.576 L1267.58 27.2059 L1275.07 27.2059 L1275.07 34.2544 Q1277.74 30.163 1281.35 28.1376 Q1284.99 26.1121 1289.73 26.1121 Q1297.55 26.1121 1301.56 30.9732 Q1305.57 35.7938 1305.57 45.1919 Z" fill="#000000" fill-rule="evenodd" fill-opacity="1" /><path clip-path="url(#clip280)" d="M1350.3 49.3643 Q1350.3 41.2625 1346.93 36.8065 Q1343.61 32.3505 1337.58 32.3505 Q1331.58 32.3505 1328.22 36.8065 Q1324.9 41.2625 1324.9 49.3643 Q1324.9 57.4256 1328.22 61.8816 Q1331.58 66.3376 1337.58 66.3376 Q1343.61 66.3376 1346.93 61.8816 Q1350.3 57.4256 1350.3 49.3643 M1357.75 66.9452 Q1357.75 78.5308 1352.6 84.1616 Q1347.46 89.8329 1336.85 89.8329 Q1332.92 89.8329 1329.43 89.2252 Q1325.95 88.6581 1322.67 87.4428 L1322.67 80.1917 Q1325.95 81.9741 1329.15 82.8248 Q1332.35 83.6755 1335.67 83.6755 Q1343 83.6755 1346.65 79.8271 Q1350.3 76.0193 1350.3 68.282 L1350.3 64.5957 Q1347.99 68.6061 1344.38 70.5911 Q1340.78 72.576 1335.75 72.576 Q1327.41 72.576 1322.3 66.2161 Q1317.2 59.8562 1317.2 49.3643 Q1317.2 38.832 1322.3 32.472 Q1327.41 26.1121 1335.75 26.1121 Q1340.78 26.1121 1344.38 28.0971 Q1347.99 30.082 1350.3 34.0924 L1350.3 27.2059 L1357.75 27.2059 L1357.75 66.9452 Z" fill="#000000" fill-rule="evenodd" fill-opacity="1" /><path clip-path="url(#clip280)" d="M1432.12 28.9478 L1432.12 35.9153 Q1428.96 34.1734 1425.76 33.3227 Q1422.6 32.4315 1419.36 32.4315 Q1412.11 32.4315 1408.1 37.0496 Q1404.09 41.6271 1404.09 49.9314 Q1404.09 58.2358 1408.1 62.8538 Q1412.11 67.4314 1419.36 67.4314 Q1422.6 67.4314 1425.76 66.5807 Q1428.96 65.6895 1432.12 63.9476 L1432.12 70.8341 Q1429 72.2924 1425.64 73.0216 Q1422.32 73.7508 1418.55 73.7508 Q1408.3 73.7508 1402.27 67.3098 Q1396.23 60.8689 1396.23 49.9314 Q1396.23 38.832 1402.31 32.472 Q1408.43 26.1121 1419.04 26.1121 Q1422.48 26.1121 1425.76 26.8413 Q1429.04 27.5299 1432.12 28.9478 Z" fill="#000000" fill-rule="evenodd" fill-opacity="1" /><path clip-path="url(#clip280)" d="M1444.32 54.671 L1444.32 27.2059 L1451.77 27.2059 L1451.77 54.3874 Q1451.77 60.8284 1454.28 64.0691 Q1456.79 67.2693 1461.82 67.2693 Q1467.85 67.2693 1471.34 63.421 Q1474.86 59.5726 1474.86 52.9291 L1474.86 27.2059 L1482.31 27.2059 L1482.31 72.576 L1474.86 72.576 L1474.86 65.6084 Q1472.15 69.7404 1468.54 71.7658 Q1464.98 73.7508 1460.24 73.7508 Q1452.42 73.7508 1448.37 68.8897 Q1444.32 64.0286 1444.32 54.671 M1463.07 26.1121 L1463.07 26.1121 Z" fill="#000000" fill-rule="evenodd" fill-opacity="1" /><path clip-path="url(#clip280)" d="M1523.96 34.1734 Q1522.7 33.4443 1521.2 33.1202 Q1519.74 32.7556 1517.96 32.7556 Q1511.64 32.7556 1508.24 36.8875 Q1504.88 40.9789 1504.88 48.6757 L1504.88 72.576 L1497.38 72.576 L1497.38 27.2059 L1504.88 27.2059 L1504.88 34.2544 Q1507.23 30.1225 1510.99 28.1376 Q1514.76 26.1121 1520.15 26.1121 Q1520.92 26.1121 1521.85 26.2337 Q1522.78 26.3147 1523.92 26.5172 L1523.96 34.1734 Z" fill="#000000" fill-rule="evenodd" fill-opacity="1" /><path clip-path="url(#clip280)" d="M1526.43 27.2059 L1534.33 27.2059 L1548.51 65.2844 L1562.68 27.2059 L1570.58 27.2059 L1553.57 72.576 L1543.44 72.576 L1526.43 27.2059 Z" fill="#000000" fill-rule="evenodd" fill-opacity="1" /><path clip-path="url(#clip280)" d="M1619.68 48.0275 L1619.68 51.6733 L1585.41 51.6733 Q1585.9 59.3701 1590.03 63.421 Q1594.2 67.4314 1601.61 67.4314 Q1605.91 67.4314 1609.92 66.3781 Q1613.97 65.3249 1617.94 63.2184 L1617.94 70.267 Q1613.93 71.9684 1609.72 72.8596 Q1605.5 73.7508 1601.17 73.7508 Q1590.31 73.7508 1583.95 67.4314 Q1577.63 61.1119 1577.63 50.3365 Q1577.63 39.1965 1583.63 32.6746 Q1589.66 26.1121 1599.87 26.1121 Q1609.03 26.1121 1614.33 32.0264 Q1619.68 37.9003 1619.68 48.0275 M1612.23 45.84 Q1612.15 39.7232 1608.78 36.0774 Q1605.46 32.4315 1599.95 32.4315 Q1593.71 32.4315 1589.95 35.9558 Q1586.22 39.4801 1585.65 45.8805 L1612.23 45.84 Z" fill="#000000" fill-rule="evenodd" fill-opacity="1" /><path clip-path="url(#clip280)" d="M1676.19 9.62495 Q1670.76 18.942 1668.13 28.0566 Q1665.5 37.1711 1665.5 46.5287 Q1665.5 55.8863 1668.13 65.0818 Q1670.8 74.2369 1676.19 83.5134 L1669.71 83.5134 Q1663.63 73.9938 1660.59 64.7983 Q1657.6 55.6027 1657.6 46.5287 Q1657.6 37.4952 1660.59 28.3401 Q1663.59 19.1851 1669.71 9.62495 L1676.19 9.62495 Z" fill="#000000" fill-rule="evenodd" fill-opacity="1" /><path clip-path="url(#clip280)" d="M1717.1 51.4708 L1715.32 42.1132 Q1713.5 32.5126 1706.29 32.5126 Q1700.86 32.5126 1698.39 36.9686 Q1695.27 42.5588 1695.27 49.9314 Q1695.27 58.8434 1698.31 63.0969 Q1701.39 67.4314 1706.29 67.4314 Q1711.72 67.4314 1714.63 58.8029 L1717.1 51.4708 M1721.28 39.075 L1725.29 27.2059 L1731.93 27.2059 L1723.63 51.7949 L1725.25 60.6663 Q1725.61 62.6513 1727.03 64.3122 Q1728.69 66.2566 1729.99 66.2566 L1733.55 66.2566 L1733.55 72.576 L1729.1 72.576 Q1725.29 72.576 1721.88 69.1732 Q1720.22 67.4719 1719.54 63.9071 Q1717.67 68.4036 1713.86 71.9279 Q1712.08 73.5887 1706.29 73.5887 Q1696.77 73.5887 1692.15 67.4314 Q1687.41 61.0714 1687.41 49.9314 Q1687.41 38.0218 1692.56 32.4315 Q1698.27 26.1931 1706.29 26.1931 Q1718.89 26.1931 1721.28 39.075 Z" fill="#000000" fill-rule="evenodd" fill-opacity="1" /><path clip-path="url(#clip280)" d="M1746.31 34.9026 L1798.24 34.9026 L1798.24 41.7081 L1746.31 41.7081 L1746.31 34.9026 M1746.31 51.4303 L1798.24 51.4303 L1798.24 58.3168 L1746.31 58.3168 L1746.31 51.4303 Z" fill="#000000" fill-rule="evenodd" fill-opacity="1" /><path clip-path="url(#clip280)" d="M1833.41 17.4837 Q1827.09 17.4837 1823.89 23.7221 Q1820.73 29.92 1820.73 42.3968 Q1820.73 54.833 1823.89 61.0714 Q1827.09 67.2693 1833.41 67.2693 Q1839.77 67.2693 1842.93 61.0714 Q1846.13 54.833 1846.13 42.3968 Q1846.13 29.92 1842.93 23.7221 Q1839.77 17.4837 1833.41 17.4837 M1833.41 11.0023 Q1843.57 11.0023 1848.92 19.0636 Q1854.31 27.0843 1854.31 42.3968 Q1854.31 57.6687 1848.92 65.73 Q1843.57 73.7508 1833.41 73.7508 Q1823.24 73.7508 1817.85 65.73 Q1812.5 57.6687 1812.5 42.3968 Q1812.5 27.0843 1817.85 19.0636 Q1823.24 11.0023 1833.41 11.0023 Z" fill="#000000" fill-rule="evenodd" fill-opacity="1" /><path clip-path="url(#clip280)" d="M1868.69 62.2867 L1877.24 62.2867 L1877.24 72.576 L1868.69 72.576 L1868.69 62.2867 Z" fill="#000000" fill-rule="evenodd" fill-opacity="1" /><path clip-path="url(#clip280)" d="M1892.99 12.096 L1931.88 12.096 L1931.88 15.5798 L1909.93 72.576 L1901.38 72.576 L1922.04 18.9825 L1892.99 18.9825 L1892.99 12.096 Z" fill="#000000" fill-rule="evenodd" fill-opacity="1" /><path clip-path="url(#clip280)" d="M1945.62 9.62495 L1952.1 9.62495 Q1958.17 19.1851 1961.17 28.3401 Q1964.21 37.4952 1964.21 46.5287 Q1964.21 55.6027 1961.17 64.7983 Q1958.17 73.9938 1952.1 83.5134 L1945.62 83.5134 Q1951 74.2369 1953.64 65.0818 Q1956.31 55.8863 1956.31 46.5287 Q1956.31 37.1711 1953.64 28.0566 Q1951 18.942 1945.62 9.62495 Z" fill="#000000" fill-rule="evenodd" fill-opacity="1" /><polyline clip-path="url(#clip282)" style="stroke:#0000ff; stroke-linecap:butt; stroke-linejoin:round; stroke-width:6; stroke-opacity:1; fill:none" points="
  280.231,390.28 300.556,461.004 320.881,1000.58 341.206,1013.09 361.53,898.458 381.855,603.31 402.18,558.95 422.505,671.651 442.83,591.437 463.155,338.023 
  483.48,651.961 503.804,477.901 524.129,466.706 544.454,603.716 564.779,630.823 585.104,698.368 605.429,445.4 625.753,1014.39 646.078,580.724 666.403,604.986 
  686.728,578.69 707.053,749.223 727.378,444.665 747.703,511.229 768.027,584.61 788.352,484.71 808.677,632.954 829.002,461.321 849.327,769.578 869.652,548.163 
  889.977,433.084 910.301,552.16 930.626,421.466 950.951,721.695 971.276,580.649 991.601,560.902 1011.93,427.144 1032.25,600.445 1052.58,711.177 1072.9,290.12 
  1093.23,418.68 1113.55,504.754 1133.87,636.167 1154.2,630.251 1174.52,432.631 1194.85,585.255 1215.17,526.543 1235.5,435.858 1255.82,543.224 1276.15,623.549 
  1296.47,727.516 1316.8,934.92 1337.12,1386.4 1357.45,628.306 1377.77,405.407 1398.1,473.242 1418.42,571.508 1438.75,514.212 1459.07,389.437 1479.4,489.289 
  1499.72,654.959 1520.05,511.433 1540.37,636.433 1560.7,574.985 1581.02,601.971 1601.35,362.386 1621.67,626.682 1642,160.256 1662.32,160.256 1682.65,160.256 
  1702.97,160.256 1723.3,160.256 1743.62,160.256 1763.95,160.256 1784.27,160.256 1804.59,160.256 1824.92,160.256 1845.24,160.256 1865.57,160.256 1885.89,160.256 
  1906.22,160.256 1926.54,160.256 1946.87,160.256 1967.19,160.256 1987.52,160.256 2007.84,160.256 2028.17,160.256 2048.49,160.256 2068.82,160.256 2089.14,160.256 
  2109.47,160.256 2129.79,160.256 2150.12,160.256 2170.44,160.256 2190.77,160.256 2211.09,160.256 2231.42,160.256 2251.74,160.256 2272.07,160.256 2292.39,160.256 
  
  "/>
<polyline clip-path="url(#clip282)" style="stroke:#000000; stroke-linecap:butt; stroke-linejoin:round; stroke-width:8; stroke-opacity:1; fill:none" points="
  280.231,1121.19 300.556,1121.19 320.881,1121.19 341.206,1121.19 361.53,1121.19 381.855,1121.19 402.18,1121.19 422.505,1121.19 442.83,1121.19 463.155,1121.19 
  483.48,1121.19 503.804,1121.19 524.129,1121.19 544.454,1121.19 564.779,1121.19 585.104,1121.19 605.429,1121.19 625.753,1121.19 646.078,1121.19 666.403,1121.19 
  686.728,1121.19 707.053,1121.19 727.378,1121.19 747.703,1121.19 768.027,1121.19 788.352,1121.19 808.677,1121.19 829.002,1121.19 849.327,1121.19 869.652,1121.19 
  889.977,1121.19 910.301,1121.19 930.626,1121.19 950.951,1121.19 971.276,1121.19 991.601,1121.19 1011.93,1121.19 1032.25,1121.19 1052.58,1121.19 1072.9,1121.19 
  1093.23,1121.19 1113.55,1121.19 1133.87,1121.19 1154.2,1121.19 1174.52,1121.19 1194.85,1121.19 1215.17,1121.19 1235.5,1121.19 1255.82,1121.19 1276.15,1121.19 
  1296.47,1121.19 1316.8,1121.19 1337.12,1121.19 1357.45,1121.19 1377.77,1121.19 1398.1,1121.19 1418.42,1121.19 1438.75,1121.19 1459.07,1121.19 1479.4,1121.19 
  1499.72,1121.19 1520.05,1121.19 1540.37,1121.19 1560.7,1121.19 1581.02,1121.19 1601.35,1121.19 1621.67,1121.19 1642,1121.19 1662.32,1121.19 1682.65,1121.19 
  1702.97,1121.19 1723.3,1121.19 1743.62,1121.19 1763.95,1121.19 1784.27,1121.19 1804.59,1121.19 1824.92,1121.19 1845.24,1121.19 1865.57,1121.19 1885.89,1121.19 
  1906.22,1121.19 1926.54,1121.19 1946.87,1121.19 1967.19,1121.19 1987.52,1121.19 2007.84,1121.19 2028.17,1121.19 2048.49,1121.19 2068.82,1121.19 2089.14,1121.19 
  2109.47,1121.19 2129.79,1121.19 2150.12,1121.19 2170.44,1121.19 2190.77,1121.19 2211.09,1121.19 2231.42,1121.19 2251.74,1121.19 2272.07,1121.19 2292.39,1121.19 
  
  "/>
<path clip-path="url(#clip280)" d="
M1722.45 1379.86 L2281.66 1379.86 L2281.66 1224.34 L1722.45 1224.34  Z
  " fill="#ffffff" fill-rule="evenodd" fill-opacity="1"/>
<polyline clip-path="url(#clip280)" style="stroke:#000000; stroke-linecap:butt; stroke-linejoin:round; stroke-width:4; stroke-opacity:1; fill:none" points="
  1722.45,1379.86 2281.66,1379.86 2281.66,1224.34 1722.45,1224.34 1722.45,1379.86 
  "/>
<polyline clip-path="url(#clip280)" style="stroke:#0000ff; stroke-linecap:butt; stroke-linejoin:round; stroke-width:4; stroke-opacity:1; fill:none" points="
  1746.15,1276.18 1888.34,1276.18 
  "/>
<path clip-path="url(#clip280)" d="M1937.6 1288.53 L1937.6 1279.24 L1929.96 1279.24 L1929.96 1275.4 L1942.23 1275.4 L1942.23 1290.24 Q1939.52 1292.16 1936.25 1293.16 Q1932.99 1294.13 1929.29 1294.13 Q1921.19 1294.13 1916.6 1289.41 Q1912.04 1284.66 1912.04 1276.21 Q1912.04 1267.74 1916.6 1263.02 Q1921.19 1258.27 1929.29 1258.27 Q1932.67 1258.27 1935.7 1259.1 Q1938.75 1259.94 1941.32 1261.56 L1941.32 1266.54 Q1938.73 1264.34 1935.81 1263.22 Q1932.9 1262.11 1929.68 1262.11 Q1923.34 1262.11 1920.14 1265.66 Q1916.97 1269.2 1916.97 1276.21 Q1916.97 1283.2 1920.14 1286.74 Q1923.34 1290.28 1929.68 1290.28 Q1932.16 1290.28 1934.1 1289.87 Q1936.05 1289.43 1937.6 1288.53 Z" fill="#000000" fill-rule="evenodd" fill-opacity="1" /><path clip-path="url(#clip280)" d="M1965.61 1271.51 Q1964.89 1271.1 1964.03 1270.91 Q1963.2 1270.7 1962.18 1270.7 Q1958.57 1270.7 1956.62 1273.06 Q1954.7 1275.4 1954.7 1279.8 L1954.7 1293.46 L1950.42 1293.46 L1950.42 1267.53 L1954.7 1267.53 L1954.7 1271.56 Q1956.05 1269.2 1958.2 1268.06 Q1960.35 1266.91 1963.43 1266.91 Q1963.87 1266.91 1964.4 1266.97 Q1964.93 1267.02 1965.58 1267.14 L1965.61 1271.51 Z" fill="#000000" fill-rule="evenodd" fill-opacity="1" /><path clip-path="url(#clip280)" d="M1991.21 1279.43 L1991.21 1281.51 L1971.62 1281.51 Q1971.9 1285.91 1974.26 1288.22 Q1976.65 1290.52 1980.88 1290.52 Q1983.34 1290.52 1985.63 1289.91 Q1987.94 1289.31 1990.21 1288.11 L1990.21 1292.14 Q1987.92 1293.11 1985.51 1293.62 Q1983.11 1294.13 1980.63 1294.13 Q1974.43 1294.13 1970.79 1290.52 Q1967.18 1286.91 1967.18 1280.75 Q1967.18 1274.38 1970.61 1270.66 Q1974.06 1266.91 1979.89 1266.91 Q1985.12 1266.91 1988.15 1270.29 Q1991.21 1273.64 1991.21 1279.43 M1986.95 1278.18 Q1986.9 1274.68 1984.98 1272.6 Q1983.08 1270.52 1979.93 1270.52 Q1976.37 1270.52 1974.22 1272.53 Q1972.09 1274.54 1971.76 1278.2 L1986.95 1278.18 Z" fill="#000000" fill-rule="evenodd" fill-opacity="1" /><path clip-path="url(#clip280)" d="M2020.37 1279.43 L2020.37 1281.51 L2000.79 1281.51 Q2001.07 1285.91 2003.43 1288.22 Q2005.81 1290.52 2010.05 1290.52 Q2012.5 1290.52 2014.8 1289.91 Q2017.11 1289.31 2019.38 1288.11 L2019.38 1292.14 Q2017.09 1293.11 2014.68 1293.62 Q2012.27 1294.13 2009.8 1294.13 Q2003.59 1294.13 1999.96 1290.52 Q1996.35 1286.91 1996.35 1280.75 Q1996.35 1274.38 1999.77 1270.66 Q2003.22 1266.91 2009.05 1266.91 Q2014.29 1266.91 2017.32 1270.29 Q2020.37 1273.64 2020.37 1279.43 M2016.12 1278.18 Q2016.07 1274.68 2014.15 1272.6 Q2012.25 1270.52 2009.1 1270.52 Q2005.54 1270.52 2003.38 1272.53 Q2001.25 1274.54 2000.93 1278.2 L2016.12 1278.18 Z" fill="#000000" fill-rule="evenodd" fill-opacity="1" /><path clip-path="url(#clip280)" d="M2044.43 1271.47 L2044.43 1257.44 L2048.68 1257.44 L2048.68 1293.46 L2044.43 1293.46 L2044.43 1289.57 Q2043.08 1291.88 2041.02 1293.02 Q2038.99 1294.13 2036.11 1294.13 Q2031.42 1294.13 2028.45 1290.38 Q2025.51 1286.63 2025.51 1280.52 Q2025.51 1274.41 2028.45 1270.66 Q2031.42 1266.91 2036.11 1266.91 Q2038.99 1266.91 2041.02 1268.04 Q2043.08 1269.15 2044.43 1271.47 M2029.91 1280.52 Q2029.91 1285.22 2031.83 1287.9 Q2033.78 1290.56 2037.16 1290.56 Q2040.54 1290.56 2042.48 1287.9 Q2044.43 1285.22 2044.43 1280.52 Q2044.43 1275.82 2042.48 1273.16 Q2040.54 1270.47 2037.16 1270.47 Q2033.78 1270.47 2031.83 1273.16 Q2029.91 1275.82 2029.91 1280.52 Z" fill="#000000" fill-rule="evenodd" fill-opacity="1" /><path clip-path="url(#clip280)" d="M2068.24 1295.86 Q2066.44 1300.49 2064.73 1301.91 Q2063.01 1303.32 2060.14 1303.32 L2056.74 1303.32 L2056.74 1299.75 L2059.24 1299.75 Q2061 1299.75 2061.97 1298.92 Q2062.94 1298.09 2064.12 1294.98 L2064.89 1293.04 L2054.4 1267.53 L2058.92 1267.53 L2067.02 1287.81 L2075.12 1267.53 L2079.63 1267.53 L2068.24 1295.86 Z" fill="#000000" fill-rule="evenodd" fill-opacity="1" /><path clip-path="url(#clip280)" d="M2104.7 1289.57 L2104.7 1303.32 L2100.42 1303.32 L2100.42 1267.53 L2104.7 1267.53 L2104.7 1271.47 Q2106.05 1269.15 2108.08 1268.04 Q2110.14 1266.91 2112.99 1266.91 Q2117.71 1266.91 2120.65 1270.66 Q2123.61 1274.41 2123.61 1280.52 Q2123.61 1286.63 2120.65 1290.38 Q2117.71 1294.13 2112.99 1294.13 Q2110.14 1294.13 2108.08 1293.02 Q2106.05 1291.88 2104.7 1289.57 M2119.19 1280.52 Q2119.19 1275.82 2117.25 1273.16 Q2115.33 1270.47 2111.95 1270.47 Q2108.57 1270.47 2106.62 1273.16 Q2104.7 1275.82 2104.7 1280.52 Q2104.7 1285.22 2106.62 1287.9 Q2108.57 1290.56 2111.95 1290.56 Q2115.33 1290.56 2117.25 1287.9 Q2119.19 1285.22 2119.19 1280.52 Z" fill="#000000" fill-rule="evenodd" fill-opacity="1" /><path clip-path="url(#clip280)" d="M2140.72 1270.52 Q2137.29 1270.52 2135.3 1273.2 Q2133.31 1275.86 2133.31 1280.52 Q2133.31 1285.17 2135.28 1287.85 Q2137.27 1290.52 2140.72 1290.52 Q2144.12 1290.52 2146.11 1287.83 Q2148.11 1285.15 2148.11 1280.52 Q2148.11 1275.91 2146.11 1273.22 Q2144.12 1270.52 2140.72 1270.52 M2140.72 1266.91 Q2146.28 1266.91 2149.45 1270.52 Q2152.62 1274.13 2152.62 1280.52 Q2152.62 1286.88 2149.45 1290.52 Q2146.28 1294.13 2140.72 1294.13 Q2135.14 1294.13 2131.97 1290.52 Q2128.82 1286.88 2128.82 1280.52 Q2128.82 1274.13 2131.97 1270.52 Q2135.14 1266.91 2140.72 1266.91 Z" fill="#000000" fill-rule="evenodd" fill-opacity="1" /><path clip-path="url(#clip280)" d="M2159.68 1257.44 L2163.94 1257.44 L2163.94 1293.46 L2159.68 1293.46 L2159.68 1257.44 Z" fill="#000000" fill-rule="evenodd" fill-opacity="1" /><path clip-path="url(#clip280)" d="M2172.85 1267.53 L2177.11 1267.53 L2177.11 1293.46 L2172.85 1293.46 L2172.85 1267.53 M2172.85 1257.44 L2177.11 1257.44 L2177.11 1262.83 L2172.85 1262.83 L2172.85 1257.44 Z" fill="#000000" fill-rule="evenodd" fill-opacity="1" /><path clip-path="url(#clip280)" d="M2204.68 1268.53 L2204.68 1272.51 Q2202.87 1271.51 2201.04 1271.03 Q2199.24 1270.52 2197.39 1270.52 Q2193.24 1270.52 2190.95 1273.16 Q2188.66 1275.77 2188.66 1280.52 Q2188.66 1285.26 2190.95 1287.9 Q2193.24 1290.52 2197.39 1290.52 Q2199.24 1290.52 2201.04 1290.03 Q2202.87 1289.52 2204.68 1288.53 L2204.68 1292.46 Q2202.9 1293.29 2200.98 1293.71 Q2199.08 1294.13 2196.92 1294.13 Q2191.07 1294.13 2187.62 1290.45 Q2184.17 1286.77 2184.17 1280.52 Q2184.17 1274.17 2187.64 1270.54 Q2191.14 1266.91 2197.2 1266.91 Q2199.17 1266.91 2201.04 1267.32 Q2202.92 1267.72 2204.68 1268.53 Z" fill="#000000" fill-rule="evenodd" fill-opacity="1" /><path clip-path="url(#clip280)" d="M2222.87 1295.86 Q2221.07 1300.49 2219.35 1301.91 Q2217.64 1303.32 2214.77 1303.32 L2211.37 1303.32 L2211.37 1299.75 L2213.87 1299.75 Q2215.63 1299.75 2216.6 1298.92 Q2217.57 1298.09 2218.75 1294.98 L2219.52 1293.04 L2209.03 1267.53 L2213.54 1267.53 L2221.65 1287.81 L2229.75 1267.53 L2234.26 1267.53 L2222.87 1295.86 Z" fill="#000000" fill-rule="evenodd" fill-opacity="1" /><polyline clip-path="url(#clip280)" style="stroke:#000000; stroke-linecap:butt; stroke-linejoin:round; stroke-width:4; stroke-opacity:1; fill:none" points="
  1746.15,1328.02 1888.34,1328.02 
  "/>
<path clip-path="url(#clip280)" d="M1923.99 1313.81 Q1920.37 1313.81 1918.55 1317.38 Q1916.74 1320.92 1916.74 1328.05 Q1916.74 1335.16 1918.55 1338.72 Q1920.37 1342.26 1923.99 1342.26 Q1927.62 1342.26 1929.43 1338.72 Q1931.25 1335.16 1931.25 1328.05 Q1931.25 1320.92 1929.43 1317.38 Q1927.62 1313.81 1923.99 1313.81 M1923.99 1310.11 Q1929.8 1310.11 1932.85 1314.72 Q1935.93 1319.3 1935.93 1328.05 Q1935.93 1336.78 1932.85 1341.38 Q1929.8 1345.97 1923.99 1345.97 Q1918.18 1345.97 1915.1 1341.38 Q1912.04 1336.78 1912.04 1328.05 Q1912.04 1319.3 1915.1 1314.72 Q1918.18 1310.11 1923.99 1310.11 Z" fill="#000000" fill-rule="evenodd" fill-opacity="1" /><path clip-path="url(#clip280)" d="M1944.15 1339.42 L1949.03 1339.42 L1949.03 1345.3 L1944.15 1345.3 L1944.15 1339.42 Z" fill="#000000" fill-rule="evenodd" fill-opacity="1" /><path clip-path="url(#clip280)" d="M1959.26 1310.74 L1977.62 1310.74 L1977.62 1314.67 L1963.55 1314.67 L1963.55 1323.14 Q1964.56 1322.8 1965.58 1322.63 Q1966.6 1322.45 1967.62 1322.45 Q1973.41 1322.45 1976.79 1325.62 Q1980.17 1328.79 1980.17 1334.21 Q1980.17 1339.79 1976.69 1342.89 Q1973.22 1345.97 1966.9 1345.97 Q1964.73 1345.97 1962.46 1345.6 Q1960.21 1345.23 1957.81 1344.49 L1957.81 1339.79 Q1959.89 1340.92 1962.11 1341.48 Q1964.33 1342.03 1966.81 1342.03 Q1970.81 1342.03 1973.15 1339.93 Q1975.49 1337.82 1975.49 1334.21 Q1975.49 1330.6 1973.15 1328.49 Q1970.81 1326.38 1966.81 1326.38 Q1964.93 1326.38 1963.06 1326.8 Q1961.21 1327.22 1959.26 1328.1 L1959.26 1310.74 Z" fill="#000000" fill-rule="evenodd" fill-opacity="1" /></svg>
